<svg xmlns="http://www.w3.org/2000/svg">
<defs>
<font id="KendalType" horiz-adv-x="1014" >
  <font-face 
    font-family="Kendal Type"
    font-weight="400"
    font-style="italic"
    font-stretch="expanded"
    units-per-em="2048"
    panose-1="2 0 5 0 0 0 0 0 0 0"
    ascent="1638"
    descent="-410"
    x-height="1024"
    cap-height="1450"
    bbox="-241.714 -492.122 2729 1908.69"
    underline-thickness="150"
    underline-position="-142"
    slope="-50"
    unicode-range="U+001D-U+F002"
  />
<missing-glyph horiz-adv-x="2713" 
d="M249 408v0q-29 0 -45 -13v36v21v6q-1 10 -6 17q-6 9 -17 10h-6q-9 0 -16 -5q-8 -5 -11 -15q7 0 11 -3t5 -10v-21v-156q3 -60 73 -60q37 0 55 19q18 20 18 48v66q0 25 -14 43q-14 17 -47 17zM270 287v0q0 -27 -25 -32q-3 -1 -8 -1q-8 0 -14 2q-9 3 -14 10q-3 4 -4 9
q-1 3 -1 6v73q4 4 16 10t29 5q21 1 21 -20v-62zM507 391v0q-2 6 -7 11q-3 2 -5 3h-1v1l-6 2h-1v0q-8 2 -17 0q-8 -3 -14 -11q12 -4 12 -13v-2v0v-1v-1q-8 -23 -13 -40q-6 -17 -11 -33q-5 -17 -9 -28q-6 19 -15 43q-8 25 -22 63v0v0q-1 3 -2 5v0v1v0q-1 0 -1 1v0v1h-1
q-3 7 -9 11q-5 4 -11 5v0h-2h-6v0h-1q-2 -1 -5 -2q-1 0 -1 -1h-1q-7 -3 -12 -10q-6 -7 -5 -17q11 5 17 -3v-1q1 0 1 -1v0v0l56 -151q-13 -46 -40 -45q-4 0 -8 2t-5 8v2l-2 -1q-12 -5 -14 -13t-1 -14q0 -4 2 -8q5 -8 13 -12q7 -3 12 -3q2 -1 5 -1v0q5 0 9 1v0h1l4 1
q31 6 46 33t27 69l39 117v0l2 8v0v1q1 2 2 5v1q0 1 1 1v0v1q1 8 -1 15zM843 259v0q-1 4 -2 7l-72 198q-4 11 -10 16q-6 6 -18 6q-13 0 -19 -6t-9 -16l-73 -199q-1 -3 -1 -6q-4 -12 0 -22q3 -12 16 -17q4 -2 7 -3h1h1q4 -1 9 -1q3 0 10 1q6 1 13 6q-17 9 -13 28v1l8 22h98v-1
l8 -22q4 -19 -12 -28q6 -4 13 -6q6 -1 10 -1q5 0 10 1q1 0 4 1t4 2q13 5 17 17q3 10 0 22zM704 311v0v1l37 108l36 -109h-73zM1039 249v0l-2 -1q-7 -1 -11 2q-2 1 -3 3t-1 4l-1 1v1v3v2v192q1 3 0 10q-1 6 -7 13q-9 8 -27 6q-15 -2 -22 -17l-2 -3h3q6 0 10 -3q3 -3 5 -12
v-48q-18 8 -38 8q-66 0 -66 -77v-45q0 -36 19 -56q17 -17 44 -17q24 0 50 15v0l1 -1v-1l2 -2v-1q4 -4 12 -6q8 -1 17 1q5 1 11 7t6 19v3zM981 301v0l-1 -36q-19 -9 -33 -9q-16 0 -23 7t-7 25v45q0 21 7 29q6 8 24 8q6 0 16 -3t17 -7v0v-59zM1227 345v0q0 27 -15 45

<glyph glyph-name=".notdef" horiz-adv-x="2713" 
d="M249 408v0q-29 0 -45 -13v36v21v6q-1 10 -6 17q-6 9 -17 10h-6q-9 0 -16 -5q-8 -5 -11 -15q7 0 11 -3t5 -10v-21v-156q3 -60 73 -60q37 0 55 19q18 20 18 48v66q0 25 -14 43q-14 17 -47 17zM270 287v0q0 -27 -25 -32q-3 -1 -8 -1q-8 0 -14 2q-9 3 -14 10q-3 4 -4 9
q-1 3 -1 6v73q4 4 16 10t29 5q21 1 21 -20v-62zM507 391v0q-2 6 -7 11q-3 2 -5 3h-1v1l-6 2h-1v0q-8 2 -17 0q-8 -3 -14 -11q12 -4 12 -13v-2v0v-1v-1q-8 -23 -13 -40q-6 -17 -11 -33q-5 -17 -9 -28q-6 19 -15 43q-8 25 -22 63v0v0q-1 3 -2 5v0v1v0q-1 0 -1 1v0v1h-1
q-3 7 -9 11q-5 4 -11 5v0h-2h-6v0h-1q-2 -1 -5 -2q-1 0 -1 -1h-1q-7 -3 -12 -10q-6 -7 -5 -17q11 5 17 -3v-1q1 0 1 -1v0v0l56 -151q-13 -46 -40 -45q-4 0 -8 2t-5 8v2l-2 -1q-12 -5 -14 -13t-1 -14q0 -4 2 -8q5 -8 13 -12q7 -3 12 -3q2 -1 5 -1v0q5 0 9 1v0h1l4 1
q31 6 46 33t27 69l39 117v0l2 8v0v1q1 2 2 5v1q0 1 1 1v0v1q1 8 -1 15zM843 259v0q-1 4 -2 7l-72 198q-4 11 -10 16q-6 6 -18 6q-13 0 -19 -6t-9 -16l-73 -199q-1 -3 -1 -6q-4 -12 0 -22q3 -12 16 -17q4 -2 7 -3h1h1q4 -1 9 -1q3 0 10 1q6 1 13 6q-17 9 -13 28v1l8 22h98v-1
l8 -22q4 -19 -12 -28q6 -4 13 -6q6 -1 10 -1q5 0 10 1q1 0 4 1t4 2q13 5 17 17q3 10 0 22zM704 311v0v1l37 108l36 -109h-73zM1039 249v0l-2 -1q-7 -1 -11 2q-2 1 -3 3t-1 4l-1 1v1v3v2v192q1 3 0 10q-1 6 -7 13q-9 8 -27 6q-15 -2 -22 -17l-2 -3h3q6 0 10 -3q3 -3 5 -12
v-48q-18 8 -38 8q-66 0 -66 -77v-45q0 -36 19 -56q17 -17 44 -17q24 0 50 15v0l1 -1v-1l2 -2v-1q4 -4 12 -6q8 -1 17 1q5 1 11 7t6 19v3zM981 301v0l-1 -36q-19 -9 -33 -9q-16 0 -23 7t-7 25v45q0 21 7 29q6 8 24 8q6 0 16 -3t17 -7v0v-59zM1227 345v0q0 27 -15 45
q-16 17 -48 17q-22 0 -40 -12v37v21v0v1v5q-1 10 -6 17q-6 8 -17 10h-5q-9 0 -16 -5q-8 -5 -11 -15q7 0 11 -3t5 -10v-21v-162v-21q-1 -7 -5 -10t-11 -3q3 -10 11 -15q7 -5 16 -5h5q3 1 5 2q8 2 12 8q5 7 6 17v5v1v0v21v87q18 17 37 17q26 -1 26 -27v-77v-21v0v0
q0 -7 -4 -10t-12 -2q3 -11 11 -16t16 -5q3 0 6 1q2 0 4 1q8 2 13 8q5 7 6 17v6v0v0v20v3v73zM1355 408v0q-8 3 -18 4h-2h-2h-1h-2h-4q-16 0 -29 -6q-8 -3 -16 -9q-8 -7 -13 -15v-1q-2 -4 -2 -8h-1v-1v-2v-1q0 -9 7 -17q3 -3 7 -4q8 -4 17 -1h2l-1 2q-1 3 -1 6q0 7 5 11v1
q6 5 16 8q15 4 28 -4q1 0 2 -1l1 -1v0h1v0q0 -1 1 -1q8 -8 8 -20v-21h-1q-16 2 -32 2q-21 0 -36 -5q-2 -1 -5 -2q-27 -13 -27 -48q0 -27 14 -41q17 -17 51 -17h2h1h1v0q26 0 44 11v1v-1q4 -5 9 -8q4 -2 9 -2q10 1 15 5t7 10q1 5 1 9v2h-1q-4 0 -7 2t-5 7v1v2v3v73v2v13
q0 8 -2 15q-2 8 -5 14l-1 4q-11 22 -35 29zM1359 293v0l-1 -19v-2v-1v0q-1 -1 -1 -2q-1 -6 -6 -11v0q0 -1 -1 -1q-9 -9 -25 -9h-4q-2 1 -5 1v0q-10 1 -15 6q-6 5 -6 18q0 15 12 21q1 0 2 1h1q6 2 15 2q4 0 14 -1q9 -1 19 -3h1zM1745 259v0q-1 4 -2 7l-72 198q-4 11 -10 16
q-6 6 -18 6t-18 -6t-10 -16l-72 -199q-2 -3 -2 -6q-3 -12 0 -22q4 -12 16 -17q4 -2 7 -3h1h1q4 -1 9 -1q4 0 10 1t13 6q-17 9 -13 28l1 1l7 22h98l1 -1l8 -22q4 -19 -13 -28q6 -4 13 -6q6 -1 10 -1q5 0 10 1q1 0 4 1t4 2q13 5 17 17q4 10 0 22zM1606 311v0v1l37 108l36 -109
h-73zM1905 270v0q0 -7 -3 -11q-2 -4 -10 -5h-57l88 124q4 7 4 14q0 9 -6 14q-7 6 -15 6h-91v0v0q-3 0 -6 -1q-9 0 -16 -5q-8 -6 -10 -16v-1v-1q-1 -3 -1 -5v-1q1 -8 6 -15q5 -8 15 -11q0 7 2 11q3 4 10 5l56 -1l-88 -124q-4 -6 -4 -12q0 -9 6 -15q7 -6 15 -6h92h1v0q2 0 5 1
q10 0 17 6q8 6 10 17v5v1q0 8 -5 16q-5 7 -15 10zM2084 270v0q0 -7 -3 -11q-2 -4 -10 -5h-57l88 124q5 7 5 14q0 9 -7 14q-6 6 -15 6h-91v0v0q-3 0 -5 -1q-10 0 -17 -5q-8 -6 -10 -16v-1v-1v-5v-1q0 -8 5 -15q5 -8 15 -11q0 7 2 11q3 4 10 5l56 -1l-88 -124q-4 -6 -4 -12
q0 -9 6 -15q7 -6 15 -6h92h1v0q2 0 5 1q10 0 17 6q8 6 10 17v5v1q0 8 -5 16q-5 7 -15 10zM2235 408v0q-8 3 -18 4h-2h-2h-1h-2h-3q-17 0 -30 -6q-7 -3 -16 -9q-8 -7 -12 -15l-1 -1q-2 -4 -2 -8v0v-1l-1 -2v-1q0 -9 8 -17q2 -3 6 -4q8 -4 17 -1h2l-1 2q-1 3 -1 6q0 7 5 11v1
q6 5 16 8q15 4 28 -4q1 0 3 -1v-1v0h1v0q0 -1 1 -1q8 -8 8 -20v-21h-1q-16 2 -32 2q-21 0 -36 -5q-2 -1 -5 -2q-27 -13 -27 -48q0 -27 14 -41q17 -17 51 -17h2h1h1h1q25 0 43 11v1v-1q5 -5 9 -8q4 -2 9 -2q10 1 15 5t7 10q1 5 1 9l1 2h-2q-4 0 -7 2t-5 7v1v2v3v73v2v13
q0 8 -2 15q-2 8 -4 14l-2 4q-11 22 -35 29zM2239 293v0l-1 -19v-2v-1v0q0 -1 -1 -2q-1 -6 -5 -11h-1q0 -1 -1 -1q-9 -9 -25 -9h-4q-2 1 -4 1h-1q-10 1 -15 6q-6 5 -6 18q0 15 12 21q1 0 2 1h1q6 2 15 2q5 0 14 -1t19 -3h1zM2494 249v0l-1 3l-2 -2q-6 -3 -11 -1q-2 1 -4 3v1
v0h-1l-36 51l-17 23l42 39l2 2t3 2q1 0 3 1t5 1t5 -1l3 -2l1 3q2 9 -1 17q-2 5 -4 8q-10 10 -22 9q-5 -1 -10 -4q-3 -1 -5 -3l-68 -67l-1 128q0 9 -5 16q-8 10 -22 10q-8 0 -15 -5t-11 -15v-3h3q5 0 8 -1q3 -2 4 -8v-5v-202q-1 -5 -3 -7q-3 -2 -10 -2h-2v-3q3 -10 11 -15
q7 -5 15 -5v0h1q14 0 21 10q5 7 5 16v5v37l20 19l5 -8v0l2 -2l1 -2v0l41 -57q4 -8 8 -11q5 -4 9 -5q12 -4 23 4q4 3 6 6q7 10 4 22zM2538 405v0q-8 -6 -11 -16q8 0 12 -3t5 -11v-10v-101v-16v-6q1 -11 6 -18q7 -9 18 -10q3 -1 6 -1q9 1 17 6t11 16q-8 0 -12 2q-4 3 -5 11v0
v22v95v11v6q-1 10 -6 17q-8 11 -24 11q-9 0 -17 -5zM2578 480v0q-8 6 -18 6t-17 -6q-7 -7 -7 -16t7 -16t17 -7t18 7q7 7 7 16t-7 16zM210 -30v0q-5 2 -11 3h-2h-1h-1h-1h-2q-11 0 -20 -4q-5 -2 -10 -6t-8 -10v0q-2 -3 -2 -5v-1v0v-1v-1q0 -6 4 -11q2 -2 4 -3q6 -3 12 -1h1
l-1 1v5q0 4 3 7v0q4 4 10 6q10 2 18 -3q1 0 2 -1h1v0v0v-1h1q5 -5 5 -13v-14h-1q-10 2 -21 2q-13 0 -23 -4q-1 0 -3 -1q-18 -9 -18 -31q0 -17 10 -27q10 -11 33 -11h1h1v0h1q16 1 28 8v0v0q3 -4 6 -5q2 -2 6 -2q6 0 9 3t5 7q1 3 1 6v1h-1q-3 0 -5 1t-3 5v0v2v1v48v2v8
q0 5 -1 10q-2 5 -3 9l-1 2q-7 14 -23 19zM212 -105v0v-12v-1v-1v0l-1 -1q-1 -4 -3 -7l-1 -1v0v0q-6 -6 -16 -6h-3q-2 0 -3 1v0q-7 1 -10 4q-4 3 -4 11q0 10 8 14h1l1 1q4 1 10 1h9q6 -1 12 -3v0zM372 -133v0l-2 -1q-4 -1 -6 1q-2 1 -2 2q-1 2 -1 3l-1 1v0v2v2v124q1 2 0 6
q-1 5 -4 9q-6 6 -18 4q-10 -1 -14 -11l-1 -2h2q3 0 6 -2q2 -2 3 -8v-31q-12 5 -24 5q-44 0 -44 -50v-29q0 -24 13 -36q11 -11 29 -11q15 0 32 9v0h1v-1l1 -1v-1q2 -2 8 -4q5 -1 11 1q3 1 7 5q4 3 4 12v2zM334 -99v0v-24q-13 -6 -22 -6q-10 0 -15 5q-5 4 -5 16v29q0 14 5 19
q4 5 16 5q4 0 10 -2q7 -1 11 -4v0v-38zM494 -71v0q0 18 -10 29t-31 11q-14 0 -26 -8v25v13v0v1v3q0 6 -3 11q-4 5 -11 6q-2 1 -4 0q-6 0 -10 -3q-5 -3 -7 -10q4 0 7 -1q2 -2 3 -7v-13v-106v-13q-1 -5 -3 -7q-3 -1 -7 -1q2 -7 7 -10q4 -3 10 -4q2 0 4 1h2q5 2 9 6q3 4 3 11v3
v0v1v13v57q12 11 24 11q17 -1 17 -18v-49v-14v0v0q0 -5 -3 -7q-2 -1 -7 -1q2 -7 7 -10t10 -4q2 0 4 1h3q5 2 8 6q3 5 4 11v3v1v0v13v2v47zM577 -30v0q-5 2 -11 3h-2h-1h-1h-1h-2q-11 0 -20 -4q-4 -2 -9 -6q-6 -4 -9 -10v0q-1 -3 -2 -5v-1v0v-1v-1q0 -6 5 -11q2 -2 4 -3
q5 -3 11 -1h1v1q-1 3 -1 5q0 4 3 7v0q4 4 10 6q10 2 19 -3q1 0 1 -1h1v0v0v0v0v0v0v0v-1h1q5 -5 5 -13v-14h-1q-10 2 -20 2q-14 0 -23 -4q-2 0 -4 -1q-17 -9 -17 -31q0 -17 9 -27q11 -11 33 -11h1h1v0h1q17 1 28 8v0v0q3 -4 6 -5q3 -2 6 -2q6 0 10 3q3 3 4 7q1 3 1 6v1h-1
q-2 0 -4 1q-3 1 -4 5v0v2v1v48v2v8q0 5 -1 10t-3 9l-1 2q-7 14 -23 19zM580 -105v0l-1 -12v-1v-1v0v-1q-1 -4 -4 -7v-1v0h-1q-5 -6 -16 -6h-3t-3 1v0q-6 1 -10 4t-4 11q0 10 8 14h2v1q4 1 10 1h9q6 -1 12 -3h1zM715 -119v0q0 -5 -1 -8q-2 -2 -7 -3h-37l58 80q2 5 2 9
q0 6 -4 10q-4 3 -10 3h-59v0v0h-3q-7 0 -11 -4q-6 -3 -7 -10v0v-1v-3v-1q0 -5 3 -10q4 -5 10 -7q0 5 2 7q2 3 6 4l37 -1l-58 -80q-2 -4 -2 -8q0 -6 4 -10t9 -4h60h1v0q1 0 3 1q7 0 11 3q6 4 7 12v3v0q0 6 -4 11q-3 4 -10 7zM814 -30v0q-6 2 -12 3h-1h-2v0h-2h-2
q-11 0 -19 -4q-5 -2 -10 -6t-8 -10h-1q-1 -3 -1 -5v-1v0l-1 -1v-1q0 -6 5 -11q2 -2 4 -3q6 -3 12 -1h1l-1 1q-1 3 -1 5q0 4 4 7v0q3 4 10 6q10 2 18 -3q1 0 2 -1v0h1v-1h1q5 -5 5 -13v-14h-1q-11 2 -21 2q-13 0 -23 -4q-2 0 -3 -1q-18 -9 -18 -31q0 -17 9 -27q11 -11 34 -11
h1v0h1v0q17 1 28 8h1v0q2 -4 6 -5q2 -2 5 -2q7 0 10 3t4 7q1 3 1 6l1 1h-2q-2 0 -4 1t-3 5v0v2v1v48v2v8q0 5 -2 10q-1 5 -2 9l-2 2q-6 14 -22 19zM816 -105v0v-12v-1v-1v0q-1 0 -1 -1q-1 -4 -4 -7v-1v0v0q-6 -6 -17 -6h-3q-1 0 -2 1v0q-7 1 -10 4q-4 3 -4 11q0 10 8 14h1v1
q5 1 10 1h9q6 -1 13 -3v0zM982 -134v0v3l-2 -2q-3 -2 -7 0l-2 2h-1v0v1l-24 33l-11 14l28 26l1 1t2 1l2 1q1 0 3 1q2 0 4 -1l1 -1l1 2q2 5 -1 11q-1 3 -3 5q-6 7 -13 6q-4 -1 -7 -3q-2 -1 -3 -2l-45 -43v83q0 6 -3 10q-5 7 -15 6q-5 0 -9 -3q-5 -3 -7 -9l-1 -2h2q4 0 6 -1
q1 -1 2 -5v-4v-131q0 -3 -2 -4q-2 -2 -6 -2h-2l1 -2q2 -6 6 -9q5 -3 10 -3v0h1q9 0 13 6q3 5 4 11v3v24l13 12l3 -5v0l1 -1l1 -2v0l26 -37q3 -5 6 -7t6 -3q7 -3 15 3q2 1 4 4q4 6 2 13zM1011 -32v0q-5 -4 -7 -11q5 0 7 -1q3 -2 4 -7v-7v-66v-10v-4q0 -7 4 -12t12 -6h3
q6 0 11 3q5 4 7 10q-5 0 -7 2q-3 2 -4 7v0v14v62v7v4q0 7 -4 11q-5 8 -15 7q-6 0 -11 -3zM1037 17v0q-5 4 -12 4q-6 0 -11 -4q-5 -5 -5 -11t5 -10q5 -5 11 -5q7 0 12 5q4 4 4 10t-4 11zM1157 16v0q-85 -5 -85 -83q0 -38 23 -60q22 -23 60 -23h13q5 1 11 2q8 3 13 9t5 13v4
q-1 3 -3 6q-3 2 -7 4q-3 -7 -7 -10q-5 -3 -8 -3l-1 -1q-4 -1 -6 -1h-5q-63 3 -63 60q4 62 61 62q61 -5 61 -61q0 -18 -11 -18q-6 0 -8 5t-3 11v3q-1 16 -9 28t-30 12q-42 -2 -42 -40q5 -44 41 -44q7 0 12 3q4 2 10 9l2 2l2 -2q8 -9 25 -9q36 0 36 42q0 36 -23 58
q-24 22 -64 22zM1171 -82v0q-7 -5 -14 -5q-3 0 -6 1t-6 6q-2 4 -2 13q0 13 5 17q5 3 10 3q9 0 11 -6t2 -12v-3v-2v0v-1v-1q0 -1 1 -3v-4l1 -2zM1330 -30v0q-19 0 -29 -8v23v14q0 2 -1 3q0 7 -3 11q-4 6 -12 7h-4q-5 0 -10 -3q-5 -4 -7 -10q5 0 7 -2q3 -2 4 -6v-14v-101
q2 -39 47 -39q24 0 36 12q12 13 12 31v43q0 17 -10 28q-9 11 -30 11zM1344 -109v0q0 -17 -17 -20q-2 -1 -5 -1q-5 0 -9 1q-6 2 -9 7q-2 2 -3 6v4v47q2 3 10 7q7 3 19 3q14 0 14 -13v-41zM1453 -30v0q-5 2 -12 3h-1h-1h-1h-1h-3q-10 0 -19 -4q-5 -2 -10 -6t-8 -10v0
q-2 -3 -2 -5v-1v0v-1v-1q-1 -6 4 -11q2 -2 4 -3q6 -3 12 -1h1l-1 1q-1 3 -1 5q0 4 4 7v0q3 4 10 6q10 2 18 -3q1 0 2 -1v0v0h1v-1h1q5 -5 5 -13v-14h-1q-10 2 -21 2q-13 0 -23 -4q-2 0 -3 -1q-18 -9 -18 -31q0 -17 10 -27q10 -11 33 -11h1h1v0v0q17 1 29 8v0v0q3 -4 6 -5
q2 -2 6 -2q6 0 9 3t4 7q2 3 2 6v1h-1q-3 0 -5 1t-3 5v0v2v1v48v2v8q0 5 -1 10q-2 5 -3 9l-2 2q-6 14 -22 19zM1455 -105v0v-12v-1v-1v0l-1 -1q-1 -4 -3 -7l-1 -1v0q-6 -6 -16 -6h-3q-2 0 -3 1v0q-7 1 -10 4q-4 3 -4 11q0 10 8 14h1q0 1 1 1q4 1 9 1h9q7 -1 13 -3v0z
M1590 -41v0l-1 1q0 1 -1 1q-1 2 -4 4q-5 4 -12 6t-12 1q-10 0 -20 -4v0q-2 3 -8 4h-5v0h-1v0v0q-2 0 -5 -1q-4 0 -8 -4t-4 -13v-2l2 1q4 0 7 -1q2 -2 3 -4v-2v0v-2v-2v0v-2h1v0v-1v-57v-14q-1 -6 -4 -8q-3 -1 -8 -1q2 -7 8 -11q5 -3 11 -4q11 0 16 8q4 4 4 11v4v12v60v2v3
q3 2 8 3q6 1 11 -1h1q3 -1 5 -5q1 -2 1 -4v-2l2 1q7 1 11 5q1 2 2 5q2 7 0 13zM1724 -134v0v3l-2 -2q-3 -2 -7 0l-2 2h-1v0v1l-24 33l-11 14l28 26l1 1t2 1l2 1q1 0 3 1q2 0 4 -1l1 -1l1 2q2 5 -1 11q-1 3 -3 5q-6 7 -13 6q-4 -1 -7 -3q-2 -1 -3 -2l-45 -43v83q0 6 -3 10
q-5 7 -15 6q-5 0 -9 -3q-5 -3 -7 -9l-1 -2h2q4 0 6 -1q1 -1 2 -5v-4v-131q0 -3 -2 -4q-2 -2 -6 -2h-2l1 -2q2 -6 6 -9q5 -3 10 -3v0h1q9 0 13 6q4 5 4 11v3v24l13 12l3 -5v0l1 -1l1 -2v0l26 -37q3 -5 6 -7t6 -3q8 -3 15 3q2 1 4 4q4 6 2 13zM1793 -141v0q-2 0 -4 1
q-4 1 -5 8q-1 3 -1 7v3v126v3t-2 5q-1 3 -5 6q-4 2 -11 2h-3q-11 -1 -15 -11l-1 -2h2h1q1 0 2 -1h1q1 0 2 -1q3 -3 3 -7v0v-16v-1l-1 -108q0 -18 8 -24q4 -4 11 -4h4q11 2 15 12l1 2h-2zM1878 -30v0q-5 2 -11 3h-2h-1h-1h-1h-2q-11 0 -20 -4q-4 -2 -10 -6q-5 -4 -8 -10v0
q-2 -3 -2 -5v-1v0v-1v-1q0 -6 5 -11q1 -2 4 -3q5 -3 11 -1h1v1q-1 3 -1 5q0 4 3 7v0q4 4 10 6q10 2 19 -3l1 -1h1v0v0v-1h1q5 -5 5 -13v-14h-1q-10 2 -20 2q-14 0 -24 -4q-1 0 -3 -1q-18 -9 -18 -31q0 -17 10 -27q11 -11 33 -11h1h1v0h1q16 1 28 8v0v0q3 -4 6 -5q3 -2 6 -2
q6 0 9 3q4 3 5 7q1 3 1 6v1h-1q-3 0 -4 1q-3 1 -4 5v0v2v1v48v2v8q0 5 -1 10t-3 9l-1 2q-7 14 -23 19zM1881 -105v0l-1 -12v-1v-1v0v-1q-1 -4 -4 -7v-1h-1q-6 -6 -16 -6h-3t-3 1v0q-6 1 -10 4t-4 11q0 10 8 14h1l1 1q4 1 10 1h9q6 -1 12 -3h1zM2039 -136v0v61q0 23 -12 36
q-11 12 -31 12q-15 0 -29 -9q-3 4 -6 6q-4 3 -9 3q-2 -1 -4 -1q-9 -1 -13 -10l-1 -2h2q5 -2 7 -9q0 -1 1 -2v-82q0 -2 -1 -4v0q-1 -4 -3 -6q-1 -2 -3 -2l-2 -1l1 -2q4 -6 12 -7h4v0q10 0 14 5q5 5 5 11v2v70v1v3q13 8 22 8q8 0 13 -5q6 -6 6 -18v-46v-4v-3v-1v-2q0 -2 -1 -3
q-1 -4 -2 -6q-2 -2 -4 -2l-2 -1l1 -2q5 -6 13 -7h3h1q10 0 14 5t4 11v2v0v1zM2123 -30v0q-6 2 -12 3h-1h-2v0h-2h-2q-11 0 -19 -4q-5 -2 -10 -6t-8 -10h-1q-1 -3 -1 -5v-1v0l-1 -1v-1q0 -6 5 -11q2 -2 4 -3q6 -3 12 -1h1l-1 1q-1 3 -1 5q0 4 4 7v0q3 4 10 6q10 2 18 -3
q1 0 2 -1v0v0q1 0 1 -1v0q6 -5 6 -13v-14h-1q-11 2 -21 2q-14 0 -23 -4q-2 0 -3 -1q-18 -9 -18 -31q0 -17 9 -27q11 -11 34 -11h1v0h1v0q17 1 28 8h1v0q2 -4 6 -5q2 -2 5 -2q7 0 10 3t4 7q1 3 1 6l1 1h-2q-2 0 -4 1t-3 5v0v2v1v48v2v8q0 5 -2 10q-1 5 -3 9l-1 2
q-6 14 -22 19zM2125 -105v0v-12v-1v-1v0q-1 0 -1 -1q-1 -4 -4 -7v-1v0v0q-6 -6 -17 -6h-3q-1 0 -2 1h-1q-6 1 -10 4q-3 3 -3 11q0 10 8 14h1v1q4 1 10 1h9q6 -1 13 -3v0zM2202 -154v0q7 0 12 5q6 5 6 11q0 7 -6 11q-5 5 -12 5t-12 -5q-5 -4 -5 -11q0 -6 5 -11t12 -5z
M2328 -121v0q-4 3 -9 3h-2h-1v-1v-4q-1 -4 -4 -6v0q0 -1 -1 -1v0q-4 -2 -10 -3h-2h-1h-1q-23 2 -23 24v35q-2 24 23 24h1q0 -1 1 -1h2q6 0 10 -2v-1h1v0q3 -2 4 -6v-4v-1h1h2q5 0 9 3q2 1 3 3q4 6 2 12v0v0v1v0q0 1 -1 1q0 2 -2 5v0q-7 7 -16 10q-3 1 -5 1q-5 1 -10 1h-4
q-25 0 -36 -13q-12 -13 -12 -33v-35q0 -19 12 -33q11 -13 36 -13h2h1h1q5 -1 10 0q2 1 5 2h1v0q8 3 15 10v0q2 2 2 5h1v1v0v1q2 6 -2 12q-1 2 -3 3zM2297 -28v0h-1h1zM2354 -72v0v-39q0 -19 13 -32t37 -13t37 13q12 13 12 32v39q0 19 -12 32q-13 12 -37 12t-37 -12
q-13 -13 -13 -32zM2427 -73v0v-36q0 -20 -23 -22q-23 0 -23 22v36q0 19 23 21q23 0 23 -21zM2647 -136v0v61q0 24 -13 37q-11 11 -30 11q-15 0 -30 -8q-2 -2 -4 -3q-1 -1 -2 -1l-1 -1v0v0l-1 1l-1 1q-11 11 -30 11q-15 0 -30 -8q-2 3 -6 5q-3 3 -8 3q-2 0 -4 -1
q-9 -1 -13 -10l-1 -1l1 -1q5 -2 8 -8v-3v-82v-4v0q-1 -4 -3 -6l-4 -2l-2 -1l1 -1q5 -7 13 -8h4v0q10 0 14 5t4 12v1v70v1v3q13 8 22 8t14 -5q6 -6 6 -18v-46v-4v-2v-2v-2q-1 -2 -1 -3q-1 -4 -3 -6q-2 -1 -3 -2l-3 -1l2 -1q4 -7 12 -8h4v0q10 0 14 5q5 5 5 11v2v1v0v54v15v1
v3q13 8 22 8q8 0 13 -5q6 -6 6 -18v-46v-4v-2v-2v-2v-3q-1 -4 -3 -6l-4 -2l-2 -1l1 -1q5 -7 13 -8h4v0q10 0 14 5t5 11v2v1v0zM338 1403v0h-106q-24 0 -41 -16q-18 -15 -18 -36v-527q0 -22 18 -37q17 -16 41 -16h106q117 0 175 41q57 42 76 98t19 100v162q0 43 -19 97
t-76 94q-58 40 -175 40zM506 1010v0q-5 -149 -152 -149h-64q-6 0 -10 4q-5 4 -5 11v423q0 6 5 10q4 5 10 5h64q152 -7 152 -142v-162zM967 925v0q-22 11 -51 -3l-6 -2l4 -6q9 -12 6 -22q-6 -20 -42 -30q-42 -9 -74 7q-11 5 -21 18q-9 12 -9 35v38q38 -6 75 -6q159 0 159 132
q0 65 -37 103q-42 41 -120 41q-158 0 -173 -151v-153q0 -6 1 -23q1 -16 5 -30q35 -91 146 -101h24q39 0 71 13q25 12 47 33q21 21 26 46q1 2 1 6q2 25 -17 44q-7 7 -15 11zM774 1044v0v41q3 66 75 66q33 0 49 -16q16 -15 16 -47q5 -51 -65 -51q-11 0 -32 1q-22 2 -43 6z
M1179 1106v0q0 19 11 28t26 11q14 3 25 3q16 0 28 -3q16 -4 26 -13l1 -1q9 -8 10 -22q1 -7 -1 -13l-2 -5l5 -2q21 -5 38 5q8 4 14 10q15 17 14 39l-1 5q0 2 -1 3q-1 6 -4 13q0 1 -1 2v1l-2 2q-11 19 -29 32t-34 19q-21 7 -45 9h-4h-12q-155 -13 -155 -132q0 -68 40 -94
q40 -27 86 -39q27 -9 47 -19q21 -10 28 -28q4 -7 4 -15q0 -45 -65 -51q-25 -2 -47 6q-12 4 -20 11l-1 1q-10 7 -11 22q0 6 2 12l2 6l-5 1q-21 6 -38 -4q-8 -4 -14 -10q-15 -18 -14 -39l1 -6v-1q0 -1 1 -2v-2l1 -1v-1q1 -4 3 -9l1 -1q1 -2 2 -3q11 -19 29 -32t34 -19
q10 -4 21 -6h1q1 0 2 -1h3h2q19 -2 35 -2h1h7q156 0 160 132v0v1q0 68 -40 95t-86 41q-32 11 -56 25q-23 13 -23 41zM1481 1212v0q-19 -12 -27 -37q19 0 29 -6q9 -6 11 -25v-24v-236v-38q0 -7 1 -14q2 -23 14 -41q15 -20 42 -23q7 -1 14 -1q20 0 38 13q19 12 27 37
q-18 -1 -28 5t-12 24v1v51v222v25q0 7 -1 14q-1 24 -13 41q-19 26 -56 25q-21 -1 -39 -13zM1573 1387v0q-17 16 -41 16q-23 0 -40 -16q-17 -15 -17 -37q0 -21 17 -37t40 -16q24 0 41 16q16 16 16 37q0 22 -16 37zM2073 1196v0q-6 6 -13 11q-21 12 -42 6q-1 0 -3 -1l-3 -1v0
h-1q-1 -1 -2 -1q-8 -3 -16 -10l-1 -1q-5 -5 -10 -11q-1 1 -5 3q-3 2 -7 4q-3 1 -4 2q-47 24 -103 24q-77 0 -117 -44q-40 -45 -40 -111q0 -72 49 -117q-28 -37 -28 -65q0 -13 5 -32q4 -18 16 -35q-49 -40 -49 -95q0 -62 49 -97q48 -35 125 -35q183 11 183 140q0 64 -51 95
q-52 30 -128 30h-35q-11 0 -23 6q-12 7 -12 26q0 12 8 29q27 -7 56 -7q83 0 124 43q42 43 42 108v49q0 18 6 26l1 1q7 13 22 17q8 2 15 1l4 -1v4v6q-1 19 -12 33zM1812 781v0q6 -1 13 -1q17 -2 36 -2h17q88 2 88 -50q-11 -61 -92 -61q-84 4 -84 64q0 30 22 50zM1946 1085v0
v-27q2 -74 -73 -74q-77 7 -77 80q0 82 79 82q38 0 72 -20q-1 -21 -1 -41zM2531 840v0l1 219q0 84 -46 130q-40 40 -109 40q-54 0 -106 -29q-9 12 -22 21q-12 8 -30 8h-14q-32 -5 -47 -37l-2 -6l5 -2q18 -7 25 -30q2 -6 2 -10v-293q1 -7 -1 -14l-1 -2q-2 -14 -9 -20t-14 -8
l-7 -2l4 -7q17 -22 45 -26h14h1q35 0 50 18t16 41v6v250v4v11q46 29 79 29q30 0 47 -17q22 -22 22 -67v-164v-14v-10v-5q0 -3 -1 -6q0 -7 -2 -13q-3 -14 -10 -20q-6 -6 -13 -8l-7 -2l4 -7q17 -22 45 -26q7 -1 14 -1h1q35 0 50 18q16 19 16 41v8v0v2z" />
    <glyph glyph-name=".null" horiz-adv-x="2162" 
d="M1024 1098v0q-59 86 -135.5 153.5t-201.5 71.5q-13 0 -28 -1q61 119 134 200.5t169 84.5q115 -6 187.5 -117.5t131.5 -258.5l21 -50q-2 -5 -2 -6l-30 -60v-1q-45 -105 -107 -171q-77 63 -139 155zM1338 1190v0q34 65 80.5 108.5t113.5 45.5q78 -3 129 -65t96 -149l8 -14
q1 -3 3 -5q1 -2 2 -3q-9 0 -18 1h-1q-66 0 -114 -35t-91 -79q-29 -29 -58 -53l-1 -1q-2 -1 -3 -2t-2 -1q-41 42 -77.5 112t-66.5 140zM2072 822v0q8 -3 9 -8t-2 -9t-7 -4h-682v0h-1h-318q-6 0 -9.5 -4t-3.5 -9q0 -6 3.5 -9.5t9.5 -3.5h272q-43 -47 -79 -122
q-28 -58 -61 -102t-77 -46q-44 1 -78 29t-64 65t-63.5 65t-77.5 30v0q-72 -3 -113.5 -56.5t-72.5 -124.5q-30 -70 -71.5 -124t-113.5 -57q-72 4 -117 73.5t-81 160.5q-49 137 -124 209h95h122h7h2v0q34 4 61 26v1h1q61 58 107 155q33 65 70 115.5t85 53.5v0q50 0 87 -37.5
t72 -86.5q36 -52 78.5 -93.5t101.5 -41.5v0q73 0 133 49v0q1 0 2 1q0 1 1 1q71 72 118 185l23 46q1 2 2 5q2 3 4 7q59 -144 139 -239q-3 -2 -5 -3q-14 -9 -30 -17q-41 -19 -83 -19q-69 1 -125 27q-5 2 -10 0t-8 -6v-1v0q-2 -5 0 -10t7 -7q62 -29 136 -29v0q49 0 94 21
q38 18 66 43l1 1q32 26 61 55q38 39 78.5 68.5t91.5 35.5q8 1 16 1h1v0h3h2h1q5 0 10 -1q8 0 15 -2h1v0h1h1v0v0q17 -4 32 -10q74 -40 131 -126q54 -80 123 -121zM662 775v0q6 0 9.5 3.5t3.5 9.5q0 5 -3.5 9t-9.5 4h-161q-6 0 -10 -4t-4 -9q0 -6 4 -9.5t10 -3.5h161z
M740 775v0q5 0 9 3.5t4 9.5q0 5 -4 9t-9 4h-30q-5 0 -9 -4t-4 -9q0 -6 4 -9.5t9 -3.5h30zM930 775v0q5 0 9 3.5t4 9.5q0 5 -4 9t-9 4h-71q-5 0 -9 -4t-4 -9q0 -6 4 -9.5t9 -3.5h71zM1022 775v0q5 0 9 3.5t4 9.5q0 5 -4 9t-9 4h-34q-6 0 -9.5 -4t-3.5 -9q0 -6 3.5 -9.5
t9.5 -3.5h34zM246 801v0v0h-1h-150v0h-3v0v0v1q-9 4 -10.5 11t1.5 12.5t7 7.5q95 38 161 105t119 142q57 78 120 138.5t153 75.5v0h1v0h1q22 3 42 3v0v0q14 0 28 -1l1 -1v0q101 -12 166 -72.5t121 -140.5q60 -89 139 -156q-47 -33 -103 -33v0q-50 0 -87 37.5t-72 86.5
q-36 52 -78.5 93.5t-101.5 41.5v0q-59 -3 -101 -57.5t-77 -124.5q-31 -63 -66.5 -112.5t-81.5 -55.5v0h-122h-1q-2 0 -4 -1v0h-1zM1372 1458v0q-39 0 -67 28t-28 67q0 40 28 67.5t67 27.5q40 0 68 -27.5t28 -67.5q0 -39 -28 -67t-68 -28zM1174 933v0l-2 2v0h1q0 -1 1 -1v0
v-1zM284 106v0q-5 4 -12 4h-2l-1 -1v-1q1 -3 0 -5q-1 -5 -5 -8v0h-1v0q-5 -3 -13 -4h-2h-2h-1q-29 2 -29 30v44q-2 29 29 29h1h2h2q8 0 13 -3v-1h1v0q4 -3 5 -8q1 -2 0 -5v-1h1h2q7 0 12 3q2 2 4 5q5 7 3 15v0v0v0l-1 1v1q-1 3 -4 6v0q-8 9 -19 13q-4 1 -7 2q-6 1 -13 1h-4
q-31 0 -46 -17q-14 -17 -14 -41v-44q0 -24 14 -41q15 -17 45 -17h4v0h1q7 -1 13 1q3 0 7 1v1v0h1q10 4 18 12v0q3 3 4 6v1l1 1v0v1q2 8 -3 14q-2 3 -4 5zM246 223v0h-2h2zM317 167v0v-49q0 -23 16 -39q16 -17 46 -17q31 0 46 17q16 16 16 39v49q0 24 -16 40q-15 16 -46 16
q-30 0 -46 -16t-16 -40zM408 165v0v-45q0 -25 -29 -27q-29 0 -29 27v45q0 25 29 27q29 0 29 -27zM581 206v0q-14 14 -36 14q-19 0 -40 -12v0v1v0q-1 0 -1 1t-1 1v0q-3 4 -9 6q-7 1 -14 -1q-4 -1 -9 -6t-5 -15v-2h2q5 1 8 -1q2 -1 3 -3q1 -1 1 -2v-2v0v-2v-2v-3v-156
q0 -2 1 -7q0 -6 5 -11q8 -7 21 -5q13 1 19 14l1 2h-3q-4 0 -7 3q-3 2 -4 9v43q14 -6 30 -6q53 0 53 62v36q0 29 -15 44zM564 125v0q3 -30 -25 -30q-5 0 -13 2q-8 3 -13 6v48v29q16 7 27 7q13 0 18 -5q6 -6 6 -20v-37zM757 206v0q-2 5 -6 9q-2 1 -4 3h-1v0l-4 2h-1h-1
q-6 2 -13 0t-12 -9q10 -3 10 -11v-1v-1v0v-1q-6 -19 -11 -32q-4 -14 -9 -28l-7 -22l-12 35l-18 51v0v0l-2 4v1v0v0v1v0h-1v1q-3 6 -7 9t-9 4h-1h-1q-2 0 -5 -1v0h-1q-2 0 -4 -1h-1v0q-6 -3 -11 -9q-4 -5 -4 -14q10 4 15 -2v-1v0v-1h1l45 -122q-11 -38 -33 -38q-3 0 -6 2
t-4 7l-1 1h-1q-9 -5 -11 -11q-2 -7 -1 -11q0 -4 1 -7q5 -7 11 -10q6 -2 10 -3h4v0q4 0 7 1v0h1h3q25 5 38 27q12 23 22 56l32 96h-1l3 7v0v0q0 2 1 4v2v0v0v1q2 6 0 12zM884 206v0l-1 2l-1 1q-1 2 -5 5q-7 5 -15 7q-9 2 -15 2q-12 0 -25 -6v0q-3 4 -10 5q-3 1 -7 1v0v0v0h-1
q-3 0 -6 -1q-5 -1 -10 -6t-5 -16v-2h2q6 1 9 -1t4 -5v-2v0v-3q1 -1 1 -2v0v-3v0v0v-1v-71v-19q-1 -6 -5 -8q-3 -3 -10 -3q3 -8 10 -13q7 -4 14 -5q13 0 20 9q4 7 5 15v5v15v75v3v4q4 2 10 3q8 2 14 -1h1q4 -1 7 -6q1 -3 1 -5v-2h2q8 1 13 7l4 6q3 8 -1 16zM921 217v0
q-6 -4 -9 -13q7 0 10 -2t4 -9v-8v-83v-13v-5q1 -8 5 -14q5 -7 15 -8q2 -1 5 -1q7 1 13 5q7 4 9 13q-6 0 -9 2q-4 2 -4 8v0v18v78v9q0 2 -1 5q0 8 -4 14q-7 9 -20 9q-7 -1 -14 -5zM953 278v0q-5 6 -14 6q-8 0 -14 -6q-6 -5 -6 -13q0 -7 6 -13q6 -5 14 -5q9 0 14 5q6 6 6 13
q0 8 -6 13zM1128 211v0q-2 3 -4 4q-8 5 -15 2h-1h-1v0v0q-1 0 -1 -1q-3 -1 -6 -3v0q-2 -2 -3 -4q-1 0 -2 1q-1 0 -3 1l-1 1q-16 8 -36 8q-27 0 -41 -15q-14 -16 -14 -39q0 -25 17 -41q-10 -13 -10 -22q0 -5 2 -12q2 -6 6 -12q-17 -14 -17 -33q0 -22 17 -34t43 -12
q64 3 64 48q0 23 -18 34q-18 10 -44 10h-12q-4 0 -8 3q-4 2 -4 8q0 5 2 11q10 -3 20 -3q29 0 43 15q15 15 15 38v17q0 6 2 9v1q2 4 8 6h5h1l1 1v2q-1 7 -5 11zM1037 66v0h5q6 -1 12 -1h6q31 1 31 -17q-4 -21 -32 -21q-30 1 -30 22q0 10 8 17zM1084 173v0v-10q1 -26 -26 -26
q-26 3 -26 28q0 29 27 29q13 0 25 -7v-14zM1286 169v0q0 22 -13 36q-12 14 -38 14q-18 0 -33 -10v31v17v0v0v4q-1 8 -5 14q-5 7 -14 8h-4q-7 0 -13 -4t-9 -12q6 0 9 -2q4 -2 4 -8v-17v-133v-17q0 -6 -4 -8q-3 -2 -9 -2q3 -8 9 -12t13 -4h4t4 1q6 2 10 7q4 6 5 14v4v0v0v17
v72q15 13 30 13q22 -1 22 -22v-62v-17v-1v0q-1 -6 -4 -8q-4 -2 -10 -2q3 -8 9 -12t13 -4h5q2 0 3 1q7 2 11 7q4 6 4 14q1 2 1 4v0v0v17v2v60zM1390 105v0q-1 1 -3 1q0 -8 -5 -10q-5 -3 -12 -2q-11 2 -13 11q-2 8 -1 18v7v49h9v0v0h4q7 1 12 4q7 5 8 13v4q0 7 -4 12
q-4 6 -11 8q0 -5 -2 -8t-7 -4v0h-1h-8v3v7v4v14v0v0v5q0 8 -5 14q-5 7 -14 8h-5q-7 0 -13 -4t-9 -13q6 0 10 -2q3 -2 4 -8v-14v-96q-1 -34 10 -49q11 -14 45 -14q14 1 20 9t4 18t-13 15zM1636 110v0q0 -12 -14 -15h-67l3 5q18 22 40 41l27 24q9 9 16 22q8 14 8 35
q-7 61 -70 61q-9 0 -19 -2q-10 -1 -19 -4q-7 -2 -12 -4q-12 -6 -16 -13t-2 -14v-2q1 -3 2 -5q2 -6 8 -11q5 -5 14 -5q-2 5 0 10q1 5 7 8l2 1q4 2 7 4q6 2 13 4q7 1 14 1h1q33 -3 33 -32q0 -16 -12 -28q-11 -13 -24 -24q-4 -3 -8 -7l-2 -2q-35 -27 -56 -65q-1 -3 -1 -7
q-1 -3 -1 -6q0 -8 6 -13q5 -5 13 -5h73q24 1 26 1q9 0 15 5q7 4 9 13v2v5q0 6 -4 12q-3 7 -10 10zM1745 284v0q-70 -4 -70 -71v-85q6 -65 70 -65q70 6 70 65v85q-3 71 -70 71zM1777 128v0q-2 -33 -32 -33q-32 2 -32 33v87q1 37 32 37q32 -1 32 -37v-87zM1933 80v0
q-13 0 -16 14v1v170q0 8 -6 13t-15 5q-5 0 -10 -3q-6 -3 -13 -7t-13 -8q-6 -3 -7 -4q-7 -5 -10 -12q-4 -7 0 -16v-1q1 -3 3 -5q2 -3 5 -6q3 -2 7 -4q5 -2 12 -2q-7 11 4 20l5 3v-6v-58v-57v-27q1 -10 6 -17t15 -9h1v0l1 -1h6q7 0 14 4t11 13zM2019 79v0q1 2 4 9q4 8 8 17
l2 5l63 147q1 2 1 4q1 2 1 4q0 7 -6 13q-6 5 -14 5h-39h-38h-18q-9 -1 -16 -6q-7 -4 -8 -14l-1 -1v-6q0 -6 4 -13q4 -6 11 -10q0 13 15 15v0h65l-66 -151q-5 -6 -10 -8q-5 -1 -10 1q0 -9 5 -15q5 -7 11 -10q2 -1 5 -2h1h1q4 -1 8 0q5 0 10 3q7 4 11 12v1zM226 -151v0
q-24 0 -37 -10v29v17v5q-1 8 -5 14q-5 7 -14 8h-5q-7 0 -13 -4t-9 -13q6 0 10 -2q3 -2 4 -8v-17v-127q2 -49 59 -49q30 0 45 16t15 39v53q0 21 -12 35q-11 14 -38 14zM243 -250v0q0 -21 -20 -26h-7q-6 0 -11 2q-8 2 -12 7q-2 4 -3 8q-1 2 -1 5v60q3 3 13 7q10 5 24 5
q17 0 17 -17v-51zM436 -165v0q-2 5 -6 9q-2 2 -4 3v0h-1l-4 2h-1h-1q-6 2 -13 0t-12 -9q10 -3 10 -11v-1v0v-1v-1q-6 -19 -11 -32l-8 -27l-8 -23l-12 35l-18 51v0v1q-1 2 -1 4v0h-1v0v1v0v1h-1q-3 6 -7 9t-9 4h-1h-1h-5v0v0q-3 -1 -5 -2h-1v0q-6 -3 -11 -8q-4 -6 -4 -14
q10 3 15 -3v-1v0l1 -1v0l45 -122q-11 -38 -33 -37q-3 -1 -6 1t-4 7v2l-2 -1q-9 -4 -11 -11t-1 -11q0 -4 2 -7q4 -7 10 -9q6 -3 10 -3h4v0h7h1v0l3 1q25 4 38 27q13 22 22 56l32 96v-1l2 7v0v0q1 2 1 4v2v0v1h1q1 6 -1 12zM710 -272v0l-2 6l-59 161q-3 8 -8 13t-15 5t-14 -5
q-5 -5 -8 -13l-59 -162l-2 -6q-2 -9 0 -17q3 -10 14 -14q2 -2 5 -2h1l1 -1h7q3 0 8 1t11 5q-14 7 -11 22l1 1l6 18h80v-1l7 -18q3 -15 -11 -22q5 -4 11 -5q5 -1 8 -1h8q1 1 4 2q2 0 3 1q11 4 14 14q3 8 0 18zM596 -230v0l1 1l30 88l29 -89h-60zM870 -281v0h-2q-6 -1 -9 1
q-1 1 -2 3t-2 3v1v1v2v2v156v8q-1 5 -6 11q-7 7 -21 5q-13 -1 -19 -14l-1 -2h2q5 0 8 -3t4 -10v-38q-15 5 -31 5q-54 1 -54 -62v-37q0 -29 16 -45q14 -14 36 -14q19 0 41 12v0v-1q1 0 1 -1l1 -1v-1q3 -3 10 -5q6 -1 13 1q5 1 10 6q4 5 5 16v1zM822 -238v0v-29q-16 -8 -27 -8
q-14 0 -19 6q-6 6 -6 20v37q0 17 5 24q6 6 20 6q5 0 13 -2t14 -6v0v-48zM1022 -202v0q0 22 -12 36t-38 14q-19 0 -33 -10v31v17v0v0v5q-1 8 -5 13q-5 7 -14 8q-2 1 -4 1q-7 -1 -13 -5t-9 -12q6 0 9 -2t4 -8v-17v-132v-17q-1 -6 -4 -9q-3 -2 -9 -2q3 -8 9 -12t13 -4h4t4 1
q6 2 10 7q4 6 5 14v4v0v0v18v71q14 13 30 13q21 0 21 -22v-62v-17v0v-1q0 -5 -4 -8q-3 -2 -9 -1q3 -9 9 -13t13 -4h5q1 0 3 1q7 2 11 7q4 6 4 14v4v0v1v16v3v59zM1127 -151v0q-7 3 -15 4h-1h-2h-1h-2h-2q-14 0 -25 -5q-5 -3 -12 -8t-11 -12v-1l-2 -6v-1v0v-1v-1q0 -8 6 -14
q2 -3 5 -4q7 -3 14 -1l1 1v1q-1 2 -1 5q0 6 4 9v1q5 4 13 6q12 3 23 -3q1 0 2 -1v0l1 -1v0v0l1 -1q7 -6 7 -16v-17h-2q-13 2 -26 2q-17 0 -29 -4l-4 -2q-22 -11 -22 -39q0 -22 12 -34q13 -13 41 -14h2h1v0h1q21 1 35 10v0v0q4 -4 8 -6q3 -2 7 -2q8 0 12 4q4 3 5 8q2 4 2 7v2
h-1q-3 -1 -6 1t-4 6v0v3v2v60v1v11q0 6 -2 12q-1 7 -3 11l-2 3q-8 18 -28 24zM1130 -244v0v-16v-2q-1 0 -1 -1v0v-1q-2 -5 -5 -9v0l-1 -1q-7 -7 -20 -7h-4t-3 1h-1q-8 1 -12 5q-5 4 -5 14q0 12 10 17q1 1 2 1v0q5 2 12 2q4 0 12 -1q7 -1 16 -2v0zM1445 -272v0l-2 6l-58 161
q-4 8 -8 13q-5 5 -15 5t-15 -5t-8 -13l-59 -162l-2 -6q-2 -9 0 -17q3 -10 14 -14q3 -2 5 -2h1l1 -1h7q3 0 8 1q6 1 11 5q-14 7 -10 22v1l6 18h80v-1l7 -18q3 -15 -11 -22q6 -4 11 -5t8 -1h8q1 1 4 2q2 0 3 1q11 4 14 14q3 8 0 18zM1332 -230v0v1l30 88l29 -89h-59z
M1575 -263v0q0 -6 -2 -9q-2 -4 -8 -4h-47l72 101q3 6 3 11q0 7 -5 12q-5 4 -12 4h-74v0v0h-5q-8 -1 -13 -5q-7 -4 -8 -13v0v-1q-1 -2 -1 -4v-1q0 -6 4 -13q5 -6 13 -8q0 6 2 9t8 4l45 -1l-72 -101q-3 -5 -3 -10q0 -7 6 -12q5 -4 12 -4h75v0v0h4q8 0 14 4q7 5 8 15v4v0
q0 7 -4 13t-12 9zM1721 -263v0q0 -6 -2 -9q-2 -4 -8 -4h-47l72 101q3 6 3 11q0 7 -5 12q-5 4 -12 4h-74v0v0h-5q-8 -1 -14 -5t-7 -13h-1v-1v-4v-1q0 -6 4 -13q4 -6 13 -8q0 6 2 9t8 4l45 -1l-72 -101q-3 -5 -3 -10q0 -7 5 -12q6 -4 13 -4h75v0v0h4q8 0 14 4q7 5 8 15v4v0
q0 7 -4 13t-12 9zM1844 -151v0q-7 3 -14 4h-2h-2h-1h-1h-3q-14 0 -24 -5q-6 -3 -13 -8q-6 -5 -10 -12l-1 -1l-2 -6v-1v0v-1v-1q0 -8 6 -14q2 -3 5 -4q7 -3 14 -1l2 1l-1 1q-1 2 -1 5q0 6 4 9v1q5 4 13 6q12 3 23 -3q1 0 2 -1v0q1 0 1 -1v0v0l1 -1q7 -6 7 -16v-17h-2
q-13 2 -26 2q-17 0 -28 -4q-3 -1 -4 -2q-23 -11 -23 -39q0 -22 12 -34q13 -13 41 -14h2h1v0h1q21 1 35 10v0h1q3 -4 7 -6q3 -2 7 -2q8 0 12 4q4 3 6 8q1 4 1 7v2h-1q-3 -1 -6 1t-4 6v0v3v2v60v1v11q0 6 -1 12q-2 7 -4 11l-2 3q-8 18 -28 24zM1847 -244v0v-16v-2l-1 -1v0v-1
q-1 -5 -5 -9v0q0 -1 -1 -1q-7 -7 -20 -7h-4t-3 1h-1q-8 1 -12 5q-5 4 -5 14q0 12 10 17q1 1 2 1v0q5 2 13 2q3 0 11 -1l16 -2v0zM2055 -281v0l-1 3l-2 -2q-4 -2 -9 0l-2 2l-1 1v0v0l-30 42l-13 18l34 32q0 1 1 2q1 0 3 1l2 1t4 1t5 -1l2 -1v2q3 7 0 14l-4 6q-7 9 -17 7
q-5 0 -9 -3q-2 -1 -3 -2l-56 -55l-1 105q0 7 -4 13q-6 8 -18 8q-6 -1 -12 -5q-6 -3 -9 -11v-3h2q5 0 7 -1q2 -2 3 -6v-5v-164q-1 -4 -3 -6t-7 -2h-2v-2q3 -8 9 -12t12 -4v0h1q11 0 17 8q4 6 4 13q1 2 1 4v30l16 15l4 -6v0l1 -1l1 -2v0l33 -47q4 -6 7 -8q4 -4 7 -5
q10 -3 19 4q3 2 5 5q5 8 3 17zM2091 -154v0q-6 -4 -9 -13q6 0 10 -2q3 -2 4 -8v-9v-82v-14v-4q1 -9 5 -15q5 -7 15 -8h4q8 0 14 4t9 13q-6 0 -10 2q-3 2 -4 8v1v18v77v9v5q-1 8 -5 14q-6 9 -19 9q-7 0 -14 -5zM2123 -92v0q-6 5 -14 5t-14 -5q-6 -6 -6 -13q0 -8 6 -13
q6 -6 14 -6t14 6q6 5 6 13q0 7 -6 13z" />
    <glyph glyph-name=".null" horiz-adv-x="2162" 
d="M1024 1098v0q-59 86 -135.5 153.5t-201.5 71.5q-13 0 -28 -1q61 119 134 200.5t169 84.5q115 -6 187.5 -117.5t131.5 -258.5l21 -50q-2 -5 -2 -6l-30 -60v-1q-45 -105 -107 -171q-77 63 -139 155zM1338 1190v0q34 65 80.5 108.5t113.5 45.5q78 -3 129 -65t96 -149l8 -14
q1 -3 3 -5q1 -2 2 -3q-9 0 -18 1h-1q-66 0 -114 -35t-91 -79q-29 -29 -58 -53l-1 -1q-2 -1 -3 -2t-2 -1q-41 42 -77.5 112t-66.5 140zM2072 822v0q8 -3 9 -8t-2 -9t-7 -4h-682v0h-1h-318q-6 0 -9.5 -4t-3.5 -9q0 -6 3.5 -9.5t9.5 -3.5h272q-43 -47 -79 -122
q-28 -58 -61 -102t-77 -46q-44 1 -78 29t-64 65t-63.5 65t-77.5 30v0q-72 -3 -113.5 -56.5t-72.5 -124.5q-30 -70 -71.5 -124t-113.5 -57q-72 4 -117 73.5t-81 160.5q-49 137 -124 209h95h122h7h2v0q34 4 61 26v1h1q61 58 107 155q33 65 70 115.5t85 53.5v0q50 0 87 -37.5
t72 -86.5q36 -52 78.5 -93.5t101.5 -41.5v0q73 0 133 49v0q1 0 2 1q0 1 1 1q71 72 118 185l23 46q1 2 2 5q2 3 4 7q59 -144 139 -239q-3 -2 -5 -3q-14 -9 -30 -17q-41 -19 -83 -19q-69 1 -125 27q-5 2 -10 0t-8 -6v-1v0q-2 -5 0 -10t7 -7q62 -29 136 -29v0q49 0 94 21
q38 18 66 43l1 1q32 26 61 55q38 39 78.5 68.5t91.5 35.5q8 1 16 1h1v0h3h2h1q5 0 10 -1q8 0 15 -2h1v0h1h1v0v0q17 -4 32 -10q74 -40 131 -126q54 -80 123 -121zM662 775v0q6 0 9.5 3.5t3.5 9.5q0 5 -3.5 9t-9.5 4h-161q-6 0 -10 -4t-4 -9q0 -6 4 -9.5t10 -3.5h161z
M740 775v0q5 0 9 3.5t4 9.5q0 5 -4 9t-9 4h-30q-5 0 -9 -4t-4 -9q0 -6 4 -9.5t9 -3.5h30zM930 775v0q5 0 9 3.5t4 9.5q0 5 -4 9t-9 4h-71q-5 0 -9 -4t-4 -9q0 -6 4 -9.5t9 -3.5h71zM1022 775v0q5 0 9 3.5t4 9.5q0 5 -4 9t-9 4h-34q-6 0 -9.5 -4t-3.5 -9q0 -6 3.5 -9.5
t9.5 -3.5h34zM246 801v0v0h-1h-150v0h-3v0v0v1q-9 4 -10.5 11t1.5 12.5t7 7.5q95 38 161 105t119 142q57 78 120 138.5t153 75.5v0h1v0h1q22 3 42 3v0v0q14 0 28 -1l1 -1v0q101 -12 166 -72.5t121 -140.5q60 -89 139 -156q-47 -33 -103 -33v0q-50 0 -87 37.5t-72 86.5
q-36 52 -78.5 93.5t-101.5 41.5v0q-59 -3 -101 -57.5t-77 -124.5q-31 -63 -66.5 -112.5t-81.5 -55.5v0h-122h-1q-2 0 -4 -1v0h-1zM1372 1458v0q-39 0 -67 28t-28 67q0 40 28 67.5t67 27.5q40 0 68 -27.5t28 -67.5q0 -39 -28 -67t-68 -28zM1174 933v0l-2 2v0h1q0 -1 1 -1v0
v-1zM284 106v0q-5 4 -12 4h-2l-1 -1v-1q1 -3 0 -5q-1 -5 -5 -8v0h-1v0q-5 -3 -13 -4h-2h-2h-1q-29 2 -29 30v44q-2 29 29 29h1h2h2q8 0 13 -3v-1h1v0q4 -3 5 -8q1 -2 0 -5v-1h1h2q7 0 12 3q2 2 4 5q5 7 3 15v0v0v0l-1 1v1q-1 3 -4 6v0q-8 9 -19 13q-4 1 -7 2q-6 1 -13 1h-4
q-31 0 -46 -17q-14 -17 -14 -41v-44q0 -24 14 -41q15 -17 45 -17h4v0h1q7 -1 13 1q3 0 7 1v1v0h1q10 4 18 12v0q3 3 4 6v1l1 1v0v1q2 8 -3 14q-2 3 -4 5zM246 223v0h-2h2zM317 167v0v-49q0 -23 16 -39q16 -17 46 -17q31 0 46 17q16 16 16 39v49q0 24 -16 40q-15 16 -46 16
q-30 0 -46 -16t-16 -40zM408 165v0v-45q0 -25 -29 -27q-29 0 -29 27v45q0 25 29 27q29 0 29 -27zM581 206v0q-14 14 -36 14q-19 0 -40 -12v0v1v0q-1 0 -1 1t-1 1v0q-3 4 -9 6q-7 1 -14 -1q-4 -1 -9 -6t-5 -15v-2h2q5 1 8 -1q2 -1 3 -3q1 -1 1 -2v-2v0v-2v-2v-3v-156
q0 -2 1 -7q0 -6 5 -11q8 -7 21 -5q13 1 19 14l1 2h-3q-4 0 -7 3q-3 2 -4 9v43q14 -6 30 -6q53 0 53 62v36q0 29 -15 44zM564 125v0q3 -30 -25 -30q-5 0 -13 2q-8 3 -13 6v48v29q16 7 27 7q13 0 18 -5q6 -6 6 -20v-37zM757 206v0q-2 5 -6 9q-2 1 -4 3h-1v0l-4 2h-1h-1
q-6 2 -13 0t-12 -9q10 -3 10 -11v-1v-1v0v-1q-6 -19 -11 -32q-4 -14 -9 -28l-7 -22l-12 35l-18 51v0v0l-2 4v1v0v0v1v0h-1v1q-3 6 -7 9t-9 4h-1h-1q-2 0 -5 -1v0h-1q-2 0 -4 -1h-1v0q-6 -3 -11 -9q-4 -5 -4 -14q10 4 15 -2v-1v0v-1h1l45 -122q-11 -38 -33 -38q-3 0 -6 2
t-4 7l-1 1h-1q-9 -5 -11 -11q-2 -7 -1 -11q0 -4 1 -7q5 -7 11 -10q6 -2 10 -3h4v0q4 0 7 1v0h1h3q25 5 38 27q12 23 22 56l32 96h-1l3 7v0v0q0 2 1 4v2v0v0v1q2 6 0 12zM884 206v0l-1 2l-1 1q-1 2 -5 5q-7 5 -15 7q-9 2 -15 2q-12 0 -25 -6v0q-3 4 -10 5q-3 1 -7 1v0v0v0h-1
q-3 0 -6 -1q-5 -1 -10 -6t-5 -16v-2h2q6 1 9 -1t4 -5v-2v0v-3q1 -1 1 -2v0v-3v0v0v-1v-71v-19q-1 -6 -5 -8q-3 -3 -10 -3q3 -8 10 -13q7 -4 14 -5q13 0 20 9q4 7 5 15v5v15v75v3v4q4 2 10 3q8 2 14 -1h1q4 -1 7 -6q1 -3 1 -5v-2h2q8 1 13 7l4 6q3 8 -1 16zM921 217v0
q-6 -4 -9 -13q7 0 10 -2t4 -9v-8v-83v-13v-5q1 -8 5 -14q5 -7 15 -8q2 -1 5 -1q7 1 13 5q7 4 9 13q-6 0 -9 2q-4 2 -4 8v0v18v78v9q0 2 -1 5q0 8 -4 14q-7 9 -20 9q-7 -1 -14 -5zM953 278v0q-5 6 -14 6q-8 0 -14 -6q-6 -5 -6 -13q0 -7 6 -13q6 -5 14 -5q9 0 14 5q6 6 6 13
q0 8 -6 13zM1128 211v0q-2 3 -4 4q-8 5 -15 2h-1h-1v0v0q-1 0 -1 -1q-3 -1 -6 -3v0q-2 -2 -3 -4q-1 0 -2 1q-1 0 -3 1l-1 1q-16 8 -36 8q-27 0 -41 -15q-14 -16 -14 -39q0 -25 17 -41q-10 -13 -10 -22q0 -5 2 -12q2 -6 6 -12q-17 -14 -17 -33q0 -22 17 -34t43 -12
q64 3 64 48q0 23 -18 34q-18 10 -44 10h-12q-4 0 -8 3q-4 2 -4 8q0 5 2 11q10 -3 20 -3q29 0 43 15q15 15 15 38v17q0 6 2 9v1q2 4 8 6h5h1l1 1v2q-1 7 -5 11zM1037 66v0h5q6 -1 12 -1h6q31 1 31 -17q-4 -21 -32 -21q-30 1 -30 22q0 10 8 17zM1084 173v0v-10q1 -26 -26 -26
q-26 3 -26 28q0 29 27 29q13 0 25 -7v-14zM1286 169v0q0 22 -13 36q-12 14 -38 14q-18 0 -33 -10v31v17v0v0v4q-1 8 -5 14q-5 7 -14 8h-4q-7 0 -13 -4t-9 -12q6 0 9 -2q4 -2 4 -8v-17v-133v-17q0 -6 -4 -8q-3 -2 -9 -2q3 -8 9 -12t13 -4h4t4 1q6 2 10 7q4 6 5 14v4v0v0v17
v72q15 13 30 13q22 -1 22 -22v-62v-17v-1v0q-1 -6 -4 -8q-4 -2 -10 -2q3 -8 9 -12t13 -4h5q2 0 3 1q7 2 11 7q4 6 4 14q1 2 1 4v0v0v17v2v60zM1390 105v0q-1 1 -3 1q0 -8 -5 -10q-5 -3 -12 -2q-11 2 -13 11q-2 8 -1 18v7v49h9v0v0h4q7 1 12 4q7 5 8 13v4q0 7 -4 12
q-4 6 -11 8q0 -5 -2 -8t-7 -4v0h-1h-8v3v7v4v14v0v0v5q0 8 -5 14q-5 7 -14 8h-5q-7 0 -13 -4t-9 -13q6 0 10 -2q3 -2 4 -8v-14v-96q-1 -34 10 -49q11 -14 45 -14q14 1 20 9t4 18t-13 15zM1636 110v0q0 -12 -14 -15h-67l3 5q18 22 40 41l27 24q9 9 16 22q8 14 8 35
q-7 61 -70 61q-9 0 -19 -2q-10 -1 -19 -4q-7 -2 -12 -4q-12 -6 -16 -13t-2 -14v-2q1 -3 2 -5q2 -6 8 -11q5 -5 14 -5q-2 5 0 10q1 5 7 8l2 1q4 2 7 4q6 2 13 4q7 1 14 1h1q33 -3 33 -32q0 -16 -12 -28q-11 -13 -24 -24q-4 -3 -8 -7l-2 -2q-35 -27 -56 -65q-1 -3 -1 -7
q-1 -3 -1 -6q0 -8 6 -13q5 -5 13 -5h73q24 1 26 1q9 0 15 5q7 4 9 13v2v5q0 6 -4 12q-3 7 -10 10zM1745 284v0q-70 -4 -70 -71v-85q6 -65 70 -65q70 6 70 65v85q-3 71 -70 71zM1777 128v0q-2 -33 -32 -33q-32 2 -32 33v87q1 37 32 37q32 -1 32 -37v-87zM1933 80v0
q-13 0 -16 14v1v170q0 8 -6 13t-15 5q-5 0 -10 -3q-6 -3 -13 -7t-13 -8q-6 -3 -7 -4q-7 -5 -10 -12q-4 -7 0 -16v-1q1 -3 3 -5q2 -3 5 -6q3 -2 7 -4q5 -2 12 -2q-7 11 4 20l5 3v-6v-58v-57v-27q1 -10 6 -17t15 -9h1v0l1 -1h6q7 0 14 4t11 13zM2019 79v0q1 2 4 9q4 8 8 17
l2 5l63 147q1 2 1 4q1 2 1 4q0 7 -6 13q-6 5 -14 5h-39h-38h-18q-9 -1 -16 -6q-7 -4 -8 -14l-1 -1v-6q0 -6 4 -13q4 -6 11 -10q0 13 15 15v0h65l-66 -151q-5 -6 -10 -8q-5 -1 -10 1q0 -9 5 -15q5 -7 11 -10q2 -1 5 -2h1h1q4 -1 8 0q5 0 10 3q7 4 11 12v1zM226 -151v0
q-24 0 -37 -10v29v17v5q-1 8 -5 14q-5 7 -14 8h-5q-7 0 -13 -4t-9 -13q6 0 10 -2q3 -2 4 -8v-17v-127q2 -49 59 -49q30 0 45 16t15 39v53q0 21 -12 35q-11 14 -38 14zM243 -250v0q0 -21 -20 -26h-7q-6 0 -11 2q-8 2 -12 7q-2 4 -3 8q-1 2 -1 5v60q3 3 13 7q10 5 24 5
q17 0 17 -17v-51zM436 -165v0q-2 5 -6 9q-2 2 -4 3v0h-1l-4 2h-1h-1q-6 2 -13 0t-12 -9q10 -3 10 -11v-1v0v-1v-1q-6 -19 -11 -32l-8 -27l-8 -23l-12 35l-18 51v0v1q-1 2 -1 4v0h-1v0v1v0v1h-1q-3 6 -7 9t-9 4h-1h-1h-5v0v0q-3 -1 -5 -2h-1v0q-6 -3 -11 -8q-4 -6 -4 -14
q10 3 15 -3v-1v0l1 -1v0l45 -122q-11 -38 -33 -37q-3 -1 -6 1t-4 7v2l-2 -1q-9 -4 -11 -11t-1 -11q0 -4 2 -7q4 -7 10 -9q6 -3 10 -3h4v0h7h1v0l3 1q25 4 38 27q13 22 22 56l32 96v-1l2 7v0v0q1 2 1 4v2v0v1h1q1 6 -1 12zM710 -272v0l-2 6l-59 161q-3 8 -8 13t-15 5t-14 -5
q-5 -5 -8 -13l-59 -162l-2 -6q-2 -9 0 -17q3 -10 14 -14q2 -2 5 -2h1l1 -1h7q3 0 8 1t11 5q-14 7 -11 22l1 1l6 18h80v-1l7 -18q3 -15 -11 -22q5 -4 11 -5q5 -1 8 -1h8q1 1 4 2q2 0 3 1q11 4 14 14q3 8 0 18zM596 -230v0l1 1l30 88l29 -89h-60zM870 -281v0h-2q-6 -1 -9 1
q-1 1 -2 3t-2 3v1v1v2v2v156v8q-1 5 -6 11q-7 7 -21 5q-13 -1 -19 -14l-1 -2h2q5 0 8 -3t4 -10v-38q-15 5 -31 5q-54 1 -54 -62v-37q0 -29 16 -45q14 -14 36 -14q19 0 41 12v0v-1q1 0 1 -1l1 -1v-1q3 -3 10 -5q6 -1 13 1q5 1 10 6q4 5 5 16v1zM822 -238v0v-29q-16 -8 -27 -8
q-14 0 -19 6q-6 6 -6 20v37q0 17 5 24q6 6 20 6q5 0 13 -2t14 -6v0v-48zM1022 -202v0q0 22 -12 36t-38 14q-19 0 -33 -10v31v17v0v0v5q-1 8 -5 13q-5 7 -14 8q-2 1 -4 1q-7 -1 -13 -5t-9 -12q6 0 9 -2t4 -8v-17v-132v-17q-1 -6 -4 -9q-3 -2 -9 -2q3 -8 9 -12t13 -4h4t4 1
q6 2 10 7q4 6 5 14v4v0v0v18v71q14 13 30 13q21 0 21 -22v-62v-17v0v-1q0 -5 -4 -8q-3 -2 -9 -1q3 -9 9 -13t13 -4h5q1 0 3 1q7 2 11 7q4 6 4 14v4v0v1v16v3v59zM1127 -151v0q-7 3 -15 4h-1h-2h-1h-2h-2q-14 0 -25 -5q-5 -3 -12 -8t-11 -12v-1l-2 -6v-1v0v-1v-1q0 -8 6 -14
q2 -3 5 -4q7 -3 14 -1l1 1v1q-1 2 -1 5q0 6 4 9v1q5 4 13 6q12 3 23 -3q1 0 2 -1v0l1 -1v0v0l1 -1q7 -6 7 -16v-17h-2q-13 2 -26 2q-17 0 -29 -4l-4 -2q-22 -11 -22 -39q0 -22 12 -34q13 -13 41 -14h2h1v0h1q21 1 35 10v0v0q4 -4 8 -6q3 -2 7 -2q8 0 12 4q4 3 5 8q2 4 2 7v2
h-1q-3 -1 -6 1t-4 6v0v3v2v60v1v11q0 6 -2 12q-1 7 -3 11l-2 3q-8 18 -28 24zM1130 -244v0v-16v-2q-1 0 -1 -1v0v-1q-2 -5 -5 -9v0l-1 -1q-7 -7 -20 -7h-4t-3 1h-1q-8 1 -12 5q-5 4 -5 14q0 12 10 17q1 1 2 1v0q5 2 12 2q4 0 12 -1q7 -1 16 -2v0zM1445 -272v0l-2 6l-58 161
q-4 8 -8 13q-5 5 -15 5t-15 -5t-8 -13l-59 -162l-2 -6q-2 -9 0 -17q3 -10 14 -14q3 -2 5 -2h1l1 -1h7q3 0 8 1q6 1 11 5q-14 7 -10 22v1l6 18h80v-1l7 -18q3 -15 -11 -22q6 -4 11 -5t8 -1h8q1 1 4 2q2 0 3 1q11 4 14 14q3 8 0 18zM1332 -230v0v1l30 88l29 -89h-59z
M1575 -263v0q0 -6 -2 -9q-2 -4 -8 -4h-47l72 101q3 6 3 11q0 7 -5 12q-5 4 -12 4h-74v0v0h-5q-8 -1 -13 -5q-7 -4 -8 -13v0v-1q-1 -2 -1 -4v-1q0 -6 4 -13q5 -6 13 -8q0 6 2 9t8 4l45 -1l-72 -101q-3 -5 -3 -10q0 -7 6 -12q5 -4 12 -4h75v0v0h4q8 0 14 4q7 5 8 15v4v0
q0 7 -4 13t-12 9zM1721 -263v0q0 -6 -2 -9q-2 -4 -8 -4h-47l72 101q3 6 3 11q0 7 -5 12q-5 4 -12 4h-74v0v0h-5q-8 -1 -14 -5t-7 -13h-1v-1v-4v-1q0 -6 4 -13q4 -6 13 -8q0 6 2 9t8 4l45 -1l-72 -101q-3 -5 -3 -10q0 -7 5 -12q6 -4 13 -4h75v0v0h4q8 0 14 4q7 5 8 15v4v0
q0 7 -4 13t-12 9zM1844 -151v0q-7 3 -14 4h-2h-2h-1h-1h-3q-14 0 -24 -5q-6 -3 -13 -8q-6 -5 -10 -12l-1 -1l-2 -6v-1v0v-1v-1q0 -8 6 -14q2 -3 5 -4q7 -3 14 -1l2 1l-1 1q-1 2 -1 5q0 6 4 9v1q5 4 13 6q12 3 23 -3q1 0 2 -1v0q1 0 1 -1v0v0l1 -1q7 -6 7 -16v-17h-2
q-13 2 -26 2q-17 0 -28 -4q-3 -1 -4 -2q-23 -11 -23 -39q0 -22 12 -34q13 -13 41 -14h2h1v0h1q21 1 35 10v0h1q3 -4 7 -6q3 -2 7 -2q8 0 12 4q4 3 6 8q1 4 1 7v2h-1q-3 -1 -6 1t-4 6v0v3v2v60v1v11q0 6 -1 12q-2 7 -4 11l-2 3q-8 18 -28 24zM1847 -244v0v-16v-2l-1 -1v0v-1
q-1 -5 -5 -9v0q0 -1 -1 -1q-7 -7 -20 -7h-4t-3 1h-1q-8 1 -12 5q-5 4 -5 14q0 12 10 17q1 1 2 1v0q5 2 13 2q3 0 11 -1l16 -2v0zM2055 -281v0l-1 3l-2 -2q-4 -2 -9 0l-2 2l-1 1v0v0l-30 42l-13 18l34 32q0 1 1 2q1 0 3 1l2 1t4 1t5 -1l2 -1v2q3 7 0 14l-4 6q-7 9 -17 7
q-5 0 -9 -3q-2 -1 -3 -2l-56 -55l-1 105q0 7 -4 13q-6 8 -18 8q-6 -1 -12 -5q-6 -3 -9 -11v-3h2q5 0 7 -1q2 -2 3 -6v-5v-164q-1 -4 -3 -6t-7 -2h-2v-2q3 -8 9 -12t12 -4v0h1q11 0 17 8q4 6 4 13q1 2 1 4v30l16 15l4 -6v0l1 -1l1 -2v0l33 -47q4 -6 7 -8q4 -4 7 -5
q10 -3 19 4q3 2 5 5q5 8 3 17zM2091 -154v0q-6 -4 -9 -13q6 0 10 -2q3 -2 4 -8v-9v-82v-14v-4q1 -9 5 -15q5 -7 15 -8h4q8 0 14 4t9 13q-6 0 -10 2q-3 2 -4 8v1v18v77v9v5q-1 8 -5 14q-6 9 -19 9q-7 0 -14 -5zM2123 -92v0q-6 5 -14 5t-14 -5q-6 -6 -6 -13q0 -8 6 -13
q6 -6 14 -6t14 6q6 5 6 13q0 7 -6 13z" />
    <glyph glyph-name="nonmarkingreturn" horiz-adv-x="508" 
 />
    <glyph glyph-name="space" unicode=" " horiz-adv-x="508" 
 />
    <glyph glyph-name="space" unicode="&#xa0;" horiz-adv-x="508" 
 />
    <glyph glyph-name="AE" unicode="&#xc6;" horiz-adv-x="1669" 
d="M1501 290v0q46 -23 66 -62t21 -74q1 -15 -1 -30l-2 -9q-10 -56 -51 -86q-39 -27 -94 -31q-13 -1 -29 -2l-436 2q-163 0 -164 117v182v0v205v0l1 66q-1 18 -13.5 31t-30.5 13h-203q-43 0 -66 -44l-164 -385q-23 -103 67 -149q-35 -25 -68.5 -32.5t-53.5 -7.5q-25 0 -48 6
l-7 1q-2 0 -3 1q-18 4 -37 13q-68 30 -89 91q-16 53 1 117q4 16 10 34l468 1048q17 54 49.5 86.5t97.5 32.5h13h2h3h4l532 -1h1h1l133 -1q16 0 30 -1q54 -4 93 -31q41 -30 51 -86q0 -1 0.5 -2.5t1.5 -5.5q2 -16 1 -31q0 -36 -18.5 -80.5t-64.5 -68.5q-7 84 -93 91h-105
q-13 -2 -26 -2l-215 2q-20 -10 -20 -31l-5 -328q0 -13 7.5 -21.5t19.5 -11.5l35 -1v0l162 1q84 8 92 92q46 -24 66 -63t21 -74q0 -11 -1 -24l-2 -15q-10 -56 -52 -86q-38 -27 -93 -31q-13 -1 -30 -1l-163 -2v-1l-30 2q-14 -1 -23 -10.5t-9 -22.5v-346q0 -14 9.5 -23.5
t24.5 -9.5l334 -1q84 7 92 91zM772 815v0q17 0 29 12t13 30l2 350l-45 -2l-166 -390h167z" />
    <glyph glyph-name="Aacute" unicode="&#xc1;" horiz-adv-x="1277" 
d="M486 1743l155 104q39 22 84.5 15t71.5 -48q22 -41 8.5 -84t-56.5 -69l-155 -104q-45 -24 -89 -14.5t-68 49.5q-22 43 -5.5 85.5t54.5 65.5v0zM1180 232v0v0q17 -63 0 -116q-21 -62 -90 -92q-8 -4 -22.5 -8.5t-22.5 -7.5q-26 -5 -51 -5q-21 0 -55.5 7.5t-68.5 32.5
q89 45 68 146l-43 118l-1 2h-520l-40 -115l-1 -5q-23 -102 66 -147q-34 -25 -67.5 -32t-53.5 -7q-24 0 -48 5l-6 1q-2 1 -3 1q-18 5 -37 13q-67 30 -87 91q-17 52 0 115q4 16 10 34l385 1052q17 54 49 86t97 32t97 -31t52 -88l381 -1044q7 -19 12 -38zM443 507v0h386
l-190 573l-195 -569z" />
    <glyph glyph-name="Acircumflex" unicode="&#xc2;" horiz-adv-x="1277" 
d="M693 1654l-155 -104q-40 -21 -85 -14t-71 48q-22 41 -9 83.5t57 69.5l155 103q45 25 88.5 15t68.5 -50q22 -43 5.5 -85.5t-54.5 -65.5v0zM1180 232v0v0q17 -63 0 -116q-21 -62 -90 -92q-8 -4 -22.5 -8.5t-22.5 -7.5q-26 -5 -51 -5q-21 0 -55.5 7.5t-68.5 32.5
q89 45 68 146l-43 118l-1 2h-520l-40 -115l-1 -5q-23 -102 66 -147q-34 -25 -67.5 -32t-53.5 -7q-24 0 -48 5l-6 1q-2 1 -3 1q-18 5 -37 13q-67 30 -87 91q-17 52 0 115q4 16 10 34l385 1052q17 54 49 86t97 32t97 -31t52 -88l381 -1044q7 -19 12 -38zM443 507v0h386
l-190 573l-195 -569zM607 1649v0q-38 23 -54.5 65.5t5.5 85.5q24 40 68 50t89 -15l155 -103q43 -27 56.5 -69.5t-8.5 -83.5q-26 -41 -71.5 -48t-84.5 14z" />
    <glyph glyph-name="Adieresis" unicode="&#xc4;" horiz-adv-x="1277" 
d="M1180 232v0v0q17 -63 0 -116q-21 -62 -90 -92q-8 -4 -22.5 -8.5t-22.5 -7.5q-26 -5 -51 -5q-21 0 -55.5 7.5t-68.5 32.5q89 45 68 146l-43 118l-1 2h-520l-40 -115l-1 -5q-23 -102 66 -147q-34 -25 -67.5 -32t-53.5 -7q-24 0 -48 5l-6 1q-2 1 -3 1q-18 5 -37 13
q-67 30 -87 91q-17 52 0 115q4 16 10 34l385 1052q17 54 49 86t97 32t97 -31t52 -88l381 -1044q7 -19 12 -38zM443 507v0h386l-190 573l-195 -569zM481 1573v0q-50 0 -86.5 33.5t-36.5 79.5q0 47 36 79.5t87 32.5q50 0 86.5 -33t36.5 -79t-36.5 -79.5t-86.5 -33.5zM809 1577
v0q-49 0 -85.5 34t-36.5 80t36 79t86 33q51 0 87.5 -33.5t36.5 -78.5q0 -46 -36.5 -80t-87.5 -34z" />
    <glyph glyph-name="Agrave" unicode="&#xc0;" horiz-adv-x="1277" 
d="M749 1743v0q38 -23 54.5 -65.5t-5.5 -85.5q-25 -40 -68.5 -49.5t-88.5 14.5l-155 104q-44 26 -57 69t9 84q26 41 71 48t85 -15zM1180 232v0v0q17 -63 0 -116q-21 -62 -90 -92q-8 -4 -22.5 -8.5t-22.5 -7.5q-26 -5 -51 -5q-21 0 -55.5 7.5t-68.5 32.5q89 45 68 146
l-43 118l-1 2h-520l-40 -115l-1 -5q-23 -102 66 -147q-34 -25 -67.5 -32t-53.5 -7q-24 0 -48 5l-6 1q-2 1 -3 1q-18 5 -37 13q-67 30 -87 91q-17 52 0 115q4 16 10 34l385 1052q17 54 49 86t97 32t97 -31t52 -88l381 -1044q7 -19 12 -38zM443 507v0h386l-190 573l-195 -569z
" />
    <glyph glyph-name="Aring" unicode="&#xc5;" horiz-adv-x="1277" 
d="M1180 232v0v0q17 -63 0 -116q-21 -62 -90 -92q-8 -4 -22.5 -8.5t-22.5 -7.5q-26 -5 -51 -5q-21 0 -55.5 7.5t-68.5 32.5q89 45 68 146l-43 118l-1 2h-520l-40 -115l-1 -5q-23 -102 66 -147q-34 -25 -67.5 -32t-53.5 -7q-24 0 -48 5l-6 1q-2 1 -3 1q-18 5 -37 13
q-67 30 -87 91q-17 52 0 115q4 16 10 34l385 1052q17 54 49 86t97 32t97 -31t52 -88l381 -1044q7 -19 12 -38zM443 507v0h386l-190 573l-195 -569zM642 1589q-31 0 -53 -22t-22 -53q0 -32 22 -53.5t53 -21.5q32 0 53.5 21.5t21.5 53.5q0 31 -22 53t-53 22zM643 1714
q82 0 140.5 -58.5t58.5 -141.5q0 -82 -59 -141t-142 -59q-84 0 -141.5 58.5t-57.5 141.5t58.5 141.5t142.5 58.5z" />
    <glyph glyph-name="Atilde" unicode="&#xc3;" horiz-adv-x="1277" 
d="M1180 232v0v0q17 -63 0 -116q-21 -62 -90 -92q-8 -4 -22.5 -8.5t-22.5 -7.5q-26 -5 -51 -5q-21 0 -55.5 7.5t-68.5 32.5q89 45 68 146l-43 118l-1 2h-520l-40 -115l-1 -5q-23 -102 66 -147q-34 -25 -67.5 -32t-53.5 -7q-24 0 -48 5l-6 1q-2 1 -3 1q-18 5 -37 13
q-67 30 -87 91q-17 52 0 115q4 16 10 34l385 1052q17 54 49 86t97 32t97 -31t52 -88l381 -1044q7 -19 12 -38zM443 507v0h386l-190 573l-195 -569zM922 1657q0 -33 -25 -56t-61.5 -35.5t-70.5 -12.5q-45 0 -79 11.5t-62 25.5q-31 15 -60 22q-21 4 -33.5 1t-23.5 -9
q-10 -5 -22 -9.5t-33 -4.5q-28 0 -52 7.5t-29 35.5q-15 43 7.5 75t65.5 50.5t82 18.5q43 0 74.5 -11.5t57.5 -24.5q19 -9 36.5 -16t34.5 -7q20 0 31.5 2t19.5 4q9 3 21 5t34 2q34 0 60.5 -21t26.5 -53z" />
    <glyph glyph-name="Ccedilla" unicode="&#xc7;" horiz-adv-x="1121" 
d="M974 353v0q19 -15 31 -34q36 -55 22 -114l-4 -15q-2 -3 -3 -7q-8 -21 -29 -46q-38 -43 -83.5 -69t-76.5 -37l-8 -3q-32 -12 -59 -17q-49 -9 -113 -6h-5h-3h-8q-16 -1 -30 -1q-493 0 -525 510v410q0 480 522 506l1 -3l36 3l12 -1q64 3 113 -6q27 -5 59 -17
q107 -39 167 -107l3 -4q19 -23 27 -44q1 -3 2 -5v-1l5 -16q14 -59 -22 -114q-12 -20 -32 -34q-34 -27 -88 -28q1 19 -3 38q-13 57 -59 88l-2 2t-2.5 1.5l-1.5 0.5l-3 2q-55 35 -140 38h-1q-4 1 -12.5 1t-17 0.5t-12.5 0.5q-297 0 -298 -301v-410q0 -303 298 -304h19.5
t23.5 1q85 3 139 37l2 2q4 2 8 5q46 31 59 87q4 20 3 40q52 -1 89 -29zM550 -146l-104 155q-22 40 -15 85t48 71q41 22 84 9t69 -57l104 -155q25 -45 15 -88.5t-50 -68.5q-43 -22 -85.5 -5.5t-65.5 54.5v0z" />
    <glyph glyph-name="Eacute" unicode="&#xc9;" horiz-adv-x="1003" 
d="M345 1231v0q-14 0 -24 -9.5t-10 -23.5v-342q0 -14 10 -24t24 -10l254 3q84 8 91 92q46 -24 66.5 -63t21.5 -74q0 -12 -1 -24l-2 -15q-10 -57 -52 -87q-38 -27 -94 -31q-12 -1 -29 -1l-255 -2q-14 0 -24 -10t-10 -24v-346q0 -14 10 -23.5t24 -9.5h398q84 8 92 92
q46 -24 66.5 -63t20.5 -74q1 -14 -1 -30l-2 -9q-10 -56 -51 -86q-39 -27 -94 -31q-13 -2 -30 -2h-499q-163 0 -164 117v1196q0 41 36 79t94 38h533q17 0 31 -2q54 -4 93 -31q41 -30 51 -86q0 -1 0.5 -3t1.5 -5q2 -17 1 -31q0 -36 -20.5 -74.5t-66.5 -62.5q-8 84 -94 92h-396
zM339 1748l155 104q39 22 84.5 15t71.5 -48q22 -41 8.5 -84t-56.5 -69l-155 -104q-45 -24 -89 -14.5t-68 49.5q-22 43 -5.5 85.5t54.5 65.5v0z" />
    <glyph glyph-name="Ecircumflex" unicode="&#xca;" horiz-adv-x="1003" 
d="M345 1231v0q-14 0 -24 -9.5t-10 -23.5v-342q0 -14 10 -24t24 -10l254 3q84 8 91 92q46 -24 66.5 -63t21.5 -74q0 -12 -1 -24l-2 -15q-10 -57 -52 -87q-38 -27 -94 -31q-12 -1 -29 -1l-255 -2q-14 0 -24 -10t-10 -24v-346q0 -14 10 -23.5t24 -9.5h398q84 8 92 92
q46 -24 66.5 -63t20.5 -74q1 -14 -1 -30l-2 -9q-10 -56 -51 -86q-39 -27 -94 -31q-13 -2 -30 -2h-499q-163 0 -164 117v1196q0 41 36 79t94 38h533q17 0 31 -2q54 -4 93 -31q41 -30 51 -86q0 -1 0.5 -3t1.5 -5q2 -17 1 -31q0 -36 -20.5 -74.5t-66.5 -62.5q-8 84 -94 92h-396
zM546 1679l-155 -104q-40 -21 -85 -14t-71 48q-22 41 -9 83.5t57 69.5l155 103q45 25 88.5 15t68.5 -50q22 -43 5.5 -85.5t-54.5 -65.5v0zM460 1674v0q-38 23 -54.5 65.5t5.5 85.5q24 40 68 50t89 -15l155 -103q43 -27 56.5 -69.5t-8.5 -83.5q-26 -41 -71.5 -48t-84.5 14z
" />
    <glyph glyph-name="Edieresis" unicode="&#xcb;" horiz-adv-x="1003" 
d="M345 1231v0q-14 0 -24 -9.5t-10 -23.5v-342q0 -14 10 -24t24 -10l254 3q84 8 91 92q46 -24 66.5 -63t21.5 -74q0 -12 -1 -24l-2 -15q-10 -57 -52 -87q-38 -27 -94 -31q-12 -1 -29 -1l-255 -2q-14 0 -24 -10t-10 -24v-346q0 -14 10 -23.5t24 -9.5h398q84 8 92 92
q46 -24 66.5 -63t20.5 -74q1 -14 -1 -30l-2 -9q-10 -56 -51 -86q-39 -27 -94 -31q-13 -2 -30 -2h-499q-163 0 -164 117v1196q0 41 36 79t94 38h533q17 0 31 -2q54 -4 93 -31q41 -30 51 -86q0 -1 0.5 -3t1.5 -5q2 -17 1 -31q0 -36 -20.5 -74.5t-66.5 -62.5q-8 84 -94 92h-396
zM359 1578v0q-50 0 -86.5 33.5t-36.5 79.5q0 47 36 79.5t87 32.5q50 0 86.5 -33t36.5 -79t-36.5 -79.5t-86.5 -33.5zM687 1582v0q-49 0 -85.5 34t-36.5 80t36 79t86 33q51 0 87.5 -33.5t36.5 -78.5q0 -46 -36.5 -80t-87.5 -34z" />
    <glyph glyph-name="Egrave" unicode="&#xc8;" horiz-adv-x="1003" 
d="M345 1231v0q-14 0 -24 -9.5t-10 -23.5v-342q0 -14 10 -24t24 -10l254 3q84 8 91 92q46 -24 66.5 -63t21.5 -74q0 -12 -1 -24l-2 -15q-10 -57 -52 -87q-38 -27 -94 -31q-12 -1 -29 -1l-255 -2q-14 0 -24 -10t-10 -24v-346q0 -14 10 -23.5t24 -9.5h398q84 8 92 92
q46 -24 66.5 -63t20.5 -74q1 -14 -1 -30l-2 -9q-10 -56 -51 -86q-39 -27 -94 -31q-13 -2 -30 -2h-499q-163 0 -164 117v1196q0 41 36 79t94 38h533q17 0 31 -2q54 -4 93 -31q41 -30 51 -86q0 -1 0.5 -3t1.5 -5q2 -17 1 -31q0 -36 -20.5 -74.5t-66.5 -62.5q-8 84 -94 92h-396
zM602 1748v0q38 -23 54.5 -65.5t-5.5 -85.5q-25 -40 -68.5 -49.5t-88.5 14.5l-155 104q-44 26 -57 69t9 84q26 41 71 48t85 -15z" />
    <glyph glyph-name="Eth" unicode="&#xd0;" horiz-adv-x="1474" 
d="M639 587v-350q0 -14 10 -24t23 -10h145q335 0 346 340v366q0 307 -346 322h-145q-13 0 -23 -9.5t-10 -23.5v-387h155q43 0 82.5 -31.5t39.5 -80.5q0 -47 -35.5 -79.5t-86.5 -32.5h-155zM408 811v504q0 48 39.5 83.5t93.5 35.5h240q266 0 397 -90.5t173.5 -213.5
t42.5 -221v-366q0 -101 -42.5 -228.5t-173.5 -221t-397 -93.5h-240q-54 0 -93.5 35.5t-39.5 84.5v467h-206q-51 0 -86.5 32.5t-35.5 79.5q0 49 39.5 80.5t82.5 31.5h206z" />
    <glyph glyph-name="Iacute" unicode="&#xcd;" horiz-adv-x="657" 
d="M428 -19q-19 -1 -40 2q-75 9 -116 63q-33 47 -38 114q-2 22 -2 43v1023q-9 75 -43.5 102.5t-71.5 31.5q31 47 76 68.5t87 21.5q105 3 155 -65q34 -47 39 -114q2 -22 2 -43v-1027q10 -72 44.5 -99t70.5 -31q-31 -47 -76 -68t-87 -22v0zM150 1788l155 104q39 22 84.5 15
t71.5 -48q22 -41 8.5 -84t-56.5 -69l-155 -104q-45 -24 -89 -14.5t-68 49.5q-22 43 -5.5 85.5t54.5 65.5v0z" />
    <glyph glyph-name="Icircumflex" unicode="&#xce;" horiz-adv-x="699" 
d="M368 1653l-134 -106q-34 -23 -73 -15.5t-62 49.5q-19 42 -7.5 86t49.5 71l134 107q38 25 76 15t59 -51q20 -44 5.5 -88t-47.5 -68v0zM294 1648v0q-33 24 -47.5 67.5t4.5 88.5q22 41 59.5 51t76.5 -15l134 -107q38 -27 49.5 -71t-7.5 -86q-23 -42 -62 -49.5t-73 15.5z
M456 -19q-19 -1 -40 2q-75 9 -116 63q-33 47 -38 114q-2 22 -2 43v1023q-9 75 -43.5 102.5t-71.5 31.5q31 47 76 68.5t87 21.5q105 3 155 -65q34 -47 39 -114q2 -22 2 -43v-1027q10 -72 44.5 -99t70.5 -31q-31 -47 -76 -68t-87 -22v0z" />
    <glyph glyph-name="Idieresis" unicode="&#xcf;" horiz-adv-x="735" 
d="M474 -19q-19 -1 -40 2q-75 9 -116 63q-33 47 -38 114q-2 22 -2 43v1023q-9 75 -43.5 102.5t-71.5 31.5q31 47 76 68.5t87 21.5q105 3 155 -65q34 -47 39 -114q2 -22 2 -43v-1027q10 -72 44.5 -99t70.5 -31q-31 -47 -76 -68t-87 -22v0zM203 1573v0q-50 0 -86.5 33.5
t-36.5 79.5q0 47 36 79.5t87 32.5q50 0 86.5 -33t36.5 -79t-36.5 -79.5t-86.5 -33.5zM531 1577v0q-49 0 -85.5 34t-36.5 80t36 79t86 33q51 0 87.5 -33.5t36.5 -78.5q0 -46 -36.5 -80t-87.5 -34z" />
    <glyph glyph-name="Igrave" unicode="&#xcc;" horiz-adv-x="671" 
d="M428 -19q-19 -1 -40 2q-75 9 -116 63q-33 47 -38 114q-2 22 -2 43v1023q-9 75 -43.5 102.5t-71.5 31.5q31 47 76 68.5t87 21.5q105 3 155 -65q34 -47 39 -114q2 -22 2 -43v-1027q10 -72 44.5 -99t70.5 -31q-31 -47 -76 -68t-87 -22v0zM413 1788v0q38 -23 54.5 -65.5
t-5.5 -85.5q-25 -40 -68.5 -49.5t-88.5 14.5l-155 104q-44 26 -57 69t9 84q26 41 71 48t85 -15z" />
    <glyph glyph-name="Ntilde" unicode="&#xd1;" horiz-adv-x="1139" 
d="M1059 1234v0v-132v0v-995q0 -45 -34 -74.5t-85 -29.5q-84 0 -118 63l-24 42l-492 807l2 -717q9 -90 102 -97q-26 -52 -69.5 -74.5t-83.5 -23.5q-16 -1 -37 2q-67 8 -104 58q-30 43 -34 102q-2 18 -2 37v132v0v996q0 44 34 73.5t84 29.5q85 0 118 -63l516 -849l-2 717
q-8 90 -101 97q26 52 69.5 74.5t83.5 23.5q16 1 36 -2q68 -8 105 -58q30 -43 34 -102q2 -18 2 -37zM881 1701q0 -39 -27.5 -66.5t-67.5 -42t-78 -14.5q-49 0 -86.5 13.5t-68.5 29.5q-35 18 -66 27q-23 4 -37 0.5t-26 -10.5q-10 -6 -24 -11t-36 -5q-31 0 -57.5 9t-31.5 42
q-17 50 8 88.5t72 60t91 21.5q46 0 81 -13.5t63 -28.5q21 -12 40.5 -20t38.5 -8q22 0 34.5 2.5t21.5 5.5q10 3 23 5t38 2q36 0 65.5 -24.5t29.5 -62.5z" />
    <glyph glyph-name="Oacute" unicode="&#xd3;" horiz-adv-x="1188" 
d="M594 1430v0q490 0 514 -509v-410q0 -185 -115 -348t-399 -163t-399 163t-115 348v410q0 485 514 509zM880 511v0v410q0 306 -286 302q-280 10 -286 -302v-410q0 -299 286 -304q272 -10 286 304zM435 1748l155 104q39 22 84.5 15t71.5 -48q22 -41 8.5 -84t-56.5 -69
l-155 -104q-45 -24 -89 -14.5t-68 49.5q-22 43 -5.5 85.5t54.5 65.5v0z" />
    <glyph glyph-name="Ocircumflex" unicode="&#xd4;" horiz-adv-x="1188" 
d="M644 1657l-155 -104q-39 -21 -84 -14t-72 48q-22 41 -8.5 83.5t57.5 69.5l155 103q44 25 88 15t68 -50q23 -43 6.5 -85.5t-55.5 -65.5v0zM559 1652v0q-39 23 -55.5 65.5t6.5 85.5q24 40 68 50t88 -15l155 -103q44 -27 57.5 -69.5t-9.5 -83.5q-26 -41 -71 -48t-84 14z
M595 1430v0q490 0 514 -509v-410q0 -185 -115 -348t-399 -163q-285 0 -400 163t-115 348v410q0 485 515 509zM880 511v0v410q0 306 -285 302q-281 10 -286 -302v-410q0 -299 286 -304q272 -10 285 304z" />
    <glyph glyph-name="Odieresis" unicode="&#xd6;" horiz-adv-x="1188" 
d="M594 1430v0q490 0 514 -509v-410q0 -185 -115 -348t-399 -163q-285 0 -400 163t-115 348v410q0 485 515 509zM879 511v0v410q0 306 -285 302q-281 10 -286 -302v-410q0 -299 286 -304q272 -10 285 304zM425 1573v0q-50 0 -86.5 33.5t-36.5 79.5q0 47 36 79.5t87 32.5
q50 0 86.5 -33t36.5 -79t-36.5 -79.5t-86.5 -33.5zM753 1577v0q-49 0 -85.5 34t-36.5 80t36 79t86 33q51 0 87.5 -33.5t36.5 -78.5q0 -46 -36.5 -80t-87.5 -34z" />
    <glyph glyph-name="Ograve" unicode="&#xd2;" horiz-adv-x="1188" 
d="M594 1430v0q490 0 514 -509v-410q0 -185 -115 -348t-399 -163t-399 163t-115 348v410q0 485 514 509zM880 511v0v410q0 306 -286 302q-280 10 -286 -302v-410q0 -299 286 -304q272 -10 286 304zM698 1748v0q38 -23 54.5 -65.5t-5.5 -85.5q-25 -40 -68.5 -49.5t-88.5 14.5
l-155 104q-44 26 -57 69t9 84q26 41 71 48t85 -15z" />
    <glyph glyph-name="Oslash" unicode="&#xd8;" horiz-adv-x="1188" 
d="M633 1222q-19 1 -39 1q-281 10 -286 -302v-410q0 -158 80 -234zM812 1145l-244 -937q13 -1 26 -1q272 -10 285 304v410q0 148 -67 224zM329 51q-84 40 -135 112q-115 163 -115 348v410q0 485 515 509q49 0 94 -5q23 64 60 112q62 79 146 74q48 -3 78 -42
q-64 -61 -101 -197q221 -113 237 -451v-410q0 -185 -115 -348t-399 -163q-43 0 -81 4q-23 -69 -61 -118q-10 -13 -23 -25l-5 -4q-13 -12 -25 -20q-40 -25 -84 -25h-8q-12 0 -24 4l-3 1q-11 4 -20 9l-4 2q-16 10 -28 26q64 61 101 196v1z" />
    <glyph glyph-name="Otilde" unicode="&#xd5;" horiz-adv-x="1188" 
d="M594 1430v0q490 0 514 -509v-410q0 -185 -115 -348t-399 -163q-285 0 -400 163t-115 348v410q0 485 515 509zM879 511v0v410q0 306 -285 302q-281 10 -286 -302v-410q0 -299 286 -304q272 -10 285 304zM881 1701q0 -39 -27.5 -66.5t-67.5 -42t-78 -14.5q-49 0 -86.5 13.5
t-68.5 29.5q-35 18 -66 27q-23 4 -37 0.5t-26 -10.5q-10 -6 -24 -11t-36 -5q-31 0 -57.5 9t-31.5 42q-17 50 8 88.5t72 60t91 21.5q46 0 81 -13.5t63 -28.5q21 -12 40.5 -20t38.5 -8q22 0 34.5 2.5t21.5 5.5q10 3 23 5t38 2q36 0 65.5 -24.5t29.5 -62.5z" />
    <glyph glyph-name="Thorn" unicode="&#xde;" horiz-adv-x="2162" 
 />
    <glyph glyph-name="Uacute" unicode="&#xda;" horiz-adv-x="1238" 
d="M1158 489v0q0 -442 -489 -485q-446 0 -489 485v762l-2 9q-14 75 -98 82q26 52 69.5 75t82.5 24q16 0 36 -2q2 -1 4 -1v0l7 -2q60 -11 92 -56q30 -42 34 -102v-30t1 -55v-671q0 -269 263 -286q245 0 261 286v734v4q-14 75 -98 82q26 52 69.5 75t82.5 24q16 0 36 -2
q2 -1 4 -1h1l6 -2q59 -11 91 -56v0q30 -42 35 -102v0q0 -16 1 -173v-616zM506 1748l155 104q39 22 84.5 15t71.5 -48q22 -41 8.5 -84t-56.5 -69l-155 -104q-45 -24 -89 -14.5t-68 49.5q-22 43 -5.5 85.5t54.5 65.5v0z" />
    <glyph glyph-name="Ucircumflex" unicode="&#xdb;" horiz-adv-x="1238" 
d="M1158 489q0 -442 -489 -485q-446 0 -489 485v762l-2 9q-14 75 -98 82q26 52 69.5 75t82.5 24q16 0 36 -2q2 -1 4 -1l7 -2q60 -11 92 -56q30 -42 34 -102v-30t1 -55v-671q0 -269 263 -286q245 0 261 286v738q-14 75 -98 82q26 52 69.5 75t82.5 24q16 0 36 -2q2 -1 4 -1h1
l6 -2q59 -11 91 -56q30 -42 35 -102l1 -173v-616zM642 1626l-109 -73q-39 -21 -84 -14t-72 48q-22 41 -8.5 83.5t57.5 69.5l155 103q44 25 88 15q27 -6 47 -24l149 -99q44 -27 57.5 -69.5t-9.5 -83.5q-26 -41 -71 -48t-84 14z" />
    <glyph glyph-name="Udieresis" unicode="&#xdc;" horiz-adv-x="1238" 
d="M1158 489v0q0 -442 -489 -485q-446 0 -489 485v762l-2 9q-14 75 -98 82q26 52 69.5 75t82.5 24q16 0 36 -2q2 -1 4 -1v0l7 -2q60 -11 92 -56q30 -42 34 -102v-30t1 -55v-671q0 -269 263 -286q245 0 261 286v734v4q-14 75 -98 82q26 52 69.5 75t82.5 24q16 0 36 -2
q2 -1 4 -1h1l6 -2q59 -11 91 -56v0q30 -42 35 -102v0q0 -16 1 -173v-616zM491 1573v0q-50 0 -86.5 33.5t-36.5 79.5q0 47 36 79.5t87 32.5q50 0 86.5 -33t36.5 -79t-36.5 -79.5t-86.5 -33.5zM819 1577v0q-49 0 -85.5 34t-36.5 80t36 79t86 33q51 0 87.5 -33.5t36.5 -78.5
q0 -46 -36.5 -80t-87.5 -34z" />
    <glyph glyph-name="Ugrave" unicode="&#xd9;" horiz-adv-x="1238" 
d="M1158 489v0q0 -442 -489 -485q-446 0 -489 485v762l-2 9q-14 75 -98 82q26 52 69.5 75t82.5 24q16 0 36 -2q2 -1 4 -1v0l7 -2q60 -11 92 -56q30 -42 34 -102v-30t1 -55v-671q0 -269 263 -286q245 0 261 286v734v4q-14 75 -98 82q26 52 69.5 75t82.5 24q16 0 36 -2
q2 -1 4 -1h1l6 -2q59 -11 91 -56v0q30 -42 35 -102v0q0 -16 1 -173v-616zM713 1748v0q38 -23 54.5 -65.5t-5.5 -85.5q-25 -40 -68.5 -49.5t-88.5 14.5l-155 104q-44 26 -57 69t9 84q26 41 71 48t85 -15z" />
    <glyph glyph-name="Yacute" unicode="&#xdd;" horiz-adv-x="1329" 
d="M1151 1407v0v0q34 -16 63.5 -51.5t34.5 -89.5q-25 8 -56 4.5t-61 -36.5q-3 -3 -6 -7q-7 -10 -13 -20l-327 -642q-4 -7 -4 -15v-189l1 -16l-1 -138q0 -44 -1 -50q-4 -61 -34 -104q-33 -45 -94 -57l-6 -1q-2 -1 -6 -2q-18 -2 -35 -1q-40 0 -84 24t-71 77q35 2 63.5 21
t38.5 74v362q0 8 -4 15l-331 641q-6 9 -14 19q-2 4 -5 6q-30 34 -62 37t-57 -6q5 55 34.5 91.5t63.5 52.5q15 8 33 13q3 1 7 2q16 4 37 5q10 1 22 -1q29 -3 53 -16q30 -18 56 -53l4 -5v0q1 -2 2 -3l12 -20l38 -74.5l80 -157l79.5 -156t36.5 -72.5q10 -17 29 -17h1
q20 1 29 17l22 43l40 80l73 145.5l66.5 132t30.5 59.5q5 10 11 20l2 2q0 1 1 1l3 5q26 35 56 53q23 13 51 16l4 1q9 1 18 0q21 -1 37 -5q3 -1 7 -1q18 -6 32 -13zM723 1738v0q38 -23 54.5 -65.5t-5.5 -85.5q-25 -40 -68.5 -49.5t-88.5 14.5l-155 104q-44 26 -57 69t9 84
q26 41 71 48t85 -15z" />
    <glyph glyph-name="aacute" unicode="&#xe1;" horiz-adv-x="977" 
d="M504 1041v0h-12h-11h-4q-6 0 -12 1h-18q-88 -1 -158 -31q-38 -16 -80.5 -50.5t-68.5 -81.5l-1 -2q-11 -21 -14 -41q-1 -2 -1 -4v-3l-1 -9v-5q-1 -51 38 -91q15 -15 33 -24q44 -21 93 -5l9 2l-4 8q-7 17 -7 34q0 36 26 60l2 2q29 29 82 43q79 21 149 -18q7 -4 14 -9l3 -3
q1 0 2 -1l2 -2q3 -2 6 -5q44 -40 44 -105v-112l-8 1q-85 13 -169 13q-111 0 -188 -29q-14 -5 -26 -11q-145 -70 -145 -255q0 -138 76 -215q88 -88 270 -91h9h6h4h3q136 4 229 62l2 1l1 -2q22 -27 48 -41q21 -11 47 -13q52 3 78 26.5t35 52.5t9 50l1 9l-9 -1q-20 -1 -35 9
q-19 12 -26 41l-1 1q-1 5 -2 14v13v389v12v68q0 40 -9 79q-10 43 -24 72l-10 21q-54 117 -182 156q-45 16 -95 20zM615 310v0q0 -8 -0.5 -11t-1.5 -5v-1q-2 -2 -4 -9q-8 -34 -30 -58l-2 -2l-4 -4q-47 -46 -133 -46q-12 0 -24 1q-11 1 -22 3h-2q-52 8 -81.5 34t-29.5 92
q0 78 65 111q4 3 10 5q2 1 3 1q33 13 80 13q24 0 73.5 -5t102.5 -17h2zM268 1399l155 104q39 22 84.5 15t71.5 -48q22 -41 8.5 -84t-56.5 -69l-155 -104q-45 -24 -89 -14.5t-68 49.5q-22 43 -5.5 85.5t54.5 65.5v0z" />
    <glyph glyph-name="acircumflex" unicode="&#xe2;" horiz-adv-x="977" 
d="M615 310q0 -8 -0.5 -11t-1.5 -5v-1q-2 -2 -4 -9q-8 -34 -30 -58l-6 -6q-47 -46 -133 -46q-12 0 -24 1q-11 1 -22 3h-2q-52 8 -81.5 34t-29.5 92q0 78 65 111q4 3 10 5q2 1 3 1q33 13 80 13q24 0 73.5 -5t102.5 -17h2zM504 1041h-27q-6 0 -12 1h-18q-88 -1 -158 -31
q-38 -16 -80.5 -50.5t-68.5 -81.5l-1 -2q-11 -21 -14 -41q-1 -2 -1 -4v-3l-1 -9v-5q-1 -51 38 -91q15 -15 33 -24q44 -21 93 -5l9 2l-4 8q-7 17 -7 34q0 36 26 60l2 2q29 29 82 43q79 21 149 -18q7 -4 14 -9l3 -3q1 0 2 -1l2 -2q3 -2 6 -5q44 -40 44 -105v-112l-8 1
q-85 13 -169 13q-111 0 -188 -29q-14 -5 -26 -11q-145 -70 -145 -255q0 -138 76 -215q88 -88 270 -91h22q136 4 229 62l2 1l1 -2q22 -27 48 -41q21 -11 47 -13q52 3 78 26.5t35 52.5t9 50l1 9l-9 -1q-20 -1 -35 9q-19 12 -26 41l-1 1q-1 5 -2 14v482q0 40 -9 79
q-10 43 -24 72l-10 21q-54 117 -182 156q-45 16 -95 20zM468 1257l-90 -60q-32 -18 -69.5 -12.5t-59.5 39.5q-18 34 -7 69.5t47 57.5l129 86q37 21 73 13q22 -6 38 -20l125 -83q36 -22 47 -57.5t-7 -69.5q-22 -34 -59.5 -40t-69.5 13z" />
    <glyph glyph-name="adieresis" unicode="&#xe4;" horiz-adv-x="977" 
d="M294 1132v0q-50 0 -86.5 33.5t-36.5 79.5q0 47 36 79.5t87 32.5q50 0 86.5 -33t36.5 -79t-36.5 -79.5t-86.5 -33.5zM622 1136v0q-49 0 -85.5 34t-36.5 80t36 79t86 33q51 0 87.5 -33.5t36.5 -78.5q0 -46 -36.5 -80t-87.5 -34zM504 1041v0h-12h-11h-4q-6 0 -12 1h-18
q-88 -1 -158 -31q-38 -16 -80.5 -50.5t-68.5 -81.5l-1 -2q-11 -21 -14 -41q-1 -2 -1 -4v-3l-1 -9v-5q-1 -51 38 -91q15 -15 33 -24q44 -21 93 -5l9 2l-4 8q-7 17 -7 34q0 36 26 60l2 2q29 29 82 43q79 21 149 -18q7 -4 14 -9l3 -3q1 0 2 -1l2 -2q3 -2 6 -5q44 -40 44 -105
v-112l-8 1q-85 13 -169 13q-111 0 -188 -29q-14 -5 -26 -11q-145 -70 -145 -255q0 -138 76 -215q88 -88 270 -91h9h6h4h3q136 4 229 62l2 1l1 -2q22 -27 48 -41q21 -11 47 -13q52 3 78 26.5t35 52.5t9 50l1 9l-9 -1q-20 -1 -35 9q-19 12 -26 41l-1 1q-1 5 -2 14v13v389v12
v68q0 40 -9 79q-10 43 -24 72l-10 21q-54 117 -182 156q-45 16 -95 20zM615 310v0q0 -8 -0.5 -11t-1.5 -5v-1q-2 -2 -4 -9q-8 -34 -30 -58l-2 -2l-4 -4q-47 -46 -133 -46q-12 0 -24 1q-11 1 -22 3h-2q-52 8 -81.5 34t-29.5 92q0 78 65 111q4 3 10 5q2 1 3 1q33 13 80 13
q24 0 73.5 -5t102.5 -17h2z" />
    <glyph glyph-name="ae" unicode="&#xe6;" horiz-adv-x="1428" 
d="M1256 337v0q18 -9 33 -24q42 -43 38 -99q0 -9 -1 -15q-12 -55 -59.5 -102t-104.5 -73q-72 -30 -158 -30q-26 0 -54 1q-139 11 -229 85l-30 -17l-12 -7l-2 -1q-93 -58 -229 -61h-3h-4h-6h-9q-182 3 -270 91q-76 77 -76 214q0 185 145 255q12 6 26 11q77 29 188 29
q84 0 169 -13h2v99q0 23 3 45q-9 44 -41 73q-3 3 -6 5q-1 1 -2 1l-2 2l-3 3q-7 5 -14 9q-70 39 -149 17q-53 -14 -82 -42l-2 -2q-26 -24 -26 -60q0 -18 7 -34l4 -8l-9 -3q-49 -15 -93 5q-18 9 -33 24q-39 40 -38 92v5l1 8v4t1 4q3 19 14 41l1 2q26 47 68.5 81.5t80.5 50.5
q70 29 158 30q10 1 18 1q6 -1 12 -1h4h11l12 -1q50 -3 95 -19q78 -24 128 -76q103 81 268 81q175 0 268 -91q83 -85 84 -231q-2 -294 -355 -294q-85 0 -168 13v-102q5 -42 24.5 -66.5t41.5 -35.5q72 -36 165 -15q81 22 94 66q6 24 -13 50l-9 12l14 6q64 30 114 7zM991 841v0
q-158 0 -167 -145v-5v-7v-68q1 -5 1 -12v-2q47 -9 95 -12.5t73 -3.5q157 0 143 114q0 72 -34 106q-35 35 -111 35zM580 218v0q22 24 30 57q1 5 2 7q-2 42 -2 56v67q-51 11 -99 16t-71 5q-47 0 -80 -13q-1 -1 -3 -1q-6 -2 -10 -5q-65 -34 -65 -111q0 -66 29.5 -92t81.5 -35h2
q11 -2 22 -3q12 -1 24 -1q86 0 133 47l4 4z" />
    <glyph glyph-name="agrave" unicode="&#xe0;" horiz-adv-x="922" 
d="M504 1041v0h-12h-11h-4q-6 0 -12 1h-18q-88 -1 -158 -31q-38 -16 -80.5 -50.5t-68.5 -81.5l-1 -2q-11 -21 -14 -41q-1 -2 -1 -4v-3l-1 -9v-5q-1 -51 38 -91q15 -15 33 -24q44 -21 93 -5l9 2l-4 8q-7 17 -7 34q0 36 26 60l2 2q29 29 82 43q79 21 149 -18q7 -4 14 -9l3 -3
q1 0 2 -1l2 -2q3 -2 6 -5q44 -40 44 -105v-112l-8 1q-85 13 -169 13q-111 0 -188 -29q-14 -5 -26 -11q-145 -70 -145 -255q0 -138 76 -215q88 -88 270 -91h9h6h4h3q136 4 229 62l2 1l1 -2q22 -27 48 -41q21 -11 47 -13q52 3 78 26.5t35 52.5t9 50l1 9l-9 -1q-20 -1 -35 9
q-19 12 -26 41l-1 1q-1 5 -2 14v13v389v12v68q0 40 -9 79q-10 43 -24 72l-10 21q-54 117 -182 156q-45 16 -95 20zM615 310v0q0 -8 -0.5 -11t-1.5 -5v-1q-2 -2 -4 -9q-8 -34 -30 -58l-2 -2l-4 -4q-47 -46 -133 -46q-12 0 -24 1q-11 1 -22 3h-2q-52 8 -81.5 34t-29.5 92
q0 78 65 111q4 3 10 5q2 1 3 1q33 13 80 13q24 0 73.5 -5t102.5 -17h2zM531 1399v0q38 -23 54.5 -65.5t-5.5 -85.5q-25 -40 -68.5 -49.5t-88.5 14.5l-155 104q-44 26 -57 69t9 84q26 41 71 48t85 -15z" />
    <glyph glyph-name="aring" unicode="&#xe5;" horiz-adv-x="977" 
d="M504 1041v0h-12h-11h-4q-6 0 -12 1h-18q-88 -1 -158 -31q-38 -16 -80.5 -50.5t-68.5 -81.5l-1 -2q-11 -21 -14 -41q-1 -2 -1 -4v-3l-1 -9v-5q-1 -51 38 -91q15 -15 33 -24q44 -21 93 -5l9 2l-4 8q-7 17 -7 34q0 36 26 60l2 2q29 29 82 43q79 21 149 -18q7 -4 14 -9l3 -3
q1 0 2 -1l2 -2q3 -2 6 -5q44 -40 44 -105v-112l-8 1q-85 13 -169 13q-111 0 -188 -29q-14 -5 -26 -11q-145 -70 -145 -255q0 -138 76 -215q88 -88 270 -91h9h6h4h3q136 4 229 62l2 1l1 -2q22 -27 48 -41q21 -11 47 -13q52 3 78 26.5t35 52.5t9 50l1 9l-9 -1q-20 -1 -35 9
q-19 12 -26 41l-1 1q-1 5 -2 14v13v389v12v68q0 40 -9 79q-10 43 -24 72l-10 21q-54 117 -182 156q-45 16 -95 20zM615 310v0q0 -8 -0.5 -11t-1.5 -5v-1q-2 -2 -4 -9q-8 -34 -30 -58l-2 -2l-4 -4q-47 -46 -133 -46q-12 0 -24 1q-11 1 -22 3h-2q-52 8 -81.5 34t-29.5 92
q0 78 65 111q4 3 10 5q2 1 3 1q33 13 80 13q24 0 73.5 -5t102.5 -17h2zM470 1376q-31 0 -53 -22t-22 -53q0 -32 22 -53.5t53 -21.5q32 0 53.5 21.5t21.5 53.5q0 31 -22 53t-53 22zM471 1501q82 0 140.5 -58.5t58.5 -141.5q0 -82 -59 -141t-142 -59q-84 0 -141.5 58.5
t-57.5 141.5t58.5 141.5t142.5 58.5z" />
    <glyph glyph-name="asciicircum" unicode="^" horiz-adv-x="898" 
d="M789 845v0l23 -62q6 -26 3 -50q-5 -51 -48 -87l-4 -3q-12 -10 -23 -16q-74 -36 -144 5l-39 26l36 29q4 3 8 7q14 15 8 36q-1 5 -3 10v2l-6 13q-3 6 -28.5 64.5l-59.5 136l-62 139.5l-160 -365q-6 -24 8 -38q4 -4 8 -7l36 -30l-39 -25q-36 -22 -76 -22q-35 0 -68 17
q-12 6 -24 16l-3 3q-43 36 -48 87q-4 32 8 69q2 9 7 18l247 541q11 28 32.5 54t71.5 26t71.5 -26t33.5 -55l233 -512v-1h1z" />
    <glyph glyph-name="atilde" unicode="&#xe3;" horiz-adv-x="922" 
d="M504 1041v0h-12h-11h-4q-6 0 -12 1h-18q-88 -1 -158 -31q-38 -16 -80.5 -50.5t-68.5 -81.5l-1 -2q-11 -21 -14 -41q-1 -2 -1 -4v-3l-1 -9v-5q-1 -51 38 -91q15 -15 33 -24q44 -21 93 -5l9 2l-4 8q-7 17 -7 34q0 36 26 60l2 2q29 29 82 43q79 21 149 -18q7 -4 14 -9l3 -3
q1 0 2 -1l2 -2q3 -2 6 -5q44 -40 44 -105v-112l-8 1q-85 13 -169 13q-111 0 -188 -29q-14 -5 -26 -11q-145 -70 -145 -255q0 -138 76 -215q88 -88 270 -91h9h6h4h3q136 4 229 62l2 1l1 -2q22 -27 48 -41q21 -11 47 -13q52 3 78 26.5t35 52.5t9 50l1 9l-9 -1q-20 -1 -35 9
q-19 12 -26 41l-1 1q-1 5 -2 14v13v389v12v68q0 40 -9 79q-10 43 -24 72l-10 21q-54 117 -182 156q-45 16 -95 20zM615 310v0q0 -8 -0.5 -11t-1.5 -5v-1q-2 -2 -4 -9q-8 -34 -30 -58l-2 -2l-4 -4q-47 -46 -133 -46q-12 0 -24 1q-11 1 -22 3h-2q-52 8 -81.5 34t-29.5 92
q0 78 65 111q4 3 10 5q2 1 3 1q33 13 80 13q24 0 73.5 -5t102.5 -17h2zM686 1286q0 -32 -22.5 -54.5t-55.5 -34.5t-64 -12q-41 0 -71.5 11.5t-56.5 24.5q-28 14 -54 21q-19 4 -30.5 1t-21.5 -9q-8 -5 -19.5 -9t-29.5 -4q-25 0 -47 7.5t-27 34.5q-18 63 34.5 101.5
t106.5 38.5q39 0 67.5 -11t51.5 -24q17 -9 33 -15.5t32 -6.5q18 0 28 1.5t18 4.5q8 2 19 4t31 2q30 0 54 -20.5t24 -51.5z" />
    <glyph glyph-name="bracketleft" unicode="[" horiz-adv-x="552" 
d="M100 1387q1 19 2 35q5 64 37 109q39 52 111 61q20 3 38 2q43 0 89.5 -24.5t74.5 -78.5q-97 -8 -108 -100v-4l1 -1395q10 -92 107 -99q-28 -55 -74.5 -79t-89.5 -25q-18 0 -37 2q-7 1 -12 2v0l-7 2q-60 13 -93 58q-32 45 -37 108q0 14 -0.5 226t-0.5 489.5t-0.5 494
l-0.5 216.5v0z" />
    <glyph glyph-name="bracketright" unicode="]" horiz-adv-x="552" 
d="M452 1387v0v-216.5t-0.5 -494t-0.5 -489.5t-1 -226q-4 -63 -36 -108q-33 -45 -93 -58l-7 -2v0q-5 -1 -12 -2q-20 -2 -38 -2q-42 1 -89 25t-75 79q98 7 108 99l1 1395q0 2 -1 4q-10 92 -108 100q28 54 75 78.5t89 24.5q18 1 39 -2q72 -9 111 -61q32 -45 36 -109
q2 -16 2 -35z" />
    <glyph glyph-name="ccedilla" unicode="&#xe7;" horiz-adv-x="905" 
d="M605 10l38 -57q20 -37 12 -73.5t-41 -56.5q-36 -19 -71.5 -5.5t-54.5 45.5l-86 129q-3 5 -5 11q-149 16 -224 106q-93 109 -93 266v287q0 158 92.5 266.5t294.5 108.5q13 0 29 -1q44 2 83 -5q21 -4 44 -12q72 -25 126 -82l1 -2q15 -18 22 -36q1 -4 3 -7l2 -7v-2
q1 -2 1 -3q12 -49 -18 -95q-11 -17 -27 -29q-32 -24 -74 -24h-14l-9 1l2 9q3 17 0 33q-8 32 -33 49l-1 1q-1 1 -3 2l-2 1q-33 21 -87 23h-1q-1 0 -2 1h-9.5t-10 0.5t-6.5 0.5q-202 0 -187 -191v-287q0 -180 187 -192h7h10t9 1h3q54 2 87 23l2 1q2 1 3 2q0 1 1 1q25 17 33 49
q3 16 0 33l-2 9l9 1h14q42 0 74 -24q16 -12 27 -29q30 -45 18 -95q0 -1 -1 -3v-1l-2 -8q-2 -3 -3 -7q-7 -17 -22 -36l-1 -2q-51 -54 -119 -79q-2 -1 -3 -1l-4 -2z" />
    <glyph glyph-name="cent" unicode="&#xa2;" horiz-adv-x="1139" 
 />
    <glyph glyph-name="eacute" unicode="&#xe9;" horiz-adv-x="909" 
d="M268 1399l155 104q39 22 84.5 15t71.5 -48q22 -41 8.5 -84t-56.5 -69l-155 -104q-45 -24 -89 -14.5t-68 49.5q-22 43 -5.5 85.5t54.5 65.5v0zM736 350v0q19 -10 34 -25q42 -43 39 -100q-1 -9 -2 -15q-12 -56 -60.5 -104t-105.5 -74q-74 -31 -161 -31q-26 0 -54 1
q-254 23 -333 230q-9 31 -11 68t-2 51v347q35 344 393 344q177 0 271 -93q85 -86 86 -235q-2 -298 -361 -298q-86 0 -172 13v-86q0 -52 22 -80.5t47 -40.5q72 -37 167 -15q83 22 96 67q6 24 -13 50l-10 13l14 6q66 30 116 7zM297 619v0q48 -9 97.5 -12.5t74.5 -3.5
q159 0 146 115q0 73 -36 108q-35 36 -112 36q-162 0 -170 -150v-93z" />
    <glyph glyph-name="ecircumflex" unicode="&#xea;" horiz-adv-x="909" 
d="M507 1283l-129 -86q-32 -18 -69.5 -12.5t-59.5 39.5q-18 34 -7 69.5t47 57.5l129 86q37 21 73 12.5t57 -41.5q18 -35 4.5 -70.5t-45.5 -54.5v0zM436 1278v0q-32 20 -45.5 55t4.5 71q20 33 56.5 41t73.5 -12l129 -86q36 -22 47 -57.5t-7 -69.5q-22 -34 -59.5 -40t-69.5 13
zM736 350v0q19 -10 34 -25q42 -43 39 -100q-1 -9 -2 -15q-12 -56 -60.5 -104t-105.5 -74q-74 -31 -161 -31q-26 0 -54 1q-254 23 -333 230q-9 31 -11 68t-2 51v347q35 344 393 344q177 0 271 -93q85 -86 86 -235q-2 -298 -361 -298q-86 0 -172 13v-86q0 -52 22 -80.5
t47 -40.5q72 -37 167 -15q83 22 96 67q6 24 -13 50l-10 13l14 6q66 30 116 7zM297 619v0q48 -9 97.5 -12.5t74.5 -3.5q159 0 146 115q0 73 -36 108q-35 36 -112 36q-162 0 -170 -150v-93z" />
    <glyph glyph-name="edieresis" unicode="&#xeb;" horiz-adv-x="909" 
d="M736 350v0q19 -10 34 -25q42 -43 39 -100q-1 -9 -2 -15q-12 -56 -60.5 -104t-105.5 -74q-74 -31 -161 -31q-26 0 -54 1q-254 23 -333 230q-9 31 -11 68t-2 51v347q35 344 393 344q177 0 271 -93q85 -86 86 -235q-2 -298 -361 -298q-86 0 -172 13v-86q0 -52 22 -80.5
t47 -40.5q72 -37 167 -15q83 22 96 67q6 24 -13 50l-10 13l14 6q66 30 116 7zM297 619v0q48 -9 97.5 -12.5t74.5 -3.5q159 0 146 115q0 73 -36 108q-35 36 -112 36q-162 0 -170 -150v-93zM294 1132v0q-50 0 -86.5 33.5t-36.5 79.5q0 47 36 79.5t87 32.5q50 0 86.5 -33
t36.5 -79t-36.5 -79.5t-86.5 -33.5zM622 1136v0q-49 0 -85.5 34t-36.5 80t36 79t86 33q51 0 87.5 -33.5t36.5 -78.5q0 -46 -36.5 -80t-87.5 -34z" />
    <glyph glyph-name="egrave" unicode="&#xe8;" horiz-adv-x="909" 
d="M531 1399v0q38 -23 54.5 -65.5t-5.5 -85.5q-25 -40 -68.5 -49.5t-88.5 14.5l-155 104q-44 26 -57 69t9 84q26 41 71 48t85 -15zM736 350v0q19 -10 34 -25q42 -43 39 -100q-1 -9 -2 -15q-12 -56 -60.5 -104t-105.5 -74q-74 -31 -161 -31q-26 0 -54 1q-254 23 -333 230
q-9 31 -11 68t-2 51v347q35 344 393 344q177 0 271 -93q85 -86 86 -235q-2 -298 -361 -298q-86 0 -172 13v-86q0 -52 22 -80.5t47 -40.5q72 -37 167 -15q83 22 96 67q6 24 -13 50l-10 13l14 6q66 30 116 7zM297 619v0q48 -9 97.5 -12.5t74.5 -3.5q159 0 146 115
q0 73 -36 108q-35 36 -112 36q-162 0 -170 -150v-93z" />
    <glyph glyph-name="eth" unicode="&#xf0;" horiz-adv-x="2162" 
 />
    <glyph glyph-name="exclamdown" unicode="&#xa1;" horiz-adv-x="581" 
d="M348 738v0q-62 0 -107 41.5t-45 97.5q0 57 45 99t107 42q63 0 108 -41.5t45 -99.5q0 -57 -45 -98t-108 -41zM82 -405v0q-1 1 -1 3q-1 1 -1 2q12 2 23 6q2 1 3 1q71 18 89 136v189l8 443q0 22 3 46q5 69 39 118q40 59 108 65q21 3 41 2q39 1 76 -16q-26 -44 -36.5 -103
t-11.5 -100v-38l18 -467v-142v-11l-1 -16q0 -8 -1 -18q-5 -70 -39 -119q-52 -71 -158 -68q-34 1 -72 15.5t-68 47.5q-1 1 -2 3q-5 4 -10 10t-7 11z" />
    <glyph glyph-name="germandbls" unicode="&#xdf;" horiz-adv-x="1251" 
 />
    <glyph glyph-name="iacute" unicode="&#xed;" horiz-adv-x="514" 
d="M79 917q18 56 60 83.5t88 29.5q85 2 127 -57q27 -38 31 -92q2 -16 2 -32v-58v0v-502v-117v0v-1q4 -41 26.5 -55t63.5 -13q-18 -56 -60 -84t-88 -29q-16 0 -31 2q-62 8 -96 54q-27 39 -31 93q-2 16 -2 32v85v535v0v56q-4 42 -26 56t-64 14v0zM101 1333l143 95
q36 20 77.5 14t65.5 -44q21 -38 8.5 -77.5t-52.5 -63.5l-143 -95q-41 -23 -81.5 -14t-62.5 46q-21 39 -5.5 78.5t50.5 60.5v0z" />
    <glyph glyph-name="icircumflex" unicode="&#xee;" horiz-adv-x="624" 
d="M146 917q18 56 60 83.5t88 29.5q85 2 127 -57q27 -38 31 -92q2 -16 2 -32v-58v0v-502v-117v0v-1q4 -41 26.5 -55t63.5 -13q-18 -56 -60 -84t-88 -29q-16 0 -31 2q-62 8 -96 54q-27 39 -31 93q-2 16 -2 32v85v535v0v56q-4 42 -26 56t-64 14v0zM335 1271l-119 -80
q-30 -16 -64.5 -11t-54.5 37q-17 31 -6.5 64t43.5 53l119 79q34 19 67.5 11.5t52.5 -37.5q17 -33 4.5 -66t-42.5 -50v0zM270 1267v0q-30 17 -42.5 50t4.5 66q19 30 52.5 37.5t67.5 -11.5l119 -79q33 -20 43.5 -53t-6.5 -64q-20 -31 -55 -36.5t-65 10.5z" />
    <glyph glyph-name="idieresis" unicode="&#xef;" horiz-adv-x="735" 
d="M191 917q18 56 60 83.5t88 29.5q85 2 127 -57q27 -38 31 -92q2 -16 2 -32v-58v0v-502v-117v0v-1q4 -41 26.5 -55t63.5 -13q-18 -56 -60 -84t-88 -29q-16 0 -31 2q-62 8 -96 54q-27 39 -31 93q-2 16 -2 32v85v535v0v56q-4 42 -26 56t-64 14v0zM203 1152v0
q-50 0 -86.5 33.5t-36.5 79.5q0 47 36 79.5t87 32.5q50 0 86.5 -33t36.5 -79t-36.5 -79.5t-86.5 -33.5zM531 1156v0q-49 0 -85.5 34t-36.5 80t36 79t86 33q51 0 87.5 -33.5t36.5 -78.5q0 -46 -36.5 -80t-87.5 -34z" />
    <glyph glyph-name="igrave" unicode="&#xec;" horiz-adv-x="514" 
d="M79 917q18 56 60 83.5t88 29.5q85 2 127 -57q27 -38 31 -92q2 -16 2 -32v-58v0v-502v-117v0v-1q4 -41 26.5 -55t63.5 -13q-18 -56 -60 -84t-88 -29q-16 0 -31 2q-62 8 -96 54q-27 39 -31 93q-2 16 -2 32v85v535v0v56q-4 42 -26 56t-64 14v0zM343 1333v0
q35 -21 50.5 -60.5t-5.5 -78.5q-23 -37 -63 -46t-81 14l-143 95q-40 24 -52.5 63.5t8.5 77.5q24 38 65.5 44t77.5 -14z" />
    <glyph glyph-name="macron" unicode="&#xaf;" horiz-adv-x="670" 
 />
    <glyph glyph-name="mu" unicode="&#xb5;" horiz-adv-x="1180" 
 />
    <glyph glyph-name="ntilde" unicode="&#xf1;" 
d="M696 1286q0 -32 -22.5 -54.5t-55.5 -34.5t-64 -12q-41 0 -71.5 11.5t-56.5 24.5q-28 14 -54 21q-19 4 -30.5 1t-21.5 -9q-8 -5 -19.5 -9t-29.5 -4q-25 0 -47 7.5t-27 34.5q-18 63 34.5 101.5t106.5 38.5q39 0 67.5 -11t51.5 -24q17 -9 33 -15.5t32 -6.5q18 0 28 1.5
t18 4.5q8 2 19 4t31 2q30 0 54 -20.5t24 -51.5zM932 157v0v-5v-1q1 -9 0 -17q-1 -51 -35.5 -92.5t-113.5 -41.5h-4q-16 0 -30 2q-65 8 -102 60l-10 14l16 5q16 5 30.5 18.5t22.5 45.5q3 14 4 29q1 8 1 15v11t0.5 22.5t0.5 22v9.5v371q0 102 -49 152q-40 39 -108 39
q-75 0 -180 -65v-25v-9l1 -567v-15q-2 -51 -36.5 -92.5t-113.5 -41.5h-3q-16 0 -31 2q-64 8 -101 59l-10 14l16 5q16 5 31.5 18.5t21.5 45.5l1 5q4 16 3 31v664q-1 10 -4 23q-17 52 -57 68l-13 5l6 13q34 73 107 84q14 1 31 2v0q41 0 69 -20t49 -46q117 66 241 66
q157 0 248 -91q103 -106 103 -296z" />
    <glyph glyph-name="uni2116" unicode="&#x2116;" horiz-adv-x="2271" 
 />
    <glyph glyph-name="oacute" unicode="&#xf3;" horiz-adv-x="1010" 
d="M80 359v0q0 -152 102.5 -257.5t300.5 -105.5t300.5 105.5t102.5 257.5v316q0 154 -102.5 258.5t-300.5 104.5t-300.5 -104.5t-102.5 -258.5v-316zM670 372v0q0 -162 -188 -174q-186 0 -188 174v293q0 159 188 172q186 0 188 -172v-293zM329 1317l143 95q36 20 77.5 14
t65.5 -44q21 -38 8.5 -77.5t-52.5 -63.5l-143 -95q-41 -23 -81.5 -14t-62.5 46q-21 39 -5.5 78.5t50.5 60.5v0z" />
    <glyph glyph-name="ocircumflex" unicode="&#xf4;" horiz-adv-x="966" 
d="M80 359v0q0 -152 102.5 -257.5t300.5 -105.5t300.5 105.5t102.5 257.5v316q0 154 -102.5 258.5t-300.5 104.5t-300.5 -104.5t-102.5 -258.5v-316zM670 372v0q0 -162 -188 -174q-186 0 -188 174v293q0 159 188 172q186 0 188 -172v-293zM523 1276l-119 -80
q-30 -16 -64.5 -11t-54.5 37q-17 31 -6.5 64t43.5 53l119 79q34 19 67.5 11.5t52.5 -37.5q17 -33 4.5 -66t-42.5 -50v0zM458 1272v0q-30 17 -42.5 50t4.5 66q19 30 52.5 37.5t67.5 -11.5l119 -79q33 -20 43.5 -53t-6.5 -64q-20 -31 -55 -36.5t-65 10.5z" />
    <glyph glyph-name="odieresis" unicode="&#xf6;" horiz-adv-x="966" 
d="M315 1188v0q-50 0 -86.5 33.5t-36.5 79.5q0 47 36 79.5t87 32.5q50 0 86.5 -33t36.5 -79t-36.5 -79.5t-86.5 -33.5zM643 1192v0q-49 0 -85.5 34t-36.5 80t36 79t86 33q51 0 87.5 -33.5t36.5 -78.5q0 -46 -36.5 -80t-87.5 -34zM80 359v0q0 -152 102.5 -257.5t300.5 -105.5
t300.5 105.5t102.5 257.5v316q0 154 -102.5 258.5t-300.5 104.5t-300.5 -104.5t-102.5 -258.5v-316zM670 372v0q0 -162 -188 -174q-186 0 -188 174v293q0 159 188 172q186 0 188 -172v-293z" />
    <glyph glyph-name="ograve" unicode="&#xf2;" horiz-adv-x="1010" 
d="M80 359v0q0 -152 102.5 -257.5t300.5 -105.5t300.5 105.5t102.5 257.5v316q0 154 -102.5 258.5t-300.5 104.5t-300.5 -104.5t-102.5 -258.5v-316zM670 372v0q0 -162 -188 -174q-186 0 -188 174v293q0 159 188 172q186 0 188 -172v-293zM571 1317v0q35 -21 50.5 -60.5
t-5.5 -78.5q-23 -37 -63 -46t-81 14l-143 95q-40 24 -52.5 63.5t8.5 77.5q24 38 65.5 44t77.5 -14z" />
    <glyph glyph-name="onehalf" unicode="&#xbd;" horiz-adv-x="1964" 
 />
    <glyph glyph-name="onequarter" unicode="&#xbc;" horiz-adv-x="1708" 
 />
    <glyph glyph-name="uni00B9" unicode="&#xb9;" 
 />
    <glyph glyph-name="ordfeminine" unicode="&#xaa;" horiz-adv-x="648" 
 />
    <glyph glyph-name="ordmasculine" unicode="&#xba;" horiz-adv-x="718" 
 />
    <glyph glyph-name="oslash" unicode="&#xf8;" horiz-adv-x="2164" 
d="M180 444v0q5 0 9 3q4 4 4.5 9t-3.5 9q-36 44 -81 52q-5 1 -9.5 -2t-5.5 -8q-1 -6 2 -10t9 -5q35 -6 66 -43q4 -5 9 -5zM1877 492v0q6 0 9.5 3.5t3.5 8.5q0 6 -3.5 9.5t-9.5 3.5h-35q-6 0 -9.5 -3.5t-3.5 -9.5q0 -5 3.5 -8.5t9.5 -3.5h35zM1455 1307v0q3 0 5 1q5 2 7 7
t0 10t-5 10q-3 4 -8 5.5t-10 -1.5q-5 -2 -6 -7t1 -10q3 -4 4 -8q5 -7 12 -7zM1369 1174v0q45 0 76 31.5t31 75.5q0 5 -3.5 9t-9.5 4q-5 0 -9 -4t-4 -9q0 -33 -23.5 -57t-57.5 -24q-33 0 -57 24t-24 57q0 34 24 57.5t57 23.5q30 0 54 -20q4 -4 9 -3.5t9 4.5t3.5 9.5t-4.5 8.5
q-32 27 -71 27q-44 0 -75 -31.5t-31 -75.5t31 -75.5t75 -31.5zM621 918v0q8 1 12 8l8.5 19.5t11.5 23.5t7 15h1q59 120 131.5 211.5t171.5 91.5v0q99 -4 166 -99t124 -235q2 -5 7 -7t10 0t7 7t0 10q-60 147 -131.5 246.5t-182.5 103.5v0q-110 0 -187 -96t-139 -221l-1 -1
l-7.5 -15.5l-11.5 -24t-9 -19.5q-2 -5 0 -10t7 -7q2 -1 5 -1zM1294 880v0q2 0 5 1q5 3 7 7.5t0 9.5l-12 28q-2 5 -7 6.5t-10 -0.5t-7 -7t0 -10l12 -27q4 -8 12 -8zM256 492v0h121h7h2q5 1 8.5 4.5t2.5 9.5q0 5 -3.5 8.5t-8.5 3.5v0h-123h-4v0q-1 -1 -2 -1v0q-5 0 -9 -3.5
t-4 -9.5q0 -5 4 -8.5t9 -3.5v0zM1482 582v0q6 0 10 4q4 5 3.5 10t-5.5 9l-20 16q-86 89 -142 227q36 74 82.5 125.5t116.5 53.5h1q72 0 119 -59.5t91 -144.5l8 -14q10 -19 21 -37q2 -5 7 -6t10 1q5 3 6.5 8t-1.5 10l-21 36l-8 15q-44 87 -96 152t-136 65h-1
q-82 -3 -133.5 -60t-91.5 -138q-3 -6 0 -11q58 -146 151 -243l21 -17q4 -2 8 -2zM1163 615v0q4 0 8 2q89 86 149 217l5 9l-12 6l12 6q-4 7 -12 7q-7 0 -11 -7l-5 -9q-58 -128 -142 -208q-4 -4 -4.5 -9t2.5 -10q4 -4 10 -4zM385 492v0h1q54 7 93.5 58t72.5 115
q33 61 69.5 109t83.5 51h1q48 0 85 -37t71 -86q36 -51 77.5 -92t100.5 -41v0q72 0 131 48q4 4 4.5 9t-2.5 10q-4 4 -9 4.5t-9 -2.5q-52 -43 -115 -43v0q-49 0 -85.5 37t-71.5 86q-36 51 -77.5 92t-99.5 41h-1q-58 -3 -99.5 -55t-75.5 -119q-32 -59 -67 -106t-80 -53
q-5 -1 -8.5 -5t-2.5 -9q0 -5 4 -8.5t9 -3.5zM1340 560v0q49 0 93 21q5 2 7 7t-1 10q-2 5 -7 7t-10 -1q-39 -18 -82 -18v0q-68 0 -124 26q-5 2 -9.5 0t-7.5 -7q-2 -5 0 -9.5t7 -7.5q61 -28 134 -28v0zM1916 491v0h90.5t51.5 1h2q7 -1 13 4t8 13q3 8 -1 15.5t-15 12.5
q-64 39 -116 116q-57 85 -135 127q-16 7 -34 11q-17 4 -36 4v0q-69 0 -118.5 -33t-92.5 -75l-49 -43q-5 -4 -5.5 -9t3.5 -9q3 -5 8 -5.5t10 3.5q26 21 51 44q42 40 87 70.5t106 30.5v0q16 0 31 -3t29 -9q70 -38 124 -120q52 -76 118 -120h-130q-5 0 -9 -4t-4 -9t4 -9t9 -4z
M480 29v0v0q78 3 121 62.5t74 136.5q30 73 67 126.5t101 57.5q2 -1 3 -1v0v0q40 0 70.5 -30t59.5 -71q30 -42 65.5 -76.5t84.5 -34.5v0q49 3 84 49t64 105q25 50 53 90.5t62 48.5h5v0h1q2 -1 4 0v0h9h381q5 0 9 3.5t4 8.5q0 6 -4 9.5t-9 3.5h-179.5h-147h-63.5h-1h-1l-1 1
q-5 0 -11 -1q-44 -10 -75.5 -54t-58.5 -98t-57 -96t-68 -44v0q-40 0 -70 30.5t-60 70.5q-29 42 -64 75t-82 36q-2 1 -4 1v0q-77 -4 -120.5 -63.5t-74.5 -135.5q-30 -74 -68 -128t-103 -56v0q-67 0 -107.5 67t-75.5 157q-34 85 -76 154q-3 5 -8 6t-10 -2t-6 -8.5t2 -9.5
q41 -66 74 -150q35 -93 81.5 -166.5t125.5 -73.5zM256 492v0h5h1h1h123q54 7 93.5 58t72.5 115q33 61 69.5 109t83.5 51h1q48 0 85 -37t71 -86q36 -51 77.5 -92t100.5 -41v0q72 0 131 48q5 5 5 11t-6 10q-82 64 -144 153q-58 83 -134 147.5t-200 67.5v0q-5 0 -9 -3.5
t-4 -8.5q0 -6 4 -9.5t9 -3.5q114 -4 185 -64t129 -142q59 -83 135 -148q-46 -32 -101 -32v0q-49 0 -85.5 37t-71.5 86q-36 51 -77.5 92t-99.5 41h-1q-58 -3 -99.5 -55t-75.5 -119q-32 -59 -67 -106t-78 -53h-123h-4h-1q0 -1 -1 -1h-147l-1.5 1.5t-0.5 1.5t0.5 2t0.5 2
q96 38 161.5 105.5t119.5 142.5q89 137 211 193l4 2q5 1 7 6t1 10q-2 5 -6.5 7.5t-10.5 0.5l-3 -1q-133 -61 -224 -203q-52 -73 -115.5 -138t-154.5 -101q-7 -3 -11.5 -10t-5.5 -16q-1 -19 17 -28q3 -2 7 -2h151v0zM1505 491v0q5 0 9 4t4 9t-4 9t-9 4h-434q-5 0 -9 -4t-4 -9
t4 -9t9 -4h434zM1023 491v0q5 0 9 4t4 9t-4 9t-9 4h-34q-5 0 -9 -4t-4 -9t4 -9t9 -4h34zM932 491v0q6 0 9.5 4t3.5 9t-3.5 9t-9.5 4h-69q-6 0 -9.5 -4t-3.5 -9t3.5 -9t9.5 -4h69zM745 491v0q5 0 8.5 4t3.5 9t-3.5 9t-8.5 4h-30q-5 0 -9 -4t-4 -9t4 -9t9 -4h30zM668 491v0
q5 0 9 4t4 9t-4 9t-9 4h-160q-5 0 -9 -4t-4 -9t4 -9t9 -4h160z" />
    <glyph glyph-name="otilde" unicode="&#xf5;" horiz-adv-x="1010" 
d="M80 359v0q0 -152 102.5 -257.5t300.5 -105.5t300.5 105.5t102.5 257.5v316q0 154 -102.5 258.5t-300.5 104.5t-300.5 -104.5t-102.5 -258.5v-316zM670 372v0q0 -162 -188 -174q-186 0 -188 174v293q0 159 188 172q186 0 188 -172v-293zM741 1316q0 -32 -22.5 -54.5
t-55.5 -34.5t-64 -12q-41 0 -71.5 11.5t-56.5 24.5q-28 14 -54 21q-19 4 -30.5 1t-21.5 -9q-8 -5 -19.5 -9t-29.5 -4q-25 0 -47 7.5t-27 34.5q-18 63 34.5 101.5t106.5 38.5q39 0 67.5 -11t51.5 -24q17 -9 33 -15.5t32 -6.5q18 0 28 1.5t18 4.5q8 2 19 4t31 2q30 0 54 -20.5
t24 -51.5z" />
    <glyph glyph-name="plusminus" unicode="&#xb1;" 
d="M740 377v0q36 0 69.5 -26.5t33.5 -68.5q0 -40 -30 -67.5t-73 -27.5h-503q-44 0 -74 27.5t-30 67.5q0 42 33.5 68.5t70.5 26.5h503zM202 736v0q-41 0 -69 27t-28 65q0 41 31 66t66 25h197v216q0 38 29 65t68 27q42 0 70 -26.5t28 -65.5v-216h196q36 0 67 -25t31 -66
q0 -38 -28 -65t-70 -27h-196v-216q0 -38 -28 -64t-70 -26q-39 0 -68 26.5t-29 63.5v216h-197z" />
    <glyph glyph-name="questiondown" unicode="&#xbf;" horiz-adv-x="748" 
 />
    <glyph glyph-name="thorn" unicode="&#xfe;" horiz-adv-x="2162" 
d="M1024 828v0q-59 86 -135.5 153.5t-201.5 71.5q-13 0 -28 -1q61 119 134 200.5t169 84.5q115 -6 187.5 -117.5t131.5 -258.5l21 -50q-2 -5 -2 -6l-30 -60v-1q-45 -105 -107 -171q-77 63 -139 155zM1338 920v0q34 65 80.5 108.5t113.5 45.5q78 -3 129 -65t96 -149l8 -14
q1 -3 3 -5q1 -2 2 -3q-9 0 -18 1h-1q-66 0 -114 -35t-91 -79q-29 -29 -58 -53l-1 -1q-2 -1 -3 -2t-2 -1q-41 42 -77.5 112t-66.5 140zM2072 552v0q8 -3 9 -8t-2 -9t-7 -4h-682v0h-1h-318q-6 0 -9.5 -4t-3.5 -9q0 -6 3.5 -9.5t9.5 -3.5h272q-43 -47 -79 -122
q-28 -58 -61 -102t-77 -46q-44 1 -78 29t-64 65t-63.5 65t-77.5 30v0q-72 -3 -113.5 -56.5t-72.5 -124.5q-30 -70 -71.5 -124t-113.5 -57q-72 4 -117 73.5t-81 160.5q-49 137 -124 209h95h122h7h2v0q34 4 61 26v1h1q61 58 107 155q33 65 70 115.5t85 53.5v0q50 0 87 -37.5
t72 -86.5q36 -52 78.5 -93.5t101.5 -41.5v0q73 0 133 49v0q1 0 2 1q0 1 1 1q71 72 118 185l23 46q1 2 2 5q2 3 4 7q59 -144 139 -239q-3 -2 -5 -3q-14 -9 -30 -17q-41 -19 -83 -19q-69 1 -125 27q-5 2 -10 0t-8 -6v-1v0q-2 -5 0 -10t7 -7q62 -29 136 -29v0q49 0 94 21
q38 18 66 43l1 1q32 26 61 55q38 39 78.5 68.5t91.5 35.5q8 1 16 1h1v0h3h2h1q5 0 10 -1q8 0 15 -2h1v0h1h1v0v0q17 -4 32 -10q74 -40 131 -126q54 -80 123 -121zM662 505v0q6 0 9.5 3.5t3.5 9.5q0 5 -3.5 9t-9.5 4h-161q-6 0 -10 -4t-4 -9q0 -6 4 -9.5t10 -3.5h161z
M740 505v0q5 0 9 3.5t4 9.5q0 5 -4 9t-9 4h-30q-5 0 -9 -4t-4 -9q0 -6 4 -9.5t9 -3.5h30zM930 505v0q5 0 9 3.5t4 9.5q0 5 -4 9t-9 4h-71q-5 0 -9 -4t-4 -9q0 -6 4 -9.5t9 -3.5h71zM1022 505v0q5 0 9 3.5t4 9.5q0 5 -4 9t-9 4h-34q-6 0 -9.5 -4t-3.5 -9q0 -6 3.5 -9.5
t9.5 -3.5h34zM246 531v0v0h-1h-150v0h-3v0v0v1q-9 4 -10.5 11t1.5 12.5t7 7.5q95 38 161 105t119 142q57 78 120 138.5t153 75.5v0h1v0h1q22 3 42 3v0v0q14 0 28 -1l1 -1v0q101 -12 166 -72.5t121 -140.5q60 -89 139 -156q-47 -33 -103 -33v0q-50 0 -87 37.5t-72 86.5
q-36 52 -78.5 93.5t-101.5 41.5v0q-59 -3 -101 -57.5t-77 -124.5q-31 -63 -66.5 -112.5t-81.5 -55.5v0h-122h-1q-2 0 -4 -1v0h-1zM1372 1188v0q-39 0 -67 28t-28 67q0 40 28 67.5t67 27.5q40 0 68 -27.5t28 -67.5q0 -39 -28 -67t-68 -28zM1174 663v0l-2 2v0h1q0 -1 1 -1v0
v-1z" />
    <glyph glyph-name="threequarters" unicode="&#xbe;" horiz-adv-x="1708" 
 />
    <glyph glyph-name="uni00B3" unicode="&#xb3;" 
 />
    <glyph glyph-name="trademark" unicode="&#x2122;" horiz-adv-x="1235" 
d="M277 809q-45 3 -67 44q40 3 44 41v433q0 15 -14 15l-84 -1q-36 -3 -39 -39q-37 19 -37 59q0 62 63 67h322q24 -2 40 -14q24 -16 24 -47l-1 -6q0 -40 -37 -59q-3 36 -40 40h-84q-14 0 -14 -15q0 -294 -0.5 -367t-0.5 -79q-1 -26 -15 -45.5t-41 -24.5h-2q-2 -2 -17 -2z
M1080 821q-45 1 -66 42q40 4 43 42l1 309l-132 -237q-14 -26 -47 -26q-32 0 -46 26l-132 238l1 -309q4 -39 44 -43q-21 -41 -66 -42l-16 1q-55 7 -60 69v503q0 19 14.5 31.5t36.5 12.5q36 0 51 -27l161 -299q4 -7 13 -7q8 0 13 7l162 300q12 26 49 26q22 0 36.5 -13
t14.5 -31v-503q-4 -62 -60 -69z" />
    <glyph glyph-name="uni00B2" unicode="&#xb2;" 
 />
    <glyph glyph-name="uacute" unicode="&#xfa;" horiz-adv-x="1059" 
d="M994 106v0l13 -5l-6 -12q-34 -74 -107 -84q-14 -2 -31 -2v0q-41 0 -69 20t-49 45q-117 -65 -241 -65q-157 0 -249 90q-102 106 -102 297l1 226h-1v245q1 15 -3 32l-1 5q-6 31 -21 44.5t-32 18.5l-16 6l10 14q37 50 101 58q15 2 31 3h3q79 0 113.5 -42t36.5 -93v-15v-276
v0v-199q0 -102 49 -151q40 -40 108 -40q75 0 180 65v25v9l-1 291v0v172v10v22.5t-0.5 22t-0.5 10.5q0 7 -1 16q0 14 -4 29q-7 31 -22 44.5t-31 18.5l-16 6l10 14q37 51 102 59q15 2 31 2h3q79 0 113.5 -41.5t36.5 -92.5v-17v-1q0 -4 -1 -5l1 -269h1l-1 -418q1 -11 5 -24
q17 -51 57 -68zM380 1323l143 95q36 20 77.5 14t65.5 -44q21 -38 8.5 -77.5t-52.5 -63.5l-143 -95q-41 -23 -81.5 -14t-62.5 46q-21 39 -5.5 78.5t50.5 60.5v0z" />
    <glyph glyph-name="ucircumflex" unicode="&#xfb;" horiz-adv-x="1059" 
d="M994 106v0l13 -5l-6 -12q-34 -74 -107 -84q-14 -2 -31 -2v0q-41 0 -69 20t-49 45q-117 -65 -241 -65q-157 0 -249 90q-102 106 -102 297l1 226h-1v245q1 15 -3 32l-1 5q-6 31 -21 44.5t-32 18.5l-16 6l10 14q37 50 101 58q15 2 31 3h3q79 0 113.5 -42t36.5 -93v-15v-276
v0v-199q0 -102 49 -151q40 -40 108 -40q75 0 180 65v25v9l-1 291v0v172v10v22.5t-0.5 22t-0.5 10.5q0 7 -1 16q0 14 -4 29q-7 31 -22 44.5t-31 18.5l-16 6l10 14q37 51 102 59q15 2 31 2h3q79 0 113.5 -41.5t36.5 -92.5v-17v-1q0 -4 -1 -5l1 -269h1l-1 -418q1 -11 5 -24
q17 -51 57 -68zM542 1271l-119 -80q-30 -16 -64.5 -11t-54.5 37q-17 31 -6.5 64t43.5 53l119 79q34 19 67.5 11.5t52.5 -37.5q17 -33 4.5 -66t-42.5 -50v0zM477 1267v0q-30 17 -42.5 50t4.5 66q19 30 52.5 37.5t67.5 -11.5l119 -79q33 -20 43.5 -53t-6.5 -64
q-20 -31 -55 -36.5t-65 10.5z" />
    <glyph glyph-name="udieresis" unicode="&#xfc;" horiz-adv-x="1059" 
d="M994 106v0l13 -5l-6 -12q-34 -74 -107 -84q-14 -2 -31 -2v0q-41 0 -69 20t-49 45q-117 -65 -241 -65q-157 0 -249 90q-102 106 -102 297l1 226h-1v245q1 15 -3 32l-1 5q-6 31 -21 44.5t-32 18.5l-16 6l10 14q37 50 101 58q15 2 31 3h3q79 0 113.5 -42t36.5 -93v-15v-276
v0v-199q0 -102 49 -151q40 -40 108 -40q75 0 180 65v25v9l-1 291v0v172v10v22.5t-0.5 22t-0.5 10.5q0 7 -1 16q0 14 -4 29q-7 31 -22 44.5t-31 18.5l-16 6l10 14q37 51 102 59q15 2 31 2h3q79 0 113.5 -41.5t36.5 -92.5v-17v-1q0 -4 -1 -5l1 -269h1l-1 -418q1 -11 5 -24
q17 -51 57 -68zM360 1152v0q-50 0 -86.5 33.5t-36.5 79.5q0 47 36 79.5t87 32.5q50 0 86.5 -33t36.5 -79t-36.5 -79.5t-86.5 -33.5zM688 1156v0q-49 0 -85.5 34t-36.5 80t36 79t86 33q51 0 87.5 -33.5t36.5 -78.5q0 -46 -36.5 -80t-87.5 -34z" />
    <glyph glyph-name="ugrave" unicode="&#xf9;" horiz-adv-x="1087" 
d="M994 106v0l13 -5l-6 -12q-34 -74 -107 -84q-14 -2 -31 -2v0q-41 0 -69 20t-49 45q-117 -65 -241 -65q-157 0 -249 90q-102 106 -102 297l1 226h-1v245q1 15 -3 32l-1 5q-6 31 -21 44.5t-32 18.5l-16 6l10 14q37 50 101 58q15 2 31 3h3q79 0 113.5 -42t36.5 -93v-15v-276
v0v-199q0 -102 49 -151q40 -40 108 -40q75 0 180 65v25v9l-1 291v0v172v10v22.5t-0.5 22t-0.5 10.5q0 7 -1 16q0 14 -4 29q-7 31 -22 44.5t-31 18.5l-16 6l10 14q37 51 102 59q15 2 31 2h3q79 0 113.5 -41.5t36.5 -92.5v-17v-1q0 -4 -1 -5l1 -269h1l-1 -418q1 -11 5 -24
q17 -51 57 -68zM576 1323v0q35 -21 50.5 -60.5t-5.5 -78.5q-23 -37 -63 -46t-81 14l-143 95q-40 24 -52.5 63.5t8.5 77.5q24 38 65.5 44t77.5 -14z" />
    <glyph glyph-name="uniF001" unicode="&#xf001;" horiz-adv-x="1073" 
 />
    <glyph glyph-name="uniF001" unicode="&#xfb01;" horiz-adv-x="1073" 
 />
    <glyph glyph-name="uniF002" unicode="&#xf002;" horiz-adv-x="1081" 
 />
    <glyph glyph-name="uniF002" unicode="&#xfb02;" horiz-adv-x="1081" 
 />
    <glyph glyph-name="yacute" unicode="&#xfd;" horiz-adv-x="1053" 
d="M962 927v0q10 -36 3 -76v-4q-1 -2 -1 -3v-3q-1 -4 -2 -9l-8 -27q0 -1 -1 -1v-1l-13 -42v1v0v0l-203 -623q-65 -218 -146.5 -362.5t-244.5 -175.5l-22 -4h-2v0q-21 -3 -50 -3v0v0v0v0q-13 0 -27 1q-23 2 -62.5 19.5t-68.5 62.5q-8 20 -11 43q-5 28 7 71.5t72 71.5l10 4
l3 -11q6 -31 27 -44q21 -11 38 -10q143 -4 212 241l-292 794l-1 1v0q0 2 -1 3q-2 4 -5 8v0q-30 42 -93 17q0 54 27.5 90.5t65.5 53.5q2 1 4 1q2 2 5 3q15 5 29 8h3h3q17 3 32 2q3 0 7 -1h3q32 -4 58 -23q30 -22 49 -58q0 -2 1 -4q1 -1 2 -3q0 -1 1 -2q1 -2 1 -3l1 -1l2 -4
q6 -14 10 -27v-1q1 0 1 -1l36.5 -100l82 -229.5t77.5 -229.5l46.5 146l57 176.5l48.5 150l20 61.5v5q1 1 1 3v3q1 5 1 9v0q2 51 -64 70q32 43 76.5 56t85.5 3q2 -1 4 -1q3 0 5 -1q15 -5 29 -11l2 -2t2 -1q15 -8 27 -18q29 -24 40 -59zM580 1308v0q36 -21 51 -60.5t-6 -78.5
q-22 -37 -62.5 -46t-81.5 14l-143 95q-40 24 -52 63.5t8 77.5q24 38 65.5 44t77.5 -14z" />
    <glyph glyph-name="ydieresis" unicode="&#xff;" horiz-adv-x="1042" 
d="M964 927v0q10 -36 3 -76q0 -2 -1 -4v-3q-1 -1 -1 -3q-1 -4 -2 -9q-3 -14 -8 -27v-1v-1l-14 -42v1h1v0l-204 -623q-64 -218 -145.5 -362.5t-244.5 -175.5l-22 -4h-2h-1q-21 -3 -49 -3v0v0h-1v0q-13 0 -26 1q-24 2 -63 19.5t-68 62.5q-8 20 -11 43q-5 28 7 71.5t71 71.5
l11 4l2 -11q7 -31 28 -44q21 -11 38 -10q143 -4 211 241l-291 794q-1 0 -1 1v0q-1 2 -2 3l-4 8v0q-30 42 -93 17q-1 54 26.5 90.5t66.5 53.5q2 1 3 1q3 2 6 3q15 5 29 8h3h3q16 3 32 2q3 0 6 -1h3q32 -4 59 -23q29 -22 48 -58l2 -4q0 -1 1 -3l2 -2q0 -2 1 -3v-1q2 -2 2 -4
q6 -14 11 -27v-1v-1l36.5 -100l82 -229.5l78.5 -229.5l46 146l56.5 176.5l48.5 150l20 61.5q1 3 1 5v3q1 2 1 3q1 5 1 9v0q1 51 -64 70q32 43 76 56t86 3q1 -1 3 -1q3 0 6 -1q15 -5 28 -11q2 -1 3 -2t2 -1q15 -8 27 -18q28 -24 40 -59zM365 1203v0q-49 0 -85.5 33.5
t-36.5 79.5q0 47 36 79.5t86 32.5q51 0 87.5 -33t36.5 -79t-36.5 -79.5t-87.5 -33.5zM694 1207v0q-50 0 -86 34t-36 80t35.5 79t86.5 33q50 0 87 -33.5t37 -78.5q0 -46 -37 -80t-87 -34z" />
    <glyph glyph-name="A" unicode="A" horiz-adv-x="1277" 
d="M1180 232v0v0q17 -63 0 -116q-21 -62 -90 -92q-8 -4 -22.5 -8.5t-22.5 -7.5q-26 -5 -51 -5q-21 0 -55.5 7.5t-68.5 32.5q89 45 68 146l-43 118l-1 2h-520l-40 -115l-1 -5q-23 -102 66 -147q-34 -25 -67.5 -32t-53.5 -7q-24 0 -48 5l-6 1q-2 1 -3 1q-18 5 -37 13
q-67 30 -87 91q-17 52 0 115q4 16 10 34l385 1052q17 54 49 86t97 32t97 -31t52 -88l381 -1044q7 -19 12 -38zM443 507v0h386l-190 573l-195 -569z" />
    <glyph glyph-name="B" unicode="B" horiz-adv-x="1181" 
d="M922 730v0q179 -71 179 -319q0 -364 -516 -412h-366q-58 0 -98.5 35t-40.5 84v1190q0 50 40.5 85t98.5 35h375q240 0 352.5 -122t112.5 -261q0 -95 -27 -167t-112 -117l-1 -1q-10 -7 -10 -15q1 -9 13 -15zM321 1194v0l-2 -303q0 -13 10.5 -23t24.5 -10h256q72 0 140 41
t68 142q0 175 -191 186h-271q-14 0 -24.5 -9.5t-10.5 -23.5zM605 201v0q240 0 255 214q0 200 -241 222h-263q-14 0 -24.5 -9.5t-10.5 -23.5v-369q0 -14 10.5 -24t24.5 -10h249z" />
    <glyph glyph-name="C" unicode="C" horiz-adv-x="1121" 
d="M974 353v0q19 -15 31 -34q36 -55 22 -114l-4 -15q-2 -3 -3 -7q-8 -21 -29 -46q-38 -43 -83.5 -69t-76.5 -37l-8 -3q-32 -12 -59 -17q-49 -9 -113 -6h-5h-3h-8q-16 -1 -30 -1q-493 0 -525 510v410q0 480 522 506l1 -3l36 3l12 -1q64 3 113 -6q27 -5 59 -17
q107 -39 167 -107l3 -4q19 -23 27 -44q1 -3 2 -5v-1l5 -16q14 -59 -22 -114q-12 -20 -32 -34q-34 -27 -88 -28q1 19 -3 38q-13 57 -59 88l-2 2t-2.5 1.5l-1.5 0.5l-3 2q-55 35 -140 38h-1q-4 1 -12.5 1t-17 0.5t-12.5 0.5q-297 0 -298 -301v-410q0 -303 298 -304h19.5
t23.5 1q85 3 139 37l2 2q4 2 8 5q46 31 59 87q4 20 3 40q52 -1 89 -29z" />
    <glyph glyph-name="D" unicode="D" horiz-adv-x="1145" 
d="M453 1434v0q266 0 397 -90.5t173.5 -213.5t42.5 -221v-366q0 -101 -42.5 -228.5t-173.5 -221t-397 -93.5h-240q-54 0 -93.5 35.5t-39.5 84.5v1195q0 48 39.5 83.5t93.5 35.5h240zM835 543v0v366q0 307 -346 322h-145q-13 0 -23 -9.5t-10 -23.5v-961q0 -14 10 -24t23 -10
h145q335 0 346 340z" />
    <glyph glyph-name="Delta" unicode="&#x2206;" horiz-adv-x="2164" 
d="M180 444v0q5 0 9 3q4 4 4.5 9t-3.5 9q-36 44 -81 52q-5 1 -9.5 -2t-5.5 -8q-1 -6 2 -10t9 -5q35 -6 66 -43q4 -5 9 -5zM1877 492v0q6 0 9.5 3.5t3.5 8.5q0 6 -3.5 9.5t-9.5 3.5h-35q-6 0 -9.5 -3.5t-3.5 -9.5q0 -5 3.5 -8.5t9.5 -3.5h35zM1455 1307v0q3 0 5 1q5 2 7 7
t0 10t-5 10q-3 4 -8 5.5t-10 -1.5q-5 -2 -6 -7t1 -10q3 -4 4 -8q5 -7 12 -7zM1369 1174v0q45 0 76 31.5t31 75.5q0 5 -3.5 9t-9.5 4q-5 0 -9 -4t-4 -9q0 -33 -23.5 -57t-57.5 -24q-33 0 -57 24t-24 57q0 34 24 57.5t57 23.5q30 0 54 -20q4 -4 9 -3.5t9 4.5t3.5 9.5t-4.5 8.5
q-32 27 -71 27q-44 0 -75 -31.5t-31 -75.5t31 -75.5t75 -31.5zM621 918v0q8 1 12 8l8.5 19.5t11.5 23.5t7 15h1q59 120 131.5 211.5t171.5 91.5v0q99 -4 166 -99t124 -235q2 -5 7 -7t10 0t7 7t0 10q-60 147 -131.5 246.5t-182.5 103.5v0q-110 0 -187 -96t-139 -221l-1 -1
l-7.5 -15.5l-11.5 -24t-9 -19.5q-2 -5 0 -10t7 -7q2 -1 5 -1zM1294 880v0q2 0 5 1q5 3 7 7.5t0 9.5l-12 28q-2 5 -7 6.5t-10 -0.5t-7 -7t0 -10l12 -27q4 -8 12 -8zM256 492v0h121h7h2q5 1 8.5 4.5t2.5 9.5q0 5 -3.5 8.5t-8.5 3.5v0h-123h-4v0q-1 -1 -2 -1v0q-5 0 -9 -3.5
t-4 -9.5q0 -5 4 -8.5t9 -3.5v0zM1482 582v0q6 0 10 4q4 5 3.5 10t-5.5 9l-20 16q-86 89 -142 227q36 74 82.5 125.5t116.5 53.5h1q72 0 119 -59.5t91 -144.5l8 -14q10 -19 21 -37q2 -5 7 -6t10 1q5 3 6.5 8t-1.5 10l-21 36l-8 15q-44 87 -96 152t-136 65h-1
q-82 -3 -133.5 -60t-91.5 -138q-3 -6 0 -11q58 -146 151 -243l21 -17q4 -2 8 -2zM1163 615v0q4 0 8 2q89 86 149 217l5 9l-12 6l12 6q-4 7 -12 7q-7 0 -11 -7l-5 -9q-58 -128 -142 -208q-4 -4 -4.5 -9t2.5 -10q4 -4 10 -4zM385 492v0h1q54 7 93.5 58t72.5 115
q33 61 69.5 109t83.5 51h1q48 0 85 -37t71 -86q36 -51 77.5 -92t100.5 -41v0q72 0 131 48q4 4 4.5 9t-2.5 10q-4 4 -9 4.5t-9 -2.5q-52 -43 -115 -43v0q-49 0 -85.5 37t-71.5 86q-36 51 -77.5 92t-99.5 41h-1q-58 -3 -99.5 -55t-75.5 -119q-32 -59 -67 -106t-80 -53
q-5 -1 -8.5 -5t-2.5 -9q0 -5 4 -8.5t9 -3.5zM1340 560v0q49 0 93 21q5 2 7 7t-1 10q-2 5 -7 7t-10 -1q-39 -18 -82 -18v0q-68 0 -124 26q-5 2 -9.5 0t-7.5 -7q-2 -5 0 -9.5t7 -7.5q61 -28 134 -28v0zM1916 491v0h90.5t51.5 1h2q7 -1 13 4t8 13q3 8 -1 15.5t-15 12.5
q-64 39 -116 116q-57 85 -135 127q-16 7 -34 11q-17 4 -36 4v0q-69 0 -118.5 -33t-92.5 -75l-49 -43q-5 -4 -5.5 -9t3.5 -9q3 -5 8 -5.5t10 3.5q26 21 51 44q42 40 87 70.5t106 30.5v0q16 0 31 -3t29 -9q70 -38 124 -120q52 -76 118 -120h-130q-5 0 -9 -4t-4 -9t4 -9t9 -4z
M480 29v0v0q78 3 121 62.5t74 136.5q30 73 67 126.5t101 57.5q2 -1 3 -1v0v0q40 0 70.5 -30t59.5 -71q30 -42 65.5 -76.5t84.5 -34.5v0q49 3 84 49t64 105q25 50 53 90.5t62 48.5h5v0h1q2 -1 4 0v0h9h381q5 0 9 3.5t4 8.5q0 6 -4 9.5t-9 3.5h-179.5h-147h-63.5h-1h-1l-1 1
q-5 0 -11 -1q-44 -10 -75.5 -54t-58.5 -98t-57 -96t-68 -44v0q-40 0 -70 30.5t-60 70.5q-29 42 -64 75t-82 36q-2 1 -4 1v0q-77 -4 -120.5 -63.5t-74.5 -135.5q-30 -74 -68 -128t-103 -56v0q-67 0 -107.5 67t-75.5 157q-34 85 -76 154q-3 5 -8 6t-10 -2t-6 -8.5t2 -9.5
q41 -66 74 -150q35 -93 81.5 -166.5t125.5 -73.5zM256 492v0h5h1h1h123q54 7 93.5 58t72.5 115q33 61 69.5 109t83.5 51h1q48 0 85 -37t71 -86q36 -51 77.5 -92t100.5 -41v0q72 0 131 48q5 5 5 11t-6 10q-82 64 -144 153q-58 83 -134 147.5t-200 67.5v0q-5 0 -9 -3.5
t-4 -8.5q0 -6 4 -9.5t9 -3.5q114 -4 185 -64t129 -142q59 -83 135 -148q-46 -32 -101 -32v0q-49 0 -85.5 37t-71.5 86q-36 51 -77.5 92t-99.5 41h-1q-58 -3 -99.5 -55t-75.5 -119q-32 -59 -67 -106t-78 -53h-123h-4h-1q0 -1 -1 -1h-147l-1.5 1.5t-0.5 1.5t0.5 2t0.5 2
q96 38 161.5 105.5t119.5 142.5q89 137 211 193l4 2q5 1 7 6t1 10q-2 5 -6.5 7.5t-10.5 0.5l-3 -1q-133 -61 -224 -203q-52 -73 -115.5 -138t-154.5 -101q-7 -3 -11.5 -10t-5.5 -16q-1 -19 17 -28q3 -2 7 -2h151v0zM1505 491v0q5 0 9 4t4 9t-4 9t-9 4h-434q-5 0 -9 -4t-4 -9
t4 -9t9 -4h434zM1023 491v0q5 0 9 4t4 9t-4 9t-9 4h-34q-5 0 -9 -4t-4 -9t4 -9t9 -4h34zM932 491v0q6 0 9.5 4t3.5 9t-3.5 9t-9.5 4h-69q-6 0 -9.5 -4t-3.5 -9t3.5 -9t9.5 -4h69zM745 491v0q5 0 8.5 4t3.5 9t-3.5 9t-8.5 4h-30q-5 0 -9 -4t-4 -9t4 -9t9 -4h30zM668 491v0
q5 0 9 4t4 9t-4 9t-9 4h-160q-5 0 -9 -4t-4 -9t4 -9t9 -4h160z" />
    <glyph glyph-name="E" unicode="E" horiz-adv-x="1002" 
d="M344 1231v0q-14 0 -24 -9.5t-10 -23.5v-342q0 -14 10 -24t24 -10l254 3q84 8 91 92q46 -24 66.5 -63t21.5 -74q0 -12 -1 -24l-2 -15q-10 -57 -52 -87q-38 -27 -94 -31q-12 -1 -29 -1l-255 -2q-14 0 -24 -10t-10 -24v-346q0 -14 10 -23.5t24 -9.5h398q84 8 92 92
q46 -24 66.5 -63t20.5 -74q1 -14 -1 -30l-2 -9q-10 -56 -51 -86q-39 -27 -94 -31q-13 -2 -30 -2h-499q-163 0 -164 117v1196q0 41 36 79t94 38h533q17 0 31 -2q54 -4 93 -31q41 -30 51 -86q0 -1 0.5 -3t1.5 -5q2 -17 1 -31q0 -36 -20.5 -74.5t-66.5 -62.5q-8 84 -94 92h-396
z" />
    <glyph glyph-name="Euro" unicode="&#x20ac;" 
 />
    <glyph glyph-name="F" unicode="F" horiz-adv-x="1107" 
d="M1023 1309v0q0 -1 0.5 -3t0.5 -5q2 -17 2 -31q-1 -36 -21.5 -74.5t-66.5 -62.5q-7 84 -94 92h-397q-14 0 -24 -9.5t-10 -23.5v-342q0 -14 10 -24t24 -10l255 3q84 8 92 92q46 -24 66 -63t21 -74q0 -12 -1 -24l-2 -15q-10 -56 -52 -86q-38 -28 -94 -32q-12 -1 -30 -1
l-255 -2q-14 0 -24 -10t-10 -24q0 -151 -0.5 -275.5t-1.5 -140.5q-4 -61 -35 -104q-32 -46 -93 -57q-4 -1 -7 -2l1 -3v0l-1 3h-1q-2 -1 -4 -1q-19 -2 -36 -2q-40 1 -84.5 24.5t-70.5 76.5q93 8 102 97l1 4v1111q0 41 36 79t94 38h535q16 -1 30 -2q54 -4 93 -31
q42 -30 52 -86z" />
    <glyph glyph-name="G" unicode="G" horiz-adv-x="1136" 
d="M913 811v0q40 0 91.5 -19.5t51.5 -94.5v-468q0 -137 -159.5 -193t-297.5 -56q-502 0 -519 520v419q0 489 492 520h11h1q7 1 15 1q158 0 271 -53q89 -45 142 -124q18 -29 24 -55q2 -7 3 -16q7 -62 -38 -112q-15 -17 -36 -28q-44 -23 -108 -5q11 25 11 45.5t-4 34.5
q-10 31 -41 56q-41 33 -103 49.5t-111 16.5q-29 0 -58 -4q-236 -27 -236 -326v-419q0 -333 294 -330q134 0 196 48q18 11 18 30v331q0 13 -10 23t-24 10h-110q-84 -8 -92 -90q-46 23 -66.5 61.5t-21.5 72.5q-1 14 2 31q7 60 53 92q39 27 95 31q10 1 23 1h40h82h82h37z" />
    <glyph glyph-name="H" unicode="H" horiz-adv-x="1236" 
d="M969 5v0q-56 13 -87 54q-30 42 -34 102q-2 14 -2 36v406h-457v-20q0 -407 -1 -420q-4 -59 -34 -101q-31 -41 -87 -54l-7 -2v0q-5 -1 -11 -2q-18 -2 -35 -2q-40 1 -84 23.5t-70 74.5q92 7 101 92l1 1040q0 2 -1 4q-9 86 -101 93q26 51 70 74t84 23q17 1 36 -1
q67 -9 104 -58q30 -42 34 -102q2 -15 2 -33v-432h456v434q0 19 2 35q4 59 34 101q31 41 87 54l7 1q5 2 11 3q18 2 35 1q40 0 84 -23t70 -74q-92 -7 -101 -93l-1 -1046l1 -3q10 -86 101 -93q-26 -51 -70 -74t-84 -23q-16 -1 -36 2q-5 0 -10 2h-1z" />
    <glyph glyph-name="I" unicode="I" horiz-adv-x="621" 
d="M385 -19q-19 -1 -40 2q-75 9 -116 63q-33 47 -38 114q-2 22 -2 43v1023q-9 75 -43.5 102.5t-71.5 31.5q31 47 76 68.5t87 21.5q105 3 155 -65q34 -47 39 -114q2 -22 2 -43v-1027q10 -72 44.5 -99t70.5 -31q-31 -47 -76 -68t-87 -22v0z" />
    <glyph glyph-name="J" unicode="J" horiz-adv-x="902" 
d="M300 -4v0q-175 0 -200 119q-20 117 79 169q13 -61 57.5 -77.5t86.5 -16.5q134 0 168.5 84.5t34.5 191.5l-1 753q0 20 2 40q5 63 37 108q45 61 137 61h9q38 -1 80.5 -20.5t71.5 -63.5q-34 -4 -66.5 -30.5t-41.5 -97.5l1 -750q0 -501 -455 -470z" />
    <glyph glyph-name="K" unicode="K" horiz-adv-x="1268" 
d="M286 9v0l-7 -1q-4 -1 -11 -2q-18 -3 -35 -2q-40 1 -83.5 23.5t-69.5 72.5q33 2 61.5 20t38.5 68q0 1 0.5 2.5l0.5 1.5v3v1040q0 2 -0.5 3.5l-1.5 4.5q-12 78 -99 85q26 51 69.5 73.5t83.5 23.5q16 1 36 -2l10 -2l7 -2q56 -12 87 -53q30 -42 34 -101l1 -9q1 -13 1 -27
v-350l456 500q12 11 26 21q32 22 65 28q73 13 135 -46q18 -19 31 -42q24 -49 14 -102q-35 12 -66 2.5t-43 -17.5q-12 -6 -23 -16q-8 -6 -14 -13l-379 -402l-2 -3l434 -556q5 -7 12 -14q10 -10 21 -17q11 -9 41 -22t66 -4q5 -53 -24 -99q-14 -23 -35 -39q-66 -54 -138 -34
q-33 9 -62 33q-13 11 -23 22l-433 575l-2 3l-56 -59l-1 -1v-379q0 -12 -1 -25l-1 -9q-4 -59 -34 -101v0q-30 -41 -87 -54z" />
    <glyph glyph-name="L" unicode="L" horiz-adv-x="1082" 
d="M857 -5v0q-13 -2 -33 -2h-521q-51 0 -87.5 33t-36.5 79v1132q-12 80 -99 87q26 52 69 75t83 24q17 1 35 -2q67 -9 103 -58q30 -43 34 -103q1 -15 2 -37v-999q0 -14 9.5 -23.5t23.5 -9.5h388q82 8 90 90q44 -23 64 -61t21 -73q0 -14 -2 -32q-8 -59 -52 -90
q-37 -26 -91 -30v0z" />
    <glyph glyph-name="M" unicode="M" horiz-adv-x="1439" 
d="M719 301v0q-74 0 -108 61l-304 551l2 -717q8 -90 101 -97q-26 -52 -69.5 -74.5t-83.5 -23.5q-16 0 -36 2q-68 9 -104 58q-31 43 -35 103q-1 17 -2 36v132h1l-1 995q0 45 34 74.5t85 29.5q84 0 118 -63l374 -692q9 -16 29 -17h1q19 0 29 16l375 696q29 60 116 60
q50 0 84 -30t34 -74v-180v-400.5t-0.5 -397t-0.5 -186.5q-4 -59 -34 -102q-37 -50 -105 -58q-20 -2 -35 -2q-40 1 -84 23.5t-70 74.5q93 7 101 95l1 3l2 700v13l-306 -549q-33 -60 -109 -60z" />
    <glyph glyph-name="N" unicode="N" horiz-adv-x="1139" 
d="M1059 1234v0v-132v0v-995q0 -45 -34 -74.5t-85 -29.5q-84 0 -118 63l-24 42l-492 807l2 -717q9 -90 102 -97q-26 -52 -69.5 -74.5t-83.5 -23.5q-16 -1 -37 2q-67 8 -104 58q-30 43 -34 102q-2 18 -2 37v132v0v996q0 44 34 73.5t84 29.5q85 0 118 -63l516 -849l-2 717
q-8 90 -101 97q26 52 69.5 74.5t83.5 23.5q16 1 36 -2q68 -8 105 -58q30 -43 34 -102q2 -18 2 -37z" />
    <glyph glyph-name="O" unicode="O" horiz-adv-x="1188" 
d="M594 1430v0q490 0 514 -509v-410q0 -185 -115 -348t-399 -163t-399 163t-115 348v410q0 485 514 509zM880 511v0v410q0 306 -286 302q-280 10 -286 -302v-410q0 -299 286 -304q272 -10 286 304z" />
    <glyph glyph-name="P" unicode="P" horiz-adv-x="1160" 
d="M401 522v0q-14 0 -23.5 -10t-9.5 -23v-150v-20q-1 -28 -1 -62.5v-61v-31.5q-5 -60 -35 -103q-32 -45 -92 -57l-7 -1h-1q-2 -1 -4 -1q-19 -3 -35 -2q-40 1 -84 24t-70 76q92 7 101 96l1 1116q0 48 38.5 83t91.5 35h308q226 0 332.5 -86t137.5 -194.5t31 -177.5
q0 -423 -501 -450h-178zM368 1197v0v-442q0 -14 9.5 -23.5t23.5 -9.5h178q269 0 274 253q0 246 -274 255h-178q-14 0 -23.5 -10t-9.5 -23z" />
    <glyph glyph-name="Q" unicode="Q" horiz-adv-x="1188" 
d="M594 1438v0q490 0 514 -518v-417q0 -392 -360 -503q-13 -4 -19 -16q-2 -3 -3 -10.5t3 -16.5q40 -99 126 -107q63 -2 106 52q33 -52 12 -109q-38 -88 -149 -97l-8 -1q-19 -3 -57.5 -0.5t-87.5 25.5l-2 1q-33 21 -39 26q-95 72 -134 223q-4 12 -11.5 16.5t-12.5 5.5
q-392 100 -392 511v417q0 494 514 518zM880 503v0v417q0 311 -286 317q-280 0 -286 -317v-417q0 -305 286 -320q272 0 286 320z" />
    <glyph glyph-name="R" unicode="R" horiz-adv-x="1270" 
d="M1115 14v0l-6 -2q-50 -20 -97 -7l-6 2v0q-5 1 -11 4q-37 16 -70 54l-1 1v0l-13 17q-10 13 -20 29l-2 3q-4 7 -51 80.5l-108 168.5l-108.5 168.5l-47.5 73.5q-11 15 -28 15h-143q-13 0 -23 -9.5t-10 -23.5v-110.5v-137t-0.5 -118.5t-0.5 -55q-4 -60 -35 -104
q-32 -45 -93 -56l-6 -2h-1q-2 0 -5 -1q-18 -2 -35 -2q-40 1 -84 24.5t-70 76.5q92 7 102 97v3v1113q0 48 37.5 83t89.5 35h366q220 0 323.5 -77.5t134 -175t30.5 -159.5q0 -274 -270 -371q-15 -6 -21 -21q-5 -15 4 -29l257 -385l3 -3q4 -5 9 -10q43 -40 98 -25q12 3 25 8
q1 -55 -24.5 -95t-57.5 -60q-14 -9 -31 -17zM403 819v0h236q244 0 256 203q0 39 -18.5 89t-76 86t-174.5 36h-223q-13 0 -23 -9.5t-10 -23.5v-348q0 -14 10 -23.5t23 -9.5z" />
    <glyph glyph-name="S" unicode="S" horiz-adv-x="1141" 
d="M1002 588v0q59 -116 42 -250.5t-103 -225.5q-90 -91 -247 -121q-209 -38 -371 21q-75 27 -140 84.5t-79 133.5q-9 81 51 136q36 31 88 31q14 0 31 -3q-15 -76 34 -129q65 -62 162 -72t165 11q131 43 154 154q14 89 -50 154q-84 69 -184 96l-48 16q-103 32 -200 80
q-120 66 -167 166q-60 134 -20 296q57 177 217 240t325 47q101 -8 197 -60t141 -148q31 -82 -21 -152q-49 -62 -139 -49q13 64 -22 112q-39 50 -106 69.5t-127 17.5q-226 -15 -226 -171q0 -112 89 -164t180 -79q20 -6 37 -13q224 -61 337 -228z" />
    <glyph glyph-name="T" unicode="T" horiz-adv-x="1200" 
d="M746 1240v0q-14 0 -23.5 -9.5t-9.5 -23.5q0 -212 -0.5 -447.5t-0.5 -404.5v-183q-5 -61 -35 -104q-32 -45 -93 -57l-6 -1h-1q-2 -1 -5 -1q-19 -3 -35 -2q-40 1 -84 24.5t-71 75.5q93 8 102 97l1 1v1002q0 14 -9.5 23.5t-23.5 9.5h-194q-84 -8 -91 -91q-46 23 -66 61.5
t-21 73.5q0 15 2 33q8 60 52 91q39 27 93 31q13 2 33 2h682q17 0 31 -2q54 -4 93 -31q43 -31 52 -90v-3q2 -16 2 -31q-1 -35 -21 -73.5t-66 -61.5q-7 83 -93 91h-194z" />
    <glyph glyph-name="U" unicode="U" horiz-adv-x="1198" 
d="M1118 489v0q0 -442 -489 -485q-446 0 -489 485v762l-2 9q-14 75 -98 82q26 52 69.5 75t82.5 24q16 0 36 -2q2 -1 4 -1v0l7 -2q60 -11 92 -56q30 -42 34 -102v-30t1 -55v-671q0 -269 263 -286q245 0 261 286v734v4q-14 75 -98 82q26 52 69.5 75t82.5 24q16 0 36 -2
q2 -1 4 -1h1l6 -2q59 -11 91 -56v0q30 -42 35 -102v0q0 -16 1 -173v-616z" />
    <glyph glyph-name="V" unicode="V" horiz-adv-x="1422" 
d="M874 138v0q-35 -133 -160 -133q-66 0 -102.5 29t-60.5 101l-134.5 396l-160.5 472l-41 120q-23 68 -25 73q-7 15 -16 30q-33 51 -95 51q-14 0 -29 -2q13 59 50.5 95t76.5 49q18 6 38 9q4 0 7 1q69 9 120 -30q35 -27 59 -75v-1q0 -1 1 -1l9 -21l13 -36l1 -4q2 -5 45 -133
l75.5 -221.5l86.5 -256.5l57 -172l28 -88l27 89q16 55 62.5 199.5l96 296.5l74.5 232l21 63q6 19 13 36l4 10l6 13q24 48 59 75q34 27 80 30q21 2 40 -1h7q20 -4 37 -10q40 -12 77.5 -48t50.5 -95q-29 6 -62.5 -2t-61.5 -48q-10 -14 -17 -32l-65 -193z" />
    <glyph glyph-name="W" unicode="W" horiz-adv-x="2054" 
d="M1965 1215v0q-6 -33 -16 -65q0 -1 -1 -4l-26 -83v0l-5 -17l-137 -439.5l-148 -467.5q-36 -141 -158 -141q-129 0 -162 138l-223 706l-19 60l-19 -60l-109 -351l-112 -352q-36 -141 -159 -141q-128 0 -161 138l-91 288.5l-108.5 342.5l-91 286.5t-38.5 120.5q-5 14 -13 27
q-24 37 -55 42t-63 -4q7 68 44 113t84 61q18 7 38 10q3 0 5 1q69 10 119 -32q35 -29 58 -80l1 -1v0q5 -10 9 -22q6 -16 12 -36l1 -4q2 -5 30.5 -95l68.5 -218l77.5 -247.5l57.5 -183.5l19 -63l18 63l63.5 207.5l90.5 288l77 243.5l4 13q36 112 146 112q109 0 140 -115
q2 -5 32 -97l72.5 -222l81.5 -249.5l58 -180.5l19 -63l18 63l84.5 284l101.5 338v0l28 93q3 12 4 26l1 20l-1 3v0q0 6 -3 10q-9 45 -74 68q43 53 99 69.5t105 3.5q16 -4 35 -12v0v0l6 -3q17 -8 33 -21q35 -28 48 -71q13 -44 4 -98z" />
    <glyph glyph-name="X" unicode="X" horiz-adv-x="1381" 
d="M1182 1205v0l-3 -3q-6 -6 -16 -18l-324 -467l-1 -2l326 -470q7 -9 18 -20q2 -3 5 -5q4 -3 7 -6l2 -1q35 -26 67 -24t56 14q2 -60 -25 -104t-61 -66q-15 -10 -35 -18q-3 -1 -5 -2q-17 -7 -39 -11q-16 -3 -35 -2q-26 1 -48 10q-36 15 -68 50l-8 8v0q-8 9 -16 20
q-10 14 -21 31l-267 385l-265 -382l-3 -3q-11 -18 -22 -32q-7 -10 -14 -18l-9 -9q-32 -35 -67 -50q-22 -9 -49 -10q-18 -1 -34 2q-22 3 -40 11q-1 0 -2.5 0.5t-3.5 1.5q-19 8 -34 18q-34 23 -61 66.5t-25 103.5q24 -12 56.5 -13.5t68.5 24.5q3 2 7 6q3 2 5 5l3 3q8 8 16 18
l325 467l1 2l-327 471q-7 8 -17 18v0q-3 4 -6 6q-37 32 -71.5 31t-60.5 -14q-2 60 25 103.5t61 66.5q15 10 34 18q3 1 7 2q17 7 39 11q44 8 83 -8q35 -15 67 -50l5 -4v-1q2 -1 3 -3q8 -9 16 -19q3 -5 107 -155l182 -261l61 88l92.5 133.5l91 131.5t44.5 63q7 10 15 19v0l8 8
q32 35 68 50q38 16 82 8q23 -4 40 -11q3 -1 7 -2q18 -9 33 -19q35 -22 61.5 -65.5t24.5 -103.5q-26 13 -60.5 14t-71.5 -31q-3 -2 -5 -5z" />
    <glyph glyph-name="Y" unicode="Y" horiz-adv-x="1289" 
d="M1131 1407v0v0q34 -16 63.5 -51.5t34.5 -89.5q-25 8 -56 4.5t-61 -36.5q-3 -3 -6 -7q-7 -10 -13 -20l-327 -642q-4 -7 -4 -15v-189l1 -16l-1 -138q0 -44 -1 -50q-4 -61 -34 -104q-33 -45 -94 -57l-6 -1q-2 -1 -6 -2q-18 -2 -35 -1q-40 0 -84 24t-71 77q35 2 63.5 21
t38.5 74v362q0 8 -4 15l-331 641q-6 9 -14 19q-2 4 -5 6q-30 34 -62 37t-57 -6q5 55 34.5 91.5t63.5 52.5q15 8 33 13q3 1 7 2q16 4 37 5q10 1 22 -1q29 -3 53 -16q30 -18 56 -53l4 -5v0q1 -2 2 -3l12 -20l38 -74.5l80 -157l79.5 -156t36.5 -72.5q10 -17 29 -17h1
q20 1 29 17l22 43l40 80l73 145.5l66.5 132t30.5 59.5q5 10 11 20l2 2q0 1 1 1l3 5q26 35 56 53q23 13 51 16l4 1q9 1 18 0q21 -1 37 -5q3 -1 7 -1q18 -6 32 -13z" />
    <glyph glyph-name="Z" unicode="Z" horiz-adv-x="1230" 
d="M1014 1436v0q49 0 92.5 -29t43.5 -92q0 -14 -5 -37.5t-22 -48.5l-701 -983l-4 -5l517 4q65 9 89 41t27 69q52 -29 75 -74t24 -88q0 -18 -2 -38q-9 -73 -63 -112q-47 -33 -114 -37q-17 -2 -37 -2l-721 -2q-54 0 -93.5 38t-39.5 90q0 44 24 74l699 982l3 5l-483 4
q-66 -9 -89.5 -41t-26.5 -69q-52 30 -75 76t-24 87q-1 18 2 39q1 4 2 7q11 67 61 103q46 33 113 37q18 2 38 2h690z" />
    <glyph glyph-name="a" unicode="a" horiz-adv-x="977" 
d="M505 1041v0h-12h-11h-4q-6 0 -12 1h-18q-88 -1 -158 -31q-38 -16 -80.5 -50.5t-68.5 -81.5l-1 -2q-11 -21 -14 -41q-1 -2 -1 -4v-3l-1 -9v-5q-1 -51 38 -91q15 -15 33 -24q44 -21 93 -5l9 2l-4 8q-7 17 -7 34q0 36 26 60l2 2q29 29 82 43q79 21 149 -18q7 -4 14 -9l3 -3
q1 0 2 -1l2 -2q3 -2 6 -5q44 -40 44 -105v-112l-8 1q-85 13 -169 13q-111 0 -188 -29q-14 -5 -26 -11q-145 -70 -145 -255q0 -138 76 -215q88 -88 270 -91h9h6h4h3q136 4 229 62l2 1l1 -2q22 -27 48 -41q21 -11 47 -13q52 3 78 26.5t35 52.5t9 50l1 9l-9 -1q-20 -1 -35 9
q-19 12 -26 41l-1 1q-1 5 -2 14v13v389v12v68q0 40 -9 79q-10 43 -24 72l-10 21q-54 117 -182 156q-45 16 -95 20zM616 310v0q0 -8 -0.5 -11t-1.5 -5v-1q-2 -2 -4 -9q-8 -34 -30 -58l-2 -2l-4 -4q-47 -46 -133 -46q-12 0 -24 1q-11 1 -22 3h-2q-52 8 -81.5 34t-29.5 92
q0 78 65 111q4 3 10 5q2 1 3 1q33 13 80 13q24 0 73.5 -5t102.5 -17h2z" />
    <glyph glyph-name="acute" unicode="&#xb4;" horiz-adv-x="594" 
d="M239 1136v0q-1 -1 -17 -4.5t-40 -3.5t-48 10t-41 36q-13 22 -10 48q53 -2 90 10q22 4 54.5 17t53.5 34l8 9l-6 10q-49 94 9 153q35 34 86.5 31.5t89.5 -41.5q34 -33 40 -84.5t-37 -94.5q-32 -33 -96 -71t-136 -59z" />
    <glyph glyph-name="ampersand" unicode="&#x26;" horiz-adv-x="1482" 
d="M568 -6v0q-431 0 -488 411q0 238 277 416l21 13l-16 20q-136 157 -136 303q0 158 126.5 247.5t274.5 89.5q135 0 231.5 -59t135.5 -131q2 -5 5.5 -12.5l7 -15t4.5 -10.5q17 -51 12 -95q-8 -60 -60 -103l-5 -4v-1q-2 -2 -5 -4q-17 -12 -33 -20q-43 -22 -97 -20.5
t-103 35.5q82 46 47 147l-1 2t-2 4.5t-2.5 4.5t-1.5 3q-15 25 -43 46t-79 21q-67 0 -114.5 -38.5t-47.5 -93.5t42.5 -112t94.5 -109l381 -399l15 27q20 37 27 52.5t7 17.5q45 68 108 82.5t120 -8.5q47 -18 82 -62t32 -114q-24 10 -55 11t-61 -21q-16 -14 -28 -30l-51 -103
l-15 -21l-8 -17l66 -73l3 -2q82 -65 150 -5q16 -56 0 -105.5t-50 -82.5q-13 -12 -30 -24l-4 -2q-1 0 -1 -1l-6 -3q-56 -34 -114 -22q-55 13 -101 58q-3 3 -20.5 22l-43.5 47l-16 18l-16 -17q-182 -158 -416 -158zM515 658v0q-75 -42 -131 -97.5t-56 -140.5q0 -79 58.5 -145
t172.5 -66q138 0 266 112l17 16l-311 330z" />
    <glyph glyph-name="approxequal" unicode="&#x2248;" horiz-adv-x="1143" 
d="M106 632q-21 34 -23 83q-3 86 40 139q29 35 70 45q13 3 26 4q177 7 354 -31q180 -39 360 -30q74 11 107 70q9 -14 14 -32q1 -1 1 -2t1 -2q2 -9 4 -21l1 -1v-2q2 -13 2 -25v-4v-4q0 -45 -14 -82q-4 -12 -10 -24l-2 -2q0 -1 -1 -2q-6 -11 -13 -20q-29 -35 -70 -44
q-13 -4 -26 -5q-177 -7 -354 31q-180 39 -360 31q-74 -11 -107 -70v0zM106 302q-21 34 -23 83q-3 86 40 139q29 35 70 45q13 3 26 4q177 7 354 -31q180 -39 360 -30q74 11 107 70q9 -14 14 -32q1 -1 1 -2t1 -2q2 -9 4 -21l1 -1v-2q2 -13 2 -25v-4v-4q0 -45 -14 -82
q-4 -12 -10 -24l-2 -2q0 -1 -1 -2q-6 -11 -13 -20q-29 -35 -70 -44q-13 -4 -26 -5q-177 -7 -354 31q-180 39 -360 31q-74 -11 -107 -70v0z" />
    <glyph glyph-name="asciitilde" unicode="~" horiz-adv-x="1143" 
d="M106 532q-21 34 -23 83q-3 86 40 139q29 35 70 45q13 3 26 4q177 7 354 -31q180 -39 360 -30q74 11 107 70q9 -14 14 -32q1 -1 1 -2t1 -2q2 -9 4 -21l1 -1v-2q2 -13 2 -25v-4v-4q0 -45 -14 -82q-4 -12 -10 -24l-2 -2q0 -1 -1 -2q-6 -11 -13 -20q-29 -35 -70 -44
q-13 -4 -26 -5q-177 -7 -354 31q-180 39 -360 31q-74 -11 -107 -70v0z" />
    <glyph glyph-name="asterisk" unicode="*" horiz-adv-x="954" 
d="M80 1432v0q0 48 27.5 73.5t52.5 25.5h8.5t5.5 -1l204 -54l-7 148q-5 34 18 63q32 35 86 35q55 0 87 -35q23 -28 18 -65l-8 -146l206 54h1q3 1 14 1q24 0 52.5 -31.5t28.5 -80.5q0 -63 -78 -90l-178 -20l116 -128q27 -35 27 -68q0 -29 -33 -60t-75 -31q-51 0 -86 45
l-89 131l-92 -131q-35 -45 -87 -45q-42 0 -75 31t-33 60q0 33 28 68l107 136l-166 25q-80 28 -80 90z" />
    <glyph glyph-name="at" unicode="@" horiz-adv-x="1563" 
d="M775 1171v0q322 0 515 -176.5t193 -472.5q0 -342 -297 -344q-135 0 -204 77l-14 15l-13 -15q-48 -55 -88.5 -76.5t-95.5 -21.5q-295 0 -329 354q0 312 337 332q182 0 245 -98.5t75 -232.5l3 -20q5 -50 20.5 -93t63.5 -43q93 0 93 153q0 451 -500 495q-459 0 -496 -504
q0 -466 514 -489v0q18 -2 39 0t53 10l7 2v0q24 6 61 30t59 77q37 -11 55 -34t24 -46.5t6 -35.5q0 -50 -40.5 -102t-105.5 -71q-53 -13 -95 -16.5t-100 -3.5q-310 0 -495 185t-185 494q0 631 695 671zM890 378v0l10 7l-2 12q-4 24 -6.5 37.5t-3.5 20t-1 10v7.5v1q0 4 -0.5 13
l-1.5 26q0 49 -17 100.5t-89 51.5q-42 0 -82.5 -31.5t-40.5 -134.5q0 -72 20 -107.5t47.5 -46.5t49.5 -11q60 0 117 45z" />
    <glyph glyph-name="b" unicode="b" horiz-adv-x="981" 
d="M574 1017v0q176 0 251.5 -90.5t75.5 -224.5v-348q0 -149 -97 -252.5t-290 -103.5q-369 0 -387 319v821v113q-4 40 -25.5 54t-61.5 13q17 55 58 82t85 28q16 0 30 -2q60 -7 93 -53q27 -37 30 -90q2 -15 2 -30v-110v0v-192q87 66 236 66zM690 377v0v331q0 110 -111 106
q-96 3 -158 -27t-81 -51l-2 -386q0 -17 3 -32q6 -30 24 -52q26 -34 75 -49q33 -10 74 -10q22 0 42 3q134 28 134 167z" />
    <glyph glyph-name="backslash" unicode="\" horiz-adv-x="993" 
d="M-80 1569q39 39 104 42q111 5 194 -74q56 -53 87 -127q11 -25 19 -48l454 -1312q50 -135 135 -196q-16 -16 -38 -26l-4 -2q-12 -5 -27 -9l-4 -1q-16 -4 -33 -4h-9q-60 0 -113 25q-17 8 -34 20l-6 4q-17 12 -30 25q-56 53 -87 128q-11 24 -19 47l-454 1311
q-51 136 -135 197v0z" />
    <glyph glyph-name="bar" unicode="|" horiz-adv-x="649" 
d="M449 -95v0q0 -39 -35 -73.5t-90 -34.5q-52 0 -88 31t-36 77v1592q0 45 36 76.5t88 31.5q55 0 90 -35t35 -73v-1592z" />
    <glyph glyph-name="braceleft" unicode="{" horiz-adv-x="831" 
d="M236 779h5q45 0 75.5 30.5t31.5 76.5v323.5v130.5q0 19 2 35q4 64 37 108q38 53 111 62q20 3 38 2q43 -1 90 -25t75 -78q-98 -8 -109 -100v-5v-554l-3 -16t-12 -39t-27.5 -45.5t-49.5 -36.5q31 -10 49.5 -29.5t28 -41.5t12 -38l2.5 -16l1 -578q10 -92 108 -99
q-28 -55 -75 -79t-90 -25q-18 -1 -37 2q-7 1 -12 2v0l-7 2q-61 13 -93 58q-33 44 -37 108q0 7 -0.5 146t-0.5 344q-1 45 -32 76t-75 31h-6q-62 0 -104 39t-42 95q0 59 47 96.5t99 37.5v0z" />
    <glyph glyph-name="braceright" unicode="}" horiz-adv-x="831" 
d="M595 789v0q51 0 98.5 -37.5t47.5 -96.5q0 -56 -42.5 -95t-103.5 -39h-7q-44 0 -74.5 -31t-31.5 -76q-1 -205 -1 -344v-146q-5 -64 -37 -108q-33 -45 -93 -58l-7 -2v0q-5 -1 -12 -2q-20 -3 -38 -2q-43 1 -89.5 25t-74.5 79q98 7 108 99v578l3 16t12 38t28 41.5t50 29.5
q-31 14 -50 36.5t-28 45.5t-12 39l-3 16l1 554q-1 3 -1 5q-10 92 -108 100q28 54 74.5 78t89.5 25q18 1 39 -2q72 -9 111 -62q32 -44 37 -108q1 -16 2 -35l-0.5 -130.5t-0.5 -323.5q1 -46 32 -76.5t75 -30.5h6z" />
    <glyph glyph-name="breve" unicode="&#x2d8;" horiz-adv-x="1024" 
 />
    <glyph glyph-name="brokenbar" unicode="&#xa6;" 
 />
    <glyph glyph-name="bullet" unicode="&#x2022;" horiz-adv-x="1024" 
d="M216 718q0 123 87 209t210 86q122 0 208.5 -86.5t86.5 -208.5t-87.5 -209.5t-209.5 -87.5q-123 0 -209 87t-86 210z" />
    <glyph glyph-name="c" unicode="c" horiz-adv-x="870" 
d="M733 279v0q16 -12 27 -29q30 -45 18 -95q0 -1 -1 -3v0v0v0v-1l-2 -8q-2 -3 -3 -7q-7 -17 -22 -36l-1 -2q-51 -54 -119 -79q-2 -1 -3 -1l-4 -2q-23 -8 -44 -12q-39 -7 -83 -5h-5h-5h-21q-200 0 -292.5 109.5t-92.5 266.5v287q0 158 92.5 266.5t294.5 108.5q13 0 29 -1
q44 2 83 -5q21 -4 44 -12q72 -25 126 -82l1 -2q15 -18 22 -36q1 -4 3 -7l2 -7v-1v-1v0q1 -2 1 -3q12 -49 -18 -95q-11 -17 -27 -29q-32 -24 -74 -24h-14l-9 1l2 9q3 17 0 33q-8 32 -33 49l-1 1t-3 2l-2 1q-33 21 -87 23l-3.5 0.5t-9 0.5t-10 0.5t-6.5 0.5q-202 0 -187 -191
v-287q0 -180 187 -192h7h10t8.5 0.5l3.5 0.5q54 2 87 23l2 1q2 1 3 2q0 1 1 1v0v0q25 17 33 49q3 16 0 33l-2 9l9 1h14q42 0 74 -24zM485 1036v0h-9v0h9z" />
    <glyph glyph-name="caron" unicode="&#x2c7;" horiz-adv-x="1024" 
 />
    <glyph glyph-name="cedilla" unicode="&#xb8;" horiz-adv-x="1024" 
d="M360 -290q85 -52 152 -52q66 0 94.5 21.5t28.5 66.5t-49 64q-40 16 -102 16q-16 0 -34 -2l48 176h63l-37 -104q32 4 62 5q86 0 134 -40.5t48 -113.5q0 -76 -58.5 -120.5t-160.5 -44.5q-109 0 -189 32v96z" />
    <glyph glyph-name="circumflex" unicode="&#x2c6;" horiz-adv-x="1024" 
 />
    <glyph glyph-name="colon" unicode=":" horiz-adv-x="545" 
d="M272 196v0q-58 0 -100 39t-42 92q0 54 41.5 92t100.5 38q58 0 100.5 -38.5t42.5 -91.5t-42.5 -92t-100.5 -39zM272 701v0q-58 0 -100 39t-42 92q0 54 41.5 92t100.5 38q58 0 100.5 -38.5t42.5 -91.5t-42.5 -92t-100.5 -39z" />
    <glyph glyph-name="comma" unicode="," horiz-adv-x="426" 
d="M211 293v0q54 -4 94.5 -41.5t38.5 -104.5q-2 -28 -12 -70l-2 -7q-5 -20 -12 -40v0l-4 -13q-18 -51 -39 -88v-1q0 -2 -10 -17t-28.5 -33.5t-44.5 -29t-60 -3.5q-26 6 -44 29q42 40 62 77q19 31 32 67l7 20l-26 2q-102 34 -103 133q5 54 47.5 88t103.5 32z" />
    <glyph glyph-name="copyright" unicode="&#xa9;" horiz-adv-x="1590" 
d="M997 554v0q11 -8 18 -19q19 -31 12 -64l-1 -1v-1v0v0v-1l-2 -5q0 -2 -1 -4q-5 -12 -15 -24l-1 -2q-34 -36 -79 -53q-1 0 -2 -1q-2 0 -3 -1q-16 -5 -29 -8q-26 -4 -56 -3h-3h-3h-15q-133 0 -195 73t-62 178v192q0 105 62 177.5t197 72.5h19q30 1 56 -3q13 -3 29 -9
q48 -16 84 -55l1 -1q10 -12 15 -24q1 -2 1 -4l2 -5v-1v0v-1l1 -1q7 -34 -12 -64q-7 -11 -18 -19q-22 -17 -50 -17q-4 0 -9 1l-6 1l1 5q2 11 0 23q-5 21 -22 32l-1 1q-1 0 -1 1l-2 1q-22 14 -58 15l-2.5 0.5t-6 0.5h-6.5h-5q-134 0 -124 -127v-192q0 -120 124 -128h5h6.5h6
h2.5q36 2 58 16l2 1l1 1q1 0 1 1v0v0q17 11 22 32q2 11 0 22l-1 6l6 1h9q28 0 50 -16zM831 1060v0h-6v0h6zM795 -2v0q295 0 505 210t210 505q0 296 -210 505.5t-505 209.5q-296 0 -505.5 -209.5t-209.5 -505.5q0 -295 209.5 -505t505.5 -210zM795 1271v0q230 0 393.5 -163.5
t163.5 -394.5q0 -230 -163.5 -393.5t-393.5 -163.5q-231 0 -394.5 163.5t-163.5 393.5q0 231 163.5 394.5t394.5 163.5z" />
    <glyph glyph-name="currency" unicode="&#xa4;" 
 />
    <glyph glyph-name="d" unicode="d" horiz-adv-x="1019" 
d="M940 177v0v-12q-1 -71 -32.5 -102t-60.5 -38q-47 -13 -89 -3.5t-61 32.5l-2 4q-3 3 -7 9q-1 2 -4 6l-2 4l-1 -1q-138 -75 -264 -75q-145 0 -234 88q-102 103 -103 294v238q0 409 353 406q103 0 197 -38v250q-7 47 -26 64t-50 17l-14 1l6 14q38 82 121 92q91 12 140 -35
q31 -34 36 -69t2 -49l-1 -1016q0 -6 0.5 -13t1 -12t0.5 -6t2 -8.5t8 -18t17 -18.5q21 -14 55 -8zM630 454v0l1 309v1q-36 25 -89 39t-84 14q-94 0 -129.5 -42t-35.5 -152v-238q0 -96 39 -134q35 -36 121 -36q75 0 176 47z" />
    <glyph glyph-name="dagger" unicode="&#x2020;" 
 />
    <glyph glyph-name="daggerdbl" unicode="&#x2021;" 
 />
    <glyph glyph-name="degree" unicode="&#xb0;" horiz-adv-x="820" 
d="M411 1324q-62 0 -106.5 -44t-44.5 -107q0 -62 44 -105.5t107 -43.5q62 0 105.5 43.5t43.5 105.5q0 63 -43.5 107t-105.5 44zM411 1504q137 0 233 -96.5t96 -233.5q0 -135 -97.5 -232.5t-233.5 -97.5q-139 0 -234 96t-95 234t96.5 234t234.5 96z" />
    <glyph glyph-name="dieresis" unicode="&#xa8;" horiz-adv-x="1024" 
d="M318 1124v0q-58 0 -100 39t-42 92q0 54 41.5 92t100.5 38q58 0 100.5 -38.5t42.5 -91.5t-42.5 -92t-100.5 -39zM724 1114v0q-58 0 -100 39t-42 92q0 54 41.5 92t100.5 38q58 0 100.5 -38.5t42.5 -91.5t-42.5 -92t-100.5 -39z" />
    <glyph glyph-name="divide" unicode="&#xf7;" horiz-adv-x="996" 
d="M794 816v0q43 0 82.5 -31.5t39.5 -80.5q0 -47 -35.5 -79.5t-86.5 -32.5h-592q-51 0 -86.5 32.5t-35.5 79.5q0 49 39.5 80.5t82.5 31.5h592zM496 202v0q-58 0 -100 39t-42 92q0 54 41.5 92t100.5 38q58 0 100.5 -38.5t42.5 -91.5t-42.5 -92t-100.5 -39zM486 977v0
q-58 0 -100 39t-42 92q0 54 41.5 92t100.5 38q58 0 100.5 -38.5t42.5 -91.5t-42.5 -92t-100.5 -39z" />
    <glyph glyph-name="dollar" unicode="$" horiz-adv-x="1033" 
d="M465 1357q1 27 7 56q7 36 33 62q24 19 56 24t63 -1q-22 -26 -35 -68q-11 -35 -12 -69l20 -2q90 -7 176 -53.5t125 -132.5q30 -76 -19 -140q-30 -36 -67.5 -44t-70.5 -1q14 57 -16 99q-30 39 -85 57q-32 9 -63 13v-342q13 -4 25 -9q198 -54 298 -202q53 -102 37.5 -221.5
t-91.5 -201.5q-81 -80 -220 -106q-24 -4 -48 -7v-9q0 -18 -3 -40q-3 -48 -27 -80q-8 -10 -24 -21t-48 -15q-17 -2 -32 -2q-4 1 -8 1q16 28 23 67.5t5 77.5v15q-89 3 -166 31q-67 24 -125.5 75.5t-71.5 120.5q-8 74 48 125q34 29 82 29q18 0 38 -4q-17 -67 25 -112
q55 -52 137 -60q17 -2 33 -3v357l-6 2q-90 28 -175 70q-108 58 -150 148q-53 119 -17 262q50 158 192 214q78 31 157 40zM578 580v-301q102 35 120 123q12 73 -41 126q-38 31 -79 52zM465 859v291q-124 -29 -124 -131q0 -92 78 -136q23 -13 46 -24z" />
    <glyph glyph-name="dotaccent" unicode="&#x2d9;" horiz-adv-x="465" 
d="M232 1129v0q-58 0 -100 39t-42 92q0 54 41.5 92t100.5 38q58 0 100.5 -38.5t42.5 -91.5t-42.5 -92t-100.5 -39z" />
    <glyph glyph-name="dotlessi" unicode="&#x131;" horiz-adv-x="514" 
 />
    <glyph glyph-name="e" unicode="e" horiz-adv-x="910" 
d="M736 350v0q19 -10 34 -25q42 -43 39 -100q-1 -9 -2 -15q-12 -56 -60.5 -104t-105.5 -74q-74 -31 -161 -31q-26 0 -54 1q-254 23 -333 230q-9 31 -11 68t-2 51v347q35 344 393 344q177 0 271 -93q85 -86 86 -235q-2 -298 -361 -298q-86 0 -172 13v-86q0 -52 22 -80.5
t47 -40.5q72 -37 167 -15q83 22 96 67q6 24 -13 50l-10 13l14 6q66 30 116 7zM297 619v0q48 -9 97.5 -12.5t74.5 -3.5q159 0 146 115q0 73 -36 108q-35 36 -112 36q-162 0 -170 -150v-93z" />
    <glyph glyph-name="eight" unicode="8" horiz-adv-x="1156" 
d="M579 -4q-217 0 -358 116.5t-141 295.5q0 201 195 327l25 16l-24 18q-144 109 -144 281q0 332 445 376q193 0 319 -104t126 -264q0 -164 -144 -275l-24 -18l25 -16q197 -128 197 -333q0 -183 -140.5 -301.5t-356.5 -118.5zM583 855l5 1q193 57 193 196q0 73 -57.5 122
t-144.5 49t-145.5 -49t-58.5 -122q0 -141 204 -196zM579 203q108 0 180 61t72 152q0 165 -254 232l-4 1l-4 -1q-244 -64 -244 -232q0 -91 73 -152t181 -61z" />
    <glyph glyph-name="ellipsis" unicode="&#x2026;" horiz-adv-x="1737" 
d="M885 14v0q-58 0 -100 39t-42 92q0 54 41.5 92t100.5 38q58 0 100.5 -38.5t42.5 -91.5t-42.5 -92t-100.5 -39zM1514 4v0q-58 0 -100 39t-42 92q0 54 41.5 92t100.5 38q58 0 100.5 -38.5t42.5 -91.5t-42.5 -92t-100.5 -39zM222 25v0q-58 0 -100 39t-42 92q0 54 41.5 92
t100.5 38q58 0 100.5 -38.5t42.5 -91.5t-42.5 -92t-100.5 -39z" />
    <glyph glyph-name="emdash" unicode="&#x2014;" horiz-adv-x="2048" 
 />
    <glyph glyph-name="endash" unicode="&#x2013;" horiz-adv-x="1108" 
 />
    <glyph glyph-name="equal" unicode="=" horiz-adv-x="1099" 
d="M217 778v0q-58 0 -97.5 34.5t-39.5 84.5q0 53 43.5 85.5t93.5 32.5h665q50 0 93.5 -32.5t43.5 -85.5q0 -50 -39.5 -84.5t-97.5 -34.5h-665zM882 624v0q49 0 93 -33.5t44 -86.5q0 -50 -39.5 -84.5t-97.5 -34.5h-665q-58 0 -97.5 34.5t-39.5 84.5q0 53 44 86.5t93 33.5h665
z" />
    <glyph glyph-name="exclam" unicode="!" horiz-adv-x="606" 
d="M363 245q67 0 115 -43t48 -104t-48 -105t-115 -44q-65 0 -112.5 44.5t-47.5 104.5t47.5 103.5t112.5 43.5v0zM81 1457q3 5 8.5 11.5l9.5 11.5q2 1 3 3q32 35 72 50t76 16q112 3 167 -72q37 -52 42 -126q1 -10 1 -19l1 -17v-12v-150l-19 -495v-40q1 -44 12 -106.5
t38 -108.5q-39 -18 -80 -18q-21 0 -44 2q-71 8 -114 69q-36 53 -41 126q-3 25 -3 48l-8 470v200q-19 125 -95 144q-1 0 -3 1q-12 5 -24 7v2q1 1 1 3v0z" />
    <glyph glyph-name="f" unicode="f" horiz-adv-x="834" 
d="M798 1294v0q16 -48 -8 -99q-9 -18 -24 -32q-30 -28 -73 -33q-7 -1 -14 -1h-9v9q2 17 -4 34q-12 35 -42 49l-3 1q-5 3 -10 4q-1 1 -2 1q-33 13 -79 10l-4 -0.5t-9.5 -1.5t-11 -1.5t-7.5 -0.5h-1v-1q-117 -42 -117 -165v-108v-72l135 1q36 3 48.5 22.5t12.5 55.5
q48 -16 72 -52t25 -76q2 -73 -49 -110q-33 -23 -80 -27q-14 -1 -27 -1l-137 -1v-407v0v-116q0 -15 -2 -30q-4 -53 -30 -91q-33 -45 -94 -53q-15 -2 -31 -1q-44 1 -85 28t-58 81q40 0 61.5 14t25.5 54v114v761q0 161 78.5 250t202.5 114q13 3 26 5v0l9 2q51 8 96 5
q10 -1 22 -3q62 -10 125 -49q20 -12 36 -27l1 -2q17 -17 27 -35q1 -2 2 -5v0l4 -9q1 -3 2 -5z" />
    <glyph glyph-name="five" unicode="5" horiz-adv-x="1061" 
d="M492 -1v0h-6l-46 3h-1q-9 1 -19 2q-277 27 -317 159q-23 85 29 156q41 54 105 63q-6 -25 0 -55.5t38 -55.5q42 -28 86 -41t73 -16q4 -1 9 -1l4 -1q35 -4 73 -2q217 34 217 261q0 225 -217 243q-71 0 -123 -29l-3 -2q0 -1 -13 -9.5t-33 -20t-43.5 -20.5t-45.5 -9
q-55 0 -92 36q-31 33 -31 82l21 569q3 56 44.5 87t90.5 31h311q51 0 83.5 -0.5t50 -0.5h24.5h8q57 -4 98 -33q42 -30 53 -87l2 -12q2 -17 2 -33q-1 -41 -24 -81t-68 -64q-2 81 -92 96l-357 1l-14 -317l27 9q53 15 128 15q416 0 457 -443q0 -174 -106.5 -319.5t-332.5 -159.5
l-20 -1v0h-2h-28z" />
    <glyph glyph-name="four" unicode="4" horiz-adv-x="1088" 
d="M652 1431v0l6 -1v0q3 -1 6 -1q19 -6 34 -13q41 -19 71 -59t33 -96q-35 12 -67.5 5.5t-59.5 -45.5l-2 -3l-133 -304l-165 -377l-12 -29h302l1 79v78.5v52t0.5 31t0.5 15v4.5q4 63 36 108q33 47 96 59l6 1l1 1q2 0 6 1q19 2 36 2q46 -2 90.5 -27.5t69.5 -77.5
q-86 -1 -105 -95v-4l1 -532q18 -93 104 -94q-25 -52 -69.5 -77.5t-90.5 -27.5q-17 -1 -37 2l-12 3q-63 12 -96 58q-32 45 -36 108q0 5 -0.5 32.5t-0.5 68.5v10v10h-463q-58 0 -90.5 37t-32.5 80q0 5 5 24t13 38l300 693l45.5 104l25.5 59q28 55 74 83q27 17 61 19
q25 2 48 -3z" />
    <glyph glyph-name="fraction" unicode="&#x2044;" horiz-adv-x="342" 
 />
    <glyph glyph-name="fraction" unicode="&#x2215;" horiz-adv-x="342" 
 />
    <glyph glyph-name="franc" unicode="&#x20a3;" 
 />
    <glyph glyph-name="_159" horiz-adv-x="0" 
 />
    <glyph glyph-name="_160" horiz-adv-x="0" 
 />
    <glyph glyph-name="g" unicode="g" horiz-adv-x="1047" 
d="M968 964v0q27 -32 29 -76v-14l-1 -10l-9 2q-18 2 -35 -2q-37 -10 -53 -40l-1 -3q-14 -19 -17 -62v-117q0 -153 -97.5 -256.5t-295.5 -103.5q-69 0 -133 18q-18 -39 -18 -69q0 -47 28 -61.5t53 -14.5h84q182 0 304.5 -72t122.5 -226q0 -307 -437 -332q-182 0 -297 83.5
t-115 230.5q0 131 116 227q-28 39 -39 82.5t-11 76.5q0 65 66 153q-118 108 -118 278q0 158 95.5 264t280.5 106q133 0 243 -57l12 -6t16 -8.5t12 -6.5q11 14 24 25l2 2q19 16 37 24q4 2 7 3v0l8 3q3 1 6 1q50 14 100 -15q18 -11 31 -27zM347 -22v0q-52 -47 -52 -119
q0 -143 201 -151q191 0 218 145q0 122 -208 119h-42q-44 0 -85 4q-17 1 -32 2zM667 702v0q0 47 2 97q-82 48 -171 48q-188 0 -189 -195q0 -173 183 -191q179 0 175 177v64z" />
    <glyph glyph-name="grave" unicode="`" horiz-adv-x="595" 
d="M355 1136q-71 21 -135 59t-97 71q-43 43 -36.5 94.5t39.5 84.5q39 39 90.5 41.5t85.5 -31.5q59 -59 10 -153l-7 -10l9 -9q21 -21 53.5 -34t54.5 -17q37 -12 89 -10q4 -26 -9 -48q-17 -26 -41.5 -36t-48 -10t-40 3.5t-17.5 4.5v0z" />
    <glyph glyph-name="greater" unicode="&#x3e;" horiz-adv-x="1253" 
d="M304 211l-4 -2q-45 -16 -83 -12q-55 6 -92 54l-4 4q-11 15 -18 29q-18 34 -19 77.5t23 85.5q8 -10 15 -17v0q40 -38 95 -26q11 3 22 7l23 11q10 5 106 49l221.5 102l222.5 103l41 19l-630 291q-4 1 -9 2q-55 13 -94 -26q-8 -7 -15 -16q-25 41 -24 84.5t19 78.5
q7 13 18 28q2 2 4 5q37 47 92 53q7 1 15 1q29 0 62 -11q15 -4 18 -6l778 -374q41 -19 63.5 -40.5t22.5 -69.5q0 -47 -23.5 -69t-64.5 -41l-736 -353q-16 -9 -30 -15q-5 -2 -9 -4l-3 -1l-3 -1v0z" />
    <glyph glyph-name="greaterequal" unicode="&#x2265;" 
 />
    <glyph glyph-name="guillemotleft" unicode="&#xab;" horiz-adv-x="944" 
 />
    <glyph glyph-name="guillemotright" unicode="&#xbb;" horiz-adv-x="944" 
 />
    <glyph glyph-name="guilsinglleft" unicode="&#x2039;" horiz-adv-x="631" 
 />
    <glyph glyph-name="guilsinglright" unicode="&#x203a;" horiz-adv-x="631" 
 />
    <glyph glyph-name="h" unicode="h" horiz-adv-x="994" 
d="M914 686v0v-385v-15v-108v-1v-1q0 -14 -1 -29q-4 -51 -30 -88q-25 -35 -68 -47v0v0q-11 -4 -23 -5q-15 -3 -31 -2q-43 1 -83.5 27.5t-57.5 80.5q39 -1 60.5 12.5t25.5 51.5v1v1v112v403q0 139 -139 114q-101 -10 -195 -96v-423v0v-112v-1v-1q0 -14 -1 -28q-4 -52 -30 -89
q-25 -34 -67 -46q-11 -4 -23 -6q-15 -2 -31 -1q-43 1 -83 27.5t-57 79.5q39 0 60 13.5t25 52.5v111v857v111q-4 39 -25 52.5t-60 13.5q17 53 57 79.5t83 27.5q16 1 31 -1q58 -8 90 -52q26 -37 30 -89q1 -14 1 -28v-1v-1v-112v-198q94 66 212 66q170 0 250 -91.5t80 -236.5z
" />
    <glyph glyph-name="hungarumlaut" unicode="&#x2dd;" horiz-adv-x="974" 
d="M619 1126v0q-1 -1 -17 -4.5t-40 -3.5t-48 10t-41 36q-13 22 -10 48q53 -2 90 10q22 4 54.5 17t53.5 34l8 9l-6 10q-49 94 9 153q35 34 86.5 31.5t89.5 -41.5q34 -33 40 -84.5t-37 -94.5q-32 -33 -96 -71t-136 -59zM239 1136v0q-1 -1 -17 -4.5t-40 -3.5t-48 10t-41 36
q-13 22 -10 48q53 -2 90 10q22 4 54.5 17t53.5 34l8 9l-6 10q-49 94 9 153q35 34 86.5 31.5t89.5 -41.5q34 -33 40 -84.5t-37 -94.5q-32 -33 -96 -71t-136 -59z" />
    <glyph glyph-name="hyphen" unicode="-" horiz-adv-x="964" 
d="M767 755v0q42 0 79.5 -35t37.5 -91q0 -53 -34 -89.5t-83 -36.5h-570q-49 0 -83 36.5t-34 89.5q0 56 38 91t79 35h570z" />
    <glyph glyph-name="hyphen" unicode="&#xad;" horiz-adv-x="964" 
d="M767 755v0q42 0 79.5 -35t37.5 -91q0 -53 -34 -89.5t-83 -36.5h-570q-49 0 -83 36.5t-34 89.5q0 56 38 91t79 35h570z" />
    <glyph glyph-name="i" unicode="i" horiz-adv-x="556" 
d="M80 917q18 56 60 83.5t88 29.5q85 2 127 -57q27 -38 31 -92q2 -16 2 -32v-58v0v-502v-117v0v-1q4 -41 26.5 -55t63.5 -13q-18 -56 -60 -84t-88 -29q-16 0 -31 2q-62 8 -96 54q-27 39 -31 93q-2 16 -2 32v85v535v0v56q-4 42 -26 56t-64 14v0zM255 1434q55 0 93 -35.5
t38 -84.5t-38 -85t-93 -36q-52 0 -90.5 36t-38.5 85t38.5 84.5t90.5 35.5v0z" />
    <glyph glyph-name="infinity" unicode="&#x221e;" horiz-adv-x="2509" 
d="M213 713v0q-6 5 -14 5h-3l-1 -1v-1q1 -4 0 -7q-2 -6 -6 -9v0h-1v-1q-7 -4 -17 -4h-2h-2h-1q-36 2 -36 36v55q-2 36 36 36h1q1 -1 2 -1h2q10 0 17 -4v0l1 -1v0q4 -3 6 -9q1 -3 0 -6v-2h1h3q8 0 14 4q3 3 5 6q6 8 3 18v0v1v0v1l-1 1q-1 4 -4 7v1q-10 10 -24 15q-4 2 -8 2
q-8 2 -16 1h-5q-38 0 -56 -20q-17 -21 -17 -50v-55q0 -29 17 -50q18 -21 55 -21h4h1h1q8 0 16 1l8 2l1 1v0v0q13 5 23 15v0q3 4 4 7q0 1 1 1v2v0v1q3 9 -3 18q-2 3 -5 5zM166 856v0h-2h2zM254 788v0v-60q0 -29 19 -49q20 -19 57 -19t57 19q19 20 19 49v60q0 29 -19 49
q-20 20 -57 20t-57 -20q-19 -20 -19 -49zM365 786v0v-55q0 -31 -35 -33q-35 0 -36 33v55q0 30 36 33q35 0 35 -33zM578 836v0q-17 17 -44 17q-23 0 -49 -14v0h-1v0q0 1 -1 1q0 2 -1 2v1q-4 4 -12 6q-7 2 -16 -1q-6 -1 -11 -7q-6 -6 -7 -19l1 -2l2 1q6 1 10 -2q2 -2 3 -4
q1 -1 2 -3v-1v-1v-3v-2v-3v-192q0 -2 1 -9t6 -13q9 -9 26 -6q16 1 23 17l1 2h-3q-5 1 -9 4q-3 3 -5 12v52q18 -7 37 -7q66 0 66 75v45q-1 35 -19 54zM557 737v0q4 -37 -31 -37q-5 0 -15 3q-10 2 -17 7v58v36q19 9 33 9q16 0 23 -7t7 -25v-44zM794 836v0q-2 6 -8 11
q-2 2 -5 3v0q0 1 -1 1q-2 1 -5 2h-1h-1q-8 2 -16 0q-8 -3 -14 -11q12 -4 12 -13q0 -1 -1 -2v0v-1v-1q-7 -23 -13 -40q-5 -17 -11 -33l-8 -28q-6 19 -15 43l-22 63v0v0q-1 3 -2 5v0l-1 1v0v1v0q0 1 -1 1v0q-4 7 -9 11t-11 5h-1h-1h-6h-1v0l-6 -2h-1v-1q-8 -3 -13 -10t-5 -17
q12 5 18 -3v-1v-1h1v0l55 -151q-13 -46 -40 -45q-3 0 -7 2t-5 8l-1 2l-2 -1q-11 -5 -13 -13q-3 -8 -2 -14q1 -4 3 -8q5 -8 12 -12q8 -3 12 -3q3 -1 5 -1v0q6 0 10 1v0v0l4 1q31 6 47 33q15 27 27 69l39 117h-1l3 8v0v1q1 2 2 5v1v1v1v0q2 8 0 15zM950 836v0l-2 2v1l-7 7
q-8 6 -19 9q-10 2 -18 2q-15 -1 -30 -8v1q-4 4 -13 6q-3 1 -8 1v0h-1v0v0l-8 -2q-6 -1 -12 -7t-6 -20v-2h2q7 2 11 -1q3 -3 5 -6v-2v-1q1 -2 1 -4v-2v0v-3v0v-1v-1v-87v-23q-1 -8 -5 -11q-5 -2 -13 -2q4 -11 12 -17q8 -5 17 -5q17 -1 25 11q5 7 6 18v6v18v92v4v5q5 2 12 3
q10 2 18 0v0q6 -2 9 -8q1 -3 1 -6v-3h3q10 2 16 9q3 3 4 7q4 10 0 20zM996 850v0q-8 -6 -12 -16q8 0 12 -3t5 -10v-11v-101v-16q0 -3 1 -6q0 -11 5 -18q7 -9 19 -10q2 -1 5 -1q9 1 17 6t11 16q-7 0 -12 2q-4 3 -5 11v0v22v95v11v6q-1 10 -6 17q-8 11 -24 11q-9 0 -16 -5z
M1035 925v0q-7 7 -18 7q-10 0 -17 -7t-7 -16t7 -16t17 -7q11 0 18 7t7 16t-7 16zM1249 842v0q-2 3 -5 5q-9 5 -18 3h-1l-2 -1v0v0h-1q-3 -2 -7 -5v0q-2 -2 -4 -5q-1 1 -3 2q-1 0 -3 1q-1 1 -2 1q-19 10 -43 10q-34 0 -51 -19t-17 -47q0 -31 21 -50q-12 -16 -12 -28
q0 -6 2 -14t7 -15q-21 -17 -21 -41q0 -26 21 -41t54 -15q78 4 78 60q0 27 -22 40t-55 13h-15q-4 0 -9 3t-5 11q0 5 3 13q11 -4 24 -4q35 0 53 19t18 46v21q0 8 3 12v0q3 5 9 7q4 1 7 0h1l1 2v3q-1 8 -6 13zM1137 664v0h6q7 -1 15 -1h8q38 1 38 -21q-5 -26 -40 -26
q-36 1 -36 27q0 13 9 21zM1195 795v0v-12q1 -31 -31 -31q-33 3 -33 34q0 35 34 35q16 0 30 -8v-18zM1442 790v0q0 27 -15 45q-15 17 -47 17q-22 0 -40 -12v37v21v0v1v5q-1 10 -6 17q-6 8 -17 10h-6q-8 0 -15 -5q-8 -5 -11 -15q7 0 11 -3t5 -10v-21v-162v-21q-1 -7 -5 -10
t-11 -3q3 -10 11 -15q7 -5 15 -5h6l4 2q8 2 13 8q5 7 6 17v5v1v0v21v88q18 16 37 16q26 -1 26 -27v-77v-21v0v0q-1 -7 -5 -10t-11 -2q3 -11 11 -16q7 -5 15 -5q4 0 6 1q3 0 5 1q8 2 13 8q4 7 5 17v6v0v0v20v3v73zM1570 712v0q-1 1 -3 1q0 -10 -6 -13q-7 -3 -15 -1
q-13 2 -16 13q-2 10 -1 22v9v60h10h1v0h5q8 0 15 5q8 6 9 16v5q0 8 -4 14q-5 7 -14 10q0 -6 -3 -10q-2 -4 -8 -4h-1v-1l-10 1v3v9v5v17v0v0v6q-1 10 -6 17q-6 8 -18 10h-5q-9 0 -16 -5q-8 -5 -11 -16q7 1 11 -2t5 -10v-17v-118q-1 -42 13 -60q13 -18 55 -18q17 1 25 11
q7 10 5 23q-3 12 -17 18zM1872 718v0q0 -15 -17 -18h-82l4 6q21 27 49 50q17 14 33 30q11 10 20 27t9 43q-8 74 -85 74q-11 0 -24 -1q-13 -2 -24 -6q-7 -2 -14 -5q-15 -7 -20 -16q-4 -8 -2 -17v-2q1 -4 2 -7q3 -7 10 -13t17 -7q-2 7 0 13t10 10l2 2l8 4q8 3 16 5q8 1 18 1v0
q41 -3 41 -39q0 -19 -14 -35t-30 -29q-6 -4 -10 -8l-3 -3q-42 -33 -68 -79q-1 -4 -2 -9v-8q0 -9 6 -15q7 -6 17 -6h90h31q11 1 19 6q8 6 10 17l1 2v6q0 8 -5 15q-4 8 -13 12zM2006 931v0q-86 -4 -86 -86v-105q8 -79 86 -79q86 7 86 79v105q-4 86 -86 86zM2046 740v0
q-3 -40 -40 -40q-39 3 -39 40v107q1 46 39 46q40 -2 40 -46v-107zM2237 681v0q-16 0 -20 18v0v210q0 9 -7 15q-7 7 -18 7q-7 0 -13 -4l-16 -9l-15 -9q-8 -5 -9 -5q-9 -7 -13 -15q-4 -9 0 -20l1 -2q1 -3 3 -5q2 -4 7 -8q3 -2 8 -5q6 -2 14 -2q-8 14 6 25l5 3v-7v-71
q1 -40 1 -70v-34q1 -12 7 -20q6 -9 19 -12h1v0h1q4 -1 7 -1q9 1 18 6t13 15zM2343 680v0q1 2 5 11q4 10 9 21l3 6l77 180q1 2 1 5q1 3 1 5q0 9 -7 16q-7 6 -17 6h-48h-46h-23q-11 -1 -19 -7q-8 -5 -10 -17l-1 -2v-7q0 -8 5 -16q4 -8 13 -12q0 16 18 19h1h80l-82 -186
q-5 -8 -12 -9q-6 -1 -13 1q0 -11 6 -19t14 -12q3 -1 7 -2h1l1 -1h10q6 0 12 4q8 5 14 15v1z" />
    <glyph glyph-name="integral" unicode="&#x222b;" horiz-adv-x="665" 
 />
    <glyph glyph-name="j" unicode="j" horiz-adv-x="548" 
d="M467 905v0q-41 1 -63 -13.5t-26 -55.5v-44v-13v-795q0 -90 -29 -165q-50 -136 -178 -193q-1 0 -3 -1h-2q-11 -5 -51 -17.5t-91 -18.5v1q-2 0 -5 -1h-6q-11 -1 -24 -1q-64 1 -133 32q-21 9 -40 23l-2 1q-19 15 -31 32q-2 2 -4 5v0l-4 8q-2 3 -3 5q-24 47 -6 102
q6 21 19 37q26 33 69 44q7 2 14 3l10 1v-9q1 -18 9 -34q17 -34 50 -44l3 -1q5 -1 11 -3h2q36 -8 81 1l4 1t9.5 2.5t10.5 3.5q75 27 96 118q7 27 7 62v808v51q0 16 1 32q4 54 31 93q42 59 127 56q46 -1 87.5 -28.5t59.5 -84.5zM305 1427v0q56 0 97 -40t41 -95
q0 -56 -41 -96.5t-97 -40.5q-58 0 -98.5 40.5t-40.5 96.5q0 55 40.5 95t98.5 40z" />
    <glyph glyph-name="k" unicode="k" horiz-adv-x="1087" 
d="M992 176v0q15 -60 -20 -112q-14 -20 -32 -33q-59 -45 -121 -24q-25 8 -48 29q-21 15 -46 56l-214 302v-1l-8 13l-7 9v1l-27 40l-104 -98v-195q0 -13 -1 -27q-4 -48 -29 -84q-38 -52 -110 -52h-6h-1q-41 1 -79.5 26.5t-54.5 76.5l-4 15h15q34 0 48 10.5t16 37.5v1068v30
q-3 29 -18.5 38.5t-44.5 9.5h-16l4 15q18 51 56.5 76.5t79.5 26.5q76 2 116 -51q25 -36 28 -84l2 -678l363 355l23 16q28 16 57 19q63 8 112 -47q14 -17 23 -39q19 -46 5 -93l-5 -14l-13 7q-14 8 -29.5 7t-27 -5t-15.5 -7q-8 -3 -16 -9q-5 -4 -9 -8l-222 -208l88 -120
l193 -270q1 0 1.5 -1t1.5 -2l2 -3q8 -10 19 -15q30 -14 57 3l14 10z" />
    <glyph glyph-name="l" unicode="l" horiz-adv-x="496" 
d="M428 118v0l18 -1l-7 -17q-36 -83 -119 -96q-21 -4 -40 -4q-56 0 -91 31q-61 51 -61 200l2 892v8v131v4q0 30 -21 52q-8 8 -18 13l-7 3q-7 2 -13 3q-7 1 -13 1l-18 2l8 16q39 83 123 92q15 2 32 2q57 0 87.5 -21.5t43.5 -48t15 -44.5q3 -11 3 -22l-3 -1041q1 -12 0 -24
q-1 -29 4 -57q11 -61 48 -70q11 -3 27 -4z" />
    <glyph glyph-name="less" unicode="&#x3c;" horiz-adv-x="1252" 
d="M950 211v0l-3 1l-3 1q-4 2 -9 4q-14 6 -30 15l-736 353q-41 19 -64.5 41t-23.5 69q0 48 22.5 69.5t63.5 40.5l778 374q3 2 18 6q33 11 62 11q8 0 15 -1q55 -6 92 -53q2 -3 4 -5q11 -15 18 -28q18 -35 19 -78.5t-24 -84.5q-7 9 -15 16q-39 39 -94 26q-5 -1 -9 -2
l-630 -291l41 -19l222.5 -103l221.5 -102t106 -49l23 -11q11 -4 22 -7q55 -12 95 26v0q7 7 15 17q24 -42 23 -85.5t-19 -77.5q-7 -14 -18 -29l-4 -4q-37 -48 -92 -54q-38 -4 -83 12z" />
    <glyph glyph-name="lessequal" unicode="&#x2264;" 
 />
    <glyph glyph-name="lira" unicode="&#x20a4;" 
 />
    <glyph glyph-name="logicalnot" unicode="&#xac;" 
 />
    <glyph glyph-name="m" unicode="m" horiz-adv-x="1555" 
d="M1473 158v0v-5v-1q1 -9 0 -17q-1 -51 -36 -92.5t-114 -41.5h-3q-16 0 -31 2q-64 8 -102 60l-10 14l16 5q17 5 31.5 18.5t21.5 45.5q4 14 4 29q1 8 2 15v11v22.5v22v9.5v372q0 102 -49 151q-40 40 -108 40q-75 0 -180 -65v-25v-9v-121v0v0l-2 -440l1 -5v-1v-17
q-2 -51 -36.5 -92.5t-113.5 -41.5h-4q-16 0 -30 2q-65 8 -102 60l-11 14l17 5q16 5 30.5 18.5t22.5 45.5q3 14 4 29q1 8 1 15v11t0.5 22.5t0.5 22v9.5v372q0 102 -50 151q-40 40 -107 40q-76 0 -181 -65v-25v-9l1 -568v-15q-2 -51 -36.5 -92.5t-113.5 -41.5h-3q-16 0 -31 2
q-64 8 -101 59l-11 13l17 6q16 5 31.5 18.5t21.5 44.5l1 6q3 16 3 31v664q-1 11 -4 24q-18 51 -58 68l-12 5l5 12q35 74 108 84q14 2 31 2v0q41 0 69 -20t49 -45q117 65 242 65q157 0 248 -90q4 -4 8 -9l4 -4l25.5 17t36.5 23q115 63 237 63q157 0 249 -90
q103 -106 103 -297z" />
    <glyph glyph-name="minus" unicode="&#x2212;" horiz-adv-x="2249" 
d="M447 812v0q5 0 9 1q26 8 42.5 15t17.5 8q11 5 15 16.5t-1 22.5t-16 15t-23 -1l-15 -6t-37 -14q-12 -4 -17.5 -14t-2.5 -22q9 -21 28 -21zM181 1v0q14 0 18 2q7 1 12 5l218 157.5l171 121.5t71 50l13 10q87 63 154.5 105.5t114.5 47.5q68 6 106.5 1t55.5 -13.5t21 -15.5
q14 -19 -1 -57q-5 -11 -5.5 -27t9.5 -37q31 -56 126 -108t207.5 -93t196.5 -63q263 -74 390 77q40 50 40.5 120.5t-14.5 129t-23 75.5q-16 62 -60 83q-20 9 -38.5 9t-30.5 -3.5t-15 -4.5l-1 -1q-33 -16 -52 -6q-15 10 -23 28.5t-10 30.5q10 113 -46 175q-37 37 -74 46
q4 7 9 13q48 69 98 182q27 68 39 146q7 47 -16.5 85.5t-68.5 54.5q-50 16 -104.5 40t-85.5 45q-51 43 -69 117q-9 29 -21 58q-37 78 -113 99q-25 7 -60.5 1t-77.5 -39q-15 -13 -50.5 -40t-70.5 -50q-37 -25 -202 -90q-57 -20 -133 -37.5t-130 -27.5q-38 -8 -56 -43
q-17 -35 0 -70q21 -42 29 -69.5t16 -71.5v0q3 -21 9 -48q5 -40 -22 -80t-61 -70q-9 -9 -9.5 -20.5t7.5 -21.5q9 -9 20.5 -9.5t20.5 7.5q119 109 101 206q-5 26 -8 46q0 1 -1 1q-7 44 -16 76.5t-33 79.5q-4 9 0 18t14 11q66 12 141.5 30t131.5 38q172 67 213 95
q37 24 74 52.5l53 41.5q44 37 86 27q48 -14 73 -66q10 -25 19 -53q13 -40 32.5 -78.5t58.5 -67.5q36 -25 94.5 -50.5t110.5 -42.5q24 -9 37 -29.5t9 -45.5q-11 -71 -36 -133q-47 -106 -93 -172l-22 -36q-3 -5 -6.5 -13.5t-3 -18.5t8.5 -19q9 -8 20 -9q1 1 13 -1t29 -9.5
t33 -24.5q38 -44 30 -134v-6q1 -5 6 -24.5t19 -42.5t39 -38q16 -10 42 -11.5t63 15.5q1 1 6.5 2t13 1t15.5 -3q19 -10 29 -46q0 -2 1 -3q11 -29 22.5 -80t11 -103t-25.5 -84q-31 -43 -106 -70t-224 10q-168 47 -313.5 112.5t-179.5 121.5q-4 7 -3.5 11t1.5 5q15 43 10.5 71
t-17.5 43q-49 68 -235 52q-58 -6 -130.5 -50.5t-167.5 -114.5l-13 -9q-4 -3 -70 -49.5l-168.5 -119.5l-216.5 -156q-4 0 -10 1t-9 5q-17 14 21 107q1 3 27 61.5t68.5 144.5t91.5 172q7 12 2 26q-1 2 -16 44.5t-29 110.5q-3 21 3 33.5t16 18.5t15 8q12 4 17 15t0 23
q-4 11 -15 16t-23 1q-85 -37 -71 -127q25 -111 43 -152q-49 -86 -90 -170.5t-66.5 -141.5t-26.5 -60q-53 -117 -13 -167q15 -17 32.5 -22.5t31.5 -5.5zM1391 1036v0q11 0 20 8l158 151q9 9 9.5 20.5t-8.5 20.5t-20.5 9.5t-20.5 -8.5l-158 -150q-9 -9 -9.5 -21t8.5 -21t21 -9
zM1549 1036v0q12 0 21 9t8.5 21t-9.5 21l-158 150q-9 9 -20.5 8.5t-20.5 -9.5t-8.5 -20.5t9.5 -20.5l158 -151q9 -8 20 -8zM601 -24v0h3q12 2 19.5 11t7.5 21v0q-2 5 -2 65q0 24 1 49q0 13 -8 21.5t-21 9.5q-12 0 -20.5 -8t-9.5 -20q-1 -27 -1 -52q0 -64 2 -70v0
q1 -11 9.5 -19t19.5 -8zM609 212v0q11 0 19 7t10 19q6 58 17 114q2 13 -4.5 22.5t-18.5 12.5q-13 2 -22.5 -5t-12.5 -19q-11 -58 -17 -119q-2 -12 5.5 -21t20.5 -11h3zM653 443v0q10 0 17.5 6t10.5 15q16 57 36 110q5 11 0 22t-16 16q-12 4 -23 -1t-16 -16q-21 -55 -37 -115
q-3 -12 2.5 -22t17.5 -14q4 -1 8 -1zM738 662v0q16 0 26 16q27 52 59 98q7 10 5 21.5t-13 19.5q-10 7 -21.5 4.5t-19.5 -12.5q-33 -49 -62 -104q-5 -11 -1.5 -22.5t14.5 -17.5q6 -3 13 -3zM872 855v0q12 0 22 10q38 42 82 77q9 8 10.5 20t-6.5 22q-8 9 -19.5 10.5
t-21.5 -6.5q-47 -38 -89 -84q-8 -9 -7.5 -21t9.5 -20t20 -8zM1054 1003v0q8 0 15 4q48 28 101 50q12 6 16.5 16.5t-0.5 22.5q-5 11 -16 15.5t-22 0.5q-57 -24 -109 -54q-11 -7 -14 -18.5t4 -22.5q10 -14 25 -14zM1270 1093v0q4 0 8 1q26 7 53 13q13 3 19 13t4 22
q-3 12 -13 18.5t-22 4.5l-57 -14q-12 -4 -17.5 -14t-2.5 -22q3 -10 10.5 -16t17.5 -6z" />
    <glyph glyph-name="multiply" unicode="&#xd7;" horiz-adv-x="787" 
d="M537 1102v0q29 29 68 30.5t66 -26.5q29 -29 24.5 -68.5t-29.5 -64.5l-139 -139l153 -153q27 -26 25.5 -66t-29.5 -68q-29 -29 -68 -30t-66 26l-153 153l-139 -139q-25 -25 -64.5 -29.5t-68.5 24.5q-27 27 -26 66t30 68l139 139l-153 153q-27 27 -25.5 65.5t30.5 67.5
q28 28 67.5 29.5t65.5 -24.5l153 -152z" />
    <glyph glyph-name="n" unicode="n" horiz-adv-x="1004" 
d="M922 157v0v-5v-1q1 -9 0 -17q-1 -51 -35.5 -92.5t-113.5 -41.5h-4q-16 0 -30 2q-65 8 -102 60l-10 14l16 5q16 5 30.5 18.5t22.5 45.5q3 14 4 29q1 8 1 15v11t0.5 22.5t0.5 22v9.5v371q0 102 -49 152q-40 39 -108 39q-75 0 -180 -65v-25v-9l1 -567v-15
q-2 -51 -36.5 -92.5t-113.5 -41.5h-3q-16 0 -31 2q-64 8 -101 59l-10 14l16 5q16 5 31.5 18.5t21.5 45.5l1 5q4 16 3 31v664q-1 10 -4 23q-17 52 -57 68l-13 5l6 13q34 73 107 84q14 1 31 2v0q41 0 69 -20t49 -46q117 66 241 66q157 0 248 -91q103 -106 103 -296z" />
    <glyph glyph-name="nine" unicode="9" horiz-adv-x="1109" 
d="M207 72v0q-44 32 -58 77q-23 82 26 152q41 54 105 64q-5 -25 1.5 -55t38.5 -54q75 -43 139 -51l20 -3v0v0h4q3 -1 6.5 -1t6 -0.5t3.5 -0.5h15h2l5 1q147 11 193.5 117t51.5 237l3 40l-34 -21q-91 -58 -211 -58q-153 0 -298.5 99t-145.5 344q0 169 105 317.5t364 148.5
q480 0 469 -679q0 -748 -494 -751q-43 0 -80 4q-161 16 -237 73zM765 804v0l7 6v33q0 45 -9.5 132.5t-58.5 160t-165 72.5q-205 0 -215 -247q0 -224 221 -232q128 0 220 75z" />
    <glyph glyph-name="numbersign" unicode="#" horiz-adv-x="1286" 
d="M995 790v0l-28 -162h87q38 0 72.5 -27t34.5 -70q0 -42 -31 -70t-77 -28l-118 -1l-32 -188q-3 -20 -9 -40q-15 -62 -52 -105q-10 -11 -21 -20l-5 -4q-12 -9 -25 -16q-39 -21 -88 -21h-8q-14 1 -28 4l-4 1q-13 3 -24 7l-4 2q-18 8 -33 20q61 54 82 167l33 192l-196 -1
l-31 -186q-4 -20 -9 -40q-15 -62 -53 -105q-9 -11 -21 -20l-4 -4q-12 -9 -25 -16q-40 -21 -88 -21h-9q-13 1 -27 4l-4 1q-13 3 -24 7l-4 2q-18 8 -33 20q60 54 82 167l32 189h-116q-46 0 -76.5 28t-30.5 69q0 43 34.5 70.5t72.5 27.5l149 1l27 162l-131 -1q-46 0 -76.5 28
t-30.5 69q0 43 34.5 69.5t72.5 26.5l164 1l32 189q3 19 8 40q15 61 53 104q56 65 148 61q53 -3 92 -34q-61 -54 -83 -167l-32 -192l195 2l32 186q3 19 9 40q14 61 52 104q56 65 149 61q52 -3 91 -34q-61 -54 -83 -167l-32 -189l72 1q38 0 72.5 -27t34.5 -69t-31 -70t-76 -28
h-104zM750 626v0l27 162l-196 -1l-27 -162z" />
    <glyph glyph-name="o" unicode="o" horiz-adv-x="966" 
d="M80 359v0q0 -152 102.5 -257.5t300.5 -105.5t300.5 105.5t102.5 257.5v316q0 154 -102.5 258.5t-300.5 104.5t-300.5 -104.5t-102.5 -258.5v-316zM670 372v0q0 -162 -188 -174q-186 0 -188 174v293q0 159 188 172q186 0 188 -172v-293z" />
    <glyph glyph-name="ogonek" unicode="&#x2db;" horiz-adv-x="1024" 
 />
    <glyph glyph-name="one" unicode="1" horiz-adv-x="770" 
d="M690 108v0q-26 -53 -72 -79.5t-94 -27.5q-17 -1 -38 2q-3 0 -5 1h-1l-6 1q-65 13 -100 61q-33 46 -37 109q0 15 -0.5 175.5t-1 371.5t-0.5 376v36l-29 -15q-71 -60 -30 -130q-43 -3 -73.5 10t-46.5 27q-22 18 -36 39q-9 13 -16 30l-4 10q-20 55 1 103q20 46 67 78
q6 4 47 27l81.5 47.5l83.5 48.5q32 20 70 20q56 0 94 -33t38 -83v-1106v-3q19 -95 108 -96z" />
    <glyph glyph-name="p" unicode="p" horiz-adv-x="998" 
d="M817 930v0q100 -101 101 -288v-234q0 -401 -348 -398q-102 0 -195 37l1 -278q7 -47 26 -63t48 -17l15 -1l-6 -13q-38 -81 -119 -91q-90 -12 -138 35q-31 33 -36 67.5t-2 48.5l1 1014v16q0 5 -0.5 12t-1 12t-0.5 6t-2 8t-7.5 17.5t-17.5 18.5q-21 14 -54 8l-11 -3l-1 12
q2 69 32.5 99.5t59.5 37.5q47 13 88 3.5t59 -32.5l3 -3q3 -3 6 -9q2 -2 5 -6l1 -1l1 -2v0h1v0q136 74 259 74q144 0 232 -87zM708 406v0v234q0 94 -39 131q-34 36 -119 36q-73 0 -173 -47l-1 -188l-1 -310v0q35 -24 87.5 -38t83.5 -14q183 0 162 196z" />
    <glyph glyph-name="paragraph" unicode="&#xb6;" horiz-adv-x="1024" 
d="M929 1435v-70h-127v-1365h-82v1365h-166v-1365h-84v738q-174 8 -275.5 102.5t-101.5 245.5q0 157 107.5 253t285.5 96h443z" />
    <glyph glyph-name="parenleft" unicode="(" horiz-adv-x="704" 
d="M223 1340v0q30 70 59 121q16 28 52 64q106 85 210 36q42 -21 66 -58q-50 -28 -101 -108q-2 -3 -6.5 -10.5l-9.5 -15.5l-15 -27l1 -1l-4 -8q-20 -38 -38 -79q-112 -264 -112 -570q0 -311 117 -579l1 -3q3 -8 11 -25.5l24 -50.5l5 -10l-2 -1l19 -30q3 -6 7 -12.5t6 -9.5
l12 -18q46 -66 89 -90q-24 -37 -66 -58q-44 -22 -94 -17q-62 8 -115 52q-24 24 -40 45q-8 11 -13 20q-23 42 -39 77l-3 5q-3 8 -6 15v0l-11 25q-137 312 -137 665q0 347 133 656z" />
    <glyph glyph-name="parenright" unicode=")" horiz-adv-x="704" 
d="M481 1340q133 -309 133 -656q0 -353 -137 -665l-11 -25v0q-3 -7 -6 -15l-3 -5q-16 -35 -39 -77q-5 -9 -13 -20q-16 -21 -40 -45q-53 -44 -115 -52q-50 -5 -94 17q-42 21 -66 58q43 24 89 90l12 18q2 3 6 9.5t7 12.5l19 30l-2 1l5 10l24 50.5t11 25.5l1 3q117 268 117 579
q0 306 -112 570q-18 41 -38 79l-4 8l1 1l-15 27l-9.5 15.5t-6.5 10.5q-51 80 -101 108q24 37 66 58q104 49 210 -36q36 -36 52 -64q29 -51 59 -121v0z" />
    <glyph glyph-name="partialdiff" unicode="&#x2202;" horiz-adv-x="2162" 
d="M1024 828v0q-59 86 -135.5 153.5t-201.5 71.5q-13 0 -28 -1q61 119 134 200.5t169 84.5q115 -6 187.5 -117.5t131.5 -258.5l21 -50q-2 -5 -2 -6l-30 -60v-1q-45 -105 -107 -171q-77 63 -139 155zM1338 920v0q34 65 80.5 108.5t113.5 45.5q78 -3 129 -65t96 -149l8 -14
q1 -3 3 -5q1 -2 2 -3q-9 0 -18 1h-1q-66 0 -114 -35t-91 -79q-29 -29 -58 -53l-1 -1q-2 -1 -3 -2t-2 -1q-41 42 -77.5 112t-66.5 140zM2072 552v0q8 -3 9 -8t-2 -9t-7 -4h-682v0h-1h-318q-6 0 -9.5 -4t-3.5 -9q0 -6 3.5 -9.5t9.5 -3.5h272q-43 -47 -79 -122
q-28 -58 -61 -102t-77 -46q-44 1 -78 29t-64 65t-63.5 65t-77.5 30v0q-72 -3 -113.5 -56.5t-72.5 -124.5q-30 -70 -71.5 -124t-113.5 -57q-72 4 -117 73.5t-81 160.5q-49 137 -124 209h95h122h7h2v0q34 4 61 26v1h1q61 58 107 155q33 65 70 115.5t85 53.5v0q50 0 87 -37.5
t72 -86.5q36 -52 78.5 -93.5t101.5 -41.5v0q73 0 133 49v0q1 0 2 1q0 1 1 1q71 72 118 185l23 46q1 2 2 5q2 3 4 7q59 -144 139 -239q-3 -2 -5 -3q-14 -9 -30 -17q-41 -19 -83 -19q-69 1 -125 27q-5 2 -10 0t-8 -6v-1v0q-2 -5 0 -10t7 -7q62 -29 136 -29v0q49 0 94 21
q38 18 66 43l1 1q32 26 61 55q38 39 78.5 68.5t91.5 35.5q8 1 16 1h1v0h3h2h1q5 0 10 -1q8 0 15 -2h1v0h1h1v0v0q17 -4 32 -10q74 -40 131 -126q54 -80 123 -121zM662 505v0q6 0 9.5 3.5t3.5 9.5q0 5 -3.5 9t-9.5 4h-161q-6 0 -10 -4t-4 -9q0 -6 4 -9.5t10 -3.5h161z
M740 505v0q5 0 9 3.5t4 9.5q0 5 -4 9t-9 4h-30q-5 0 -9 -4t-4 -9q0 -6 4 -9.5t9 -3.5h30zM930 505v0q5 0 9 3.5t4 9.5q0 5 -4 9t-9 4h-71q-5 0 -9 -4t-4 -9q0 -6 4 -9.5t9 -3.5h71zM1022 505v0q5 0 9 3.5t4 9.5q0 5 -4 9t-9 4h-34q-6 0 -9.5 -4t-3.5 -9q0 -6 3.5 -9.5
t9.5 -3.5h34zM246 531v0v0h-1h-150v0h-3v0v0v1q-9 4 -10.5 11t1.5 12.5t7 7.5q95 38 161 105t119 142q57 78 120 138.5t153 75.5v0h1v0h1q22 3 42 3v0v0q14 0 28 -1l1 -1v0q101 -12 166 -72.5t121 -140.5q60 -89 139 -156q-47 -33 -103 -33v0q-50 0 -87 37.5t-72 86.5
q-36 52 -78.5 93.5t-101.5 41.5v0q-59 -3 -101 -57.5t-77 -124.5q-31 -63 -66.5 -112.5t-81.5 -55.5v0h-122h-1q-2 0 -4 -1v0h-1zM1372 1188v0q-39 0 -67 28t-28 67q0 40 28 67.5t67 27.5q40 0 68 -27.5t28 -67.5q0 -39 -28 -67t-68 -28zM1174 663v0l-2 2v0h1q0 -1 1 -1v0
v-1z" />
    <glyph glyph-name="percent" unicode="%" horiz-adv-x="1610" 
d="M712 1100v0q0 -306 -309 -336q-280 0 -308 336q0 312 308 337q286 0 309 -337zM299 1104v0q0 -65 18 -96.5t42.5 -42t43.5 -10.5q20 0 44.5 10.5t42.5 42t18 96.5q0 135 -105 142q-100 0 -104 -142zM1214 674v0q281 0 308 -336q0 -312 -308 -337q-285 0 -308 337
q0 306 308 336zM1214 192v0q19 0 44 10.5t43 42.5t18 97q0 134 -105 141q-100 0 -105 -141q0 -65 18 -97t42.5 -42.5t44.5 -10.5zM557 47v0q-15 -65 32 -116q-44 -17 -86 -10.5t-71 24.5q-14 9 -28 20q-2 3 -6 6q-12 11 -24 28q-9 12 -15 28q-10 22 -10 43q-2 35 14 77l4 9
v2q4 9 10 21q8 14 20 33l648 1134q5 10 10 24q2 4 3 10q22 71 -30 127q45 17 86.5 10.5t70.5 -24.5q15 -9 28 -20q2 -3 6 -6q12 -11 25 -28q23 -34 25 -71q1 -36 -15 -77l-4 -11q-4 -10 -10 -20l-65.5 -115.5l-138.5 -241.5l-124 -217l-339 -594q-6 -11 -10 -25q-3 -5 -4 -9
t-2 -11z" />
    <glyph glyph-name="period" unicode="." horiz-adv-x="445" 
d="M222 10v0q-58 0 -100 39t-42 92q0 54 41.5 92t100.5 38q58 0 100.5 -38.5t42.5 -91.5t-42.5 -92t-100.5 -39z" />
    <glyph glyph-name="periodcentered" unicode="&#xb7;" horiz-adv-x="445" 
d="M222 557v0q-58 0 -100 39t-42 92q0 54 41.5 92t100.5 38q58 0 100.5 -38.5t42.5 -91.5t-42.5 -92t-100.5 -39z" />
    <glyph glyph-name="periodcentered" unicode="&#x2219;" horiz-adv-x="445" 
d="M222 557v0q-58 0 -100 39t-42 92q0 54 41.5 92t100.5 38q58 0 100.5 -38.5t42.5 -91.5t-42.5 -92t-100.5 -39z" />
    <glyph glyph-name="peseta" unicode="&#x20a7;" horiz-adv-x="2028" 
 />
    <glyph glyph-name="plus" unicode="+" horiz-adv-x="1117" 
d="M207 674v0q-49 0 -83 32t-34 78q0 49 37.5 79t79.5 30h235v258q0 45 34.5 77.5t81.5 32.5q50 0 83.5 -32t33.5 -78v-258h235q42 0 79.5 -30t37.5 -79q0 -46 -34 -78t-83 -32h-235v-258q0 -47 -33.5 -78t-83.5 -31q-47 0 -81.5 32.5t-34.5 76.5v258h-235z" />
    <glyph glyph-name="product" unicode="&#x220f;" horiz-adv-x="2159" 
d="M339 1310v0q-5 2 -9 2h-1h-1q-4 1 -9 1q-11 -1 -20 -8q-8 -6 -14 -17v-1v-1v-1q-1 -1 -2 -3q-1 -3 -3 -7v-1v0l-4 -12l-16 -50l-19 -60q-10 -29 -13 -40q-3 10 -12 35q-8 26 -18 55l-24 71v0l-1 1l-2 8q-1 2 -3 5q-5 11 -13 17q-13 10 -30 8v0l-1 -1q-4 0 -9 -2
q-12 -4 -21 -15t-10 -27q19 6 27 -6q2 -3 3 -6l29 -85l25 -72l20 -61q7 -31 40 -31q29 0 38 32l30 87l30 91q7 18 14 40q1 3 3 5q8 13 27 6q-1 17 -10 28t-21 15zM434 1301v0q-12 -8 -17 -24q12 0 18 -5q7 -4 8 -16v-17v-157v-25q0 -5 1 -10q1 -16 9 -27q10 -14 28 -16
q4 -1 9 -1q14 1 26 9t18 25q-12 -1 -19 4q-7 4 -8 16v0v34v148v17v10q-2 16 -9 27q-13 17 -38 17q-13 -1 -26 -9zM495 1418v0q-11 11 -27 11q-15 0 -27 -11q-11 -10 -11 -25q0 -14 11 -25q12 -10 27 -10q16 0 27 10q12 11 12 25q0 15 -12 25zM647 1230v0q0 13 7 19q8 6 17 7
q10 2 17 2q11 0 19 -2q11 -2 17 -8l1 -1q6 -5 7 -15q0 -4 -1 -9l-1 -3l3 -1q14 -3 26 3q5 3 9 7q10 12 9 26l-1 4v2q-1 3 -3 8v1v0q-1 1 -1 2h-1q-7 13 -19 22q-12 8 -23 12q-14 5 -30 6h-3h-8q-103 -8 -103 -88q0 -45 26 -63q27 -17 58 -26q18 -6 32 -13q13 -6 18 -18
q2 -5 2 -10q0 -31 -43 -34q-16 -2 -31 3q-8 3 -13 8h-1q-7 6 -7 15q0 5 1 9l1 4h-3q-14 4 -26 -3q-5 -2 -9 -6q-10 -12 -9 -27v-3q0 -1 1 -1v-1q0 -1 1 -2v-1q0 -3 2 -6v-1q1 0 1 -1l1 -1q7 -12 19 -21t23 -13l14 -4v0h2h2h1q13 -2 24 -2v0h5q104 0 107 88v1v0q0 45 -27 64
q-27 18 -57 27q-22 7 -38 17q-15 9 -15 27zM848 1301v0q-12 -8 -17 -24q12 0 19 -5q6 -4 7 -16v-17v-157v-25q0 -5 1 -10q1 -16 9 -27q10 -14 28 -16q5 -1 9 -1q14 1 26 9q13 8 18 25q-12 -1 -19 4q-6 4 -8 16v0v34v148v17v10q-1 16 -9 27q-13 17 -38 17q-13 -1 -26 -9z
M910 1418v0q-12 11 -28 11q-15 0 -26 -11q-12 -10 -12 -25q0 -14 12 -25q11 -10 26 -10q16 0 28 10q11 11 11 25q0 15 -11 25zM1147 1087v0q-2 1 -5 2q-1 -15 -11 -20q-9 -5 -22 -3q-21 4 -25 20t-2 36v13l1 93h15v0h1h7q14 1 24 8q13 9 14 25q1 4 1 8q0 12 -8 23
q-7 10 -21 15q0 -10 -4 -16q-3 -6 -14 -7v0v0h-15v5v14v8v27v0v0q0 4 -1 9q-1 15 -9 26q-10 14 -28 16h-8q-14 0 -26 -8q-11 -8 -17 -24q12 0 18 -4q7 -4 8 -15v-27v-184q-1 -65 19 -93q21 -28 87 -28q26 2 38 17q12 16 8 35t-25 29zM1491 1058v0l-1 5l-4 -3q-8 -5 -17 -1
q-3 2 -5 5l-1 1v0l-1 1l-57 79l-25 35l65 62l2 2q3 2 5 3q1 1 5 2q3 1 8 1q4 1 8 -2l4 -2l2 4q4 14 -2 28q-2 6 -7 11q-14 16 -33 14q-8 -1 -16 -6q-4 -2 -7 -4l-107 -105v200q-1 14 -9 25q-11 15 -34 15q-12 -1 -23 -8q-11 -8 -17 -23l-1 -4h5q8 0 13 -3q4 -3 5 -11v-9
v-315q0 -8 -4 -11q-5 -3 -15 -3h-4l1 -4q5 -15 16 -23q12 -7 24 -8v0h2q21 0 32 16q7 10 9 24v8v58l30 29l8 -12v0l2 -3l3 -4v0l63 -89q7 -12 13 -16q7 -6 14 -9q19 -6 36 7q5 4 9 10q11 16 6 33zM1696 1307v0q-14 5 -28 6h-4h-3h-1h-4h-5q-26 0 -46 -9q-12 -4 -24 -15
q-13 -10 -20 -24h-1q-3 -6 -4 -12v-2v0v-3v-2q-1 -15 11 -26q4 -5 10 -7q13 -7 27 -2l3 1l-2 2q-2 5 -2 10q0 11 8 18h1q8 9 24 13q23 6 44 -5q2 -1 4 -3v0q0 -1 1 -1v0v0l1 -1q1 0 1 -1q13 -12 13 -31v-33h-2q-25 4 -50 4q-32 0 -55 -9q-4 -1 -8 -3q-42 -20 -42 -75
q0 -41 22 -63q26 -26 80 -27h2h2h1h1q40 1 67 18h1v0q7 -8 14 -12q7 -3 14 -4q15 1 23 8t10 15q3 9 3 15v3l-2 -1q-6 0 -11 3q-5 4 -7 12h-1v4v4v115v3v21q0 11 -3 23t-7 21l-3 6q-16 35 -53 46zM1701 1128v0l-1 -30v-4v-1v0q-1 -1 -1 -3q-3 -10 -9 -17l-1 -1v0v0v0h-1v-1
q-14 -13 -39 -13h-7t-7 1v0q-15 2 -24 10q-9 7 -9 27q0 23 19 33q1 0 3 1h1q10 4 24 4q7 0 21 -1q15 -2 30 -5h1zM1987 1306v0q-44 0 -69 -19v56v33q0 4 -1 8q-1 16 -8 27q-10 13 -28 15q-4 1 -9 1q-13 0 -25 -8t-17 -24q12 0 18 -4q7 -4 8 -16v-33v-242q5 -94 114 -94
q57 0 85 30q28 31 28 75v102q0 40 -22 66q-22 27 -74 27zM2021 1117v0q0 -41 -39 -49q-6 -1 -12 -1q-13 0 -22 3q-14 5 -22 15q-5 6 -7 15q-1 4 -1 9v114q6 6 24 15q19 9 47 8q32 1 32 -31v-98zM382 484v0l-2 5l-4 -3q-8 -5 -17 -1q-3 2 -5 5l-1 1v0q0 1 -1 1l-56 79l-26 36
l65 61q1 1 3 2q2 2 4 3t5 2t8 1q4 1 9 -2l3 -2l2 4q4 14 -2 28q-2 6 -6 11q-15 16 -33 14q-9 -1 -17 -5q-4 -3 -7 -5l-107 -105v200q-1 14 -8 25q-12 15 -35 15q-12 -1 -23 -8q-11 -8 -17 -23l-1 -4h5q9 0 13 -3q5 -3 6 -11v-9v-315q-1 -8 -5 -11t-14 -3h-5l1 -4
q5 -15 17 -23q11 -7 23 -8v0h2q21 0 32 16q8 10 9 24v8v58l31 29l8 -12v0l2 -3l2 -4v1l63 -89q7 -13 14 -17q6 -6 14 -9q18 -6 35 8q6 3 10 9q10 16 6 33zM626 536v0q-15 6 -34 -3l-4 -1l3 -4q5 -8 3 -15q-3 -13 -28 -20q-28 -6 -49 5q-7 3 -14 12q-6 8 -6 23v26
q25 -4 50 -4q106 0 107 88q-1 44 -26 69q-27 27 -79 27q-106 0 -116 -101v-102q0 -4 1 -15q0 -11 3 -20q23 -61 98 -68h16q25 0 47 9q17 7 31 22q14 14 18 30v5q1 16 -11 29q-4 5 -10 8zM497 615v0v27q2 44 50 44q22 0 33 -10q10 -11 10 -32q4 -34 -43 -34q-7 0 -22 1
q-14 1 -28 4zM951 479v0l1 146q0 56 -30 87q-27 27 -73 27q-37 0 -71 -20q-6 8 -15 14q-8 6 -20 6q-5 0 -9 -1q-22 -3 -32 -24l-1 -4l3 -2q12 -5 17 -20q1 -4 1 -7v-195q1 -5 0 -9l-1 -2q-2 -9 -6 -13q-5 -4 -9 -6l-5 -1l3 -4q11 -15 30 -18h9h1q23 0 33 12t11 27v5l-1 167
v2v8q31 19 53 19q20 0 32 -12q15 -14 15 -44v-110q0 -5 -1 -9v-7v-3v-4q0 -5 -1 -9q-3 -9 -7 -13t-9 -6l-5 -1l3 -4q11 -16 30 -18q5 -1 9 -1h1q24 0 34 13q10 12 10 27q1 2 0 5v0v2zM1252 485v0l-4 -1q-10 -2 -16 2q-3 2 -5 5q-2 4 -2 6l-1 2v2v4v3v300q1 4 -1 14
q-1 11 -10 21q-15 13 -41 10q-25 -3 -36 -27l-2 -4l4 -1q9 0 15 -5t8 -19v-73q-28 11 -58 11q-104 1 -104 -120v-70q0 -56 30 -86q26 -26 69 -26q37 0 78 22v0l1 -1q0 -1 1 -2q1 -2 2 -3v-1q6 -6 18 -9q13 -3 26 1q9 2 18 11q10 9 10 30v4zM1161 566v0l-1 -56
q-29 -14 -51 -14q-26 0 -36 10q-11 12 -11 40v70q0 32 10 45q10 12 38 12q9 0 25 -4q15 -4 26 -11v-1v-91zM1451 733v0q-13 5 -27 6h-4h-3h-1h-4h-5q-26 0 -47 -9q-11 -4 -23 -15q-13 -10 -21 -24v0q-3 -6 -4 -12v-1v-1l-1 -3v-1q0 -15 12 -27q4 -5 9 -7q13 -7 28 -2l2 1
l-1 2q-2 5 -2 10q0 11 8 18v0q9 9 24 13q24 6 44 -5q2 -1 4 -3q1 0 1 -1v0h1v-1q1 0 2 -1q13 -12 13 -31v-33h-2q-25 4 -50 4q-33 0 -55 -8l-8 -4q-42 -20 -42 -75q0 -41 22 -63q26 -26 79 -27h3h2h1h1q40 1 67 18l1 1v-1q6 -8 14 -12q6 -3 14 -4q15 1 23 8t10 15q3 9 3 15
v3l-3 -1q-5 0 -10 3q-5 4 -7 12h-1v5v3v115v4v20q0 11 -3 23q-3 13 -7 21l-3 6q-16 35 -54 46zM1457 554v0l-1 -30v-3v-2v0q-1 -1 -2 -3q-2 -10 -8 -17l-1 -1h-1v-1q-14 -13 -39 -13h-7q-4 0 -7 1v0q-16 2 -24 10q-9 8 -9 27q0 23 19 33q1 1 3 1h1q10 4 23 4q7 0 22 -1
q15 -2 30 -5h1zM1698 467v0q-4 0 -8 1q-10 2 -14 20q-1 8 0 17v7v302v6q-1 6 -5 14q-4 7 -12 14q-9 6 -26 6q-5 0 -9 -1q-24 -2 -36 -27l-2 -4l5 -1h4v0q2 -1 4 -1l2 -1q3 -1 5 -4q6 -6 6 -15v-1v-38v-2l-1 -260q0 -43 18 -58q10 -9 27 -9q5 0 11 2q24 3 34 28l3 5h-6z
M135 -14v0q17 0 29 12q13 11 13 27t-13 27q-12 11 -29 11q-18 0 -30 -11t-12 -27t12 -27q12 -12 30 -12zM435 66v0q-9 7 -21 7h-4l-3 -1v-2q1 -5 0 -10q-2 -9 -9 -14q-1 0 -1 -1v0l-1 -1q-10 -6 -26 -6q-2 -1 -3 -1h-3h-2q-55 4 -55 57v84q-5 57 55 57h2q1 -1 3 -1h3
q16 0 26 -7h1v-1h1q7 -5 9 -14q1 -5 0 -10v-3h3h4q12 0 21 7q5 4 8 9q9 13 6 28l-1 1v0v0v2q-1 1 -1 2q-2 6 -7 11v0q-16 17 -37 25q-7 2 -13 3q-11 2 -24 2h-9q-59 0 -86 -32q-28 -32 -28 -79v-84q0 -46 28 -79q27 -32 86 -32h6h1h2q13 -1 24 2q6 1 13 3l1 1v0h1
q20 7 35 23v1q5 5 7 10q0 2 1 2v3v0l1 1q3 15 -6 28q-3 5 -8 9zM322 289v0h-3h3zM499 182v0v-93q0 -45 30 -76q31 -31 89 -31t88 31t30 76v93q0 46 -30 76q-30 31 -88 31t-89 -31q-30 -30 -30 -76zM673 179v0v-86q0 -48 -56 -51q-54 0 -55 51v86q0 47 55 51q55 0 56 -51z
M1199 30v0v146q0 56 -30 88q-27 26 -73 26q-36 0 -70 -18q-6 -4 -10 -7q-5 -3 -8 -5l-1 1v0l-3 3q-26 26 -72 26q-37 0 -72 -19q-6 7 -14 13t-20 6h-9q-22 -3 -32 -25l-2 -4l4 -1q12 -5 17 -20q1 -4 1 -7v-196q0 -4 -1 -9v-2q-2 -9 -6 -13q-5 -4 -10 -5l-5 -2l4 -4
q10 -15 29 -17q5 -1 9 -1h1q24 0 34 12t10 27v5v167v3v7q31 19 53 19q20 0 32 -11q15 -15 15 -45v-110q0 -5 -1 -9v-6v-4v-4q0 -4 -1 -9q-3 -9 -7 -13t-9 -5l-5 -2l3 -4q11 -15 30 -18h9h1q24 0 34 12t10 27v5v0v2l1 130v35v3v7q31 19 53 19q20 0 31 -11q15 -15 15 -45v-110
v-9v-6v-4q0 -2 -1 -4q0 -4 -1 -9q-2 -9 -6 -13t-9 -5l-5 -2l3 -4q11 -15 30 -18h9h1q23 0 33 12q11 12 11 27v5v0v2z" />
    <glyph glyph-name="q" unicode="q" horiz-adv-x="1001" 
d="M872 -235v0q4 -41 26 -55.5t63 -13.5q-18 -56 -59.5 -83.5t-86.5 -28.5q-84 -2 -126 56q-27 38 -31 92q-2 16 -2 31v87v0v192q-89 -64 -230 -64q-195 0 -270.5 106.5t-75.5 265.5v298q0 158 99 264t297 106q375 0 396 -332v-805v0v-116zM654 256v0l3 410q0 135 -180 142
q-186 0 -180 -180l-1 -278q0 -177 167 -170q51 0 105 19.5t86 56.5z" />
    <glyph glyph-name="question" unicode="?" horiz-adv-x="1236" 
d="M770 54v0q0 -61 -48.5 -105.5t-115.5 -44.5q-65 0 -113 44.5t-48 105.5q0 62 47 105.5t114 43.5t115.5 -44t48.5 -105zM699 1500v0q458 -62 439 -488q-15 -132 -74 -220.5t-131 -150.5q-72 -64 -114 -98h-1l-50 -42q-13 -12 -20 -29.5t-9.5 -32.5t-3.5 -20
q-10 -59 -52.5 -86t-90.5 -22q-38 2 -80.5 34.5t-39.5 109.5q11 122 194 278l12 10q61 47 124 120.5t77 175.5q8 208 -223 239q-15 2 -47 2q-58 0 -143 -22q-22 -9 -42 -20q-37 -21 -73 -57t-51 -87q-16 -63 21 -123q-85 -47 -160 -4q-80 50 -81 146q8 163 164 289
q83 61 212.5 85t242.5 13z" />
    <glyph glyph-name="quotedbl" unicode="&#x22;" horiz-adv-x="682" 
d="M235 1173v0q0 -2 -9 -15.5t-26 -30.5t-41 -27t-55 -4q-24 6 -40 27q38 36 56 70q13 19 27 51t14 62v12l-13 2q-101 33 -101 115q0 49 38.5 83.5t92.5 34.5q47 0 88.5 -32t41.5 -93q0 -46 -18.5 -118t-54.5 -137zM579 1173v0q0 -2 -9 -15.5t-26 -30.5t-41 -27t-55 -4
q-24 6 -40 27q38 36 56 70q13 19 27 51t14 62v12l-13 2q-101 33 -101 115q0 49 38.5 83.5t92.5 34.5q47 0 88.5 -32t41.5 -93q0 -46 -18.5 -118t-54.5 -137z" />
    <glyph glyph-name="quotedblbase" unicode="&#x201e;" horiz-adv-x="765" 
d="M268 -93v0q0 -2 -9 -15.5t-26 -30.5t-41 -27t-55 -4q-24 6 -40 27q38 36 56 70q13 19 27 51t14 62v12l-13 2q-101 33 -101 115q0 49 38.5 83.5t92.5 34.5q47 0 88.5 -32t41.5 -93q0 -46 -18.5 -118t-54.5 -137zM612 -93v0q0 -2 -9 -15.5t-26 -30.5t-41 -27t-55 -4
q-24 6 -40 27q38 36 56 70q13 19 27 51t14 62v12l-13 2q-101 33 -101 115q0 49 38.5 83.5t92.5 34.5q47 0 88.5 -32t41.5 -93q0 -46 -18.5 -118t-54.5 -137z" />
    <glyph glyph-name="quotedblleft" unicode="&#x201c;" horiz-adv-x="765" 
d="M497 1474v0q0 1 9 15t26 31t41 27t55 4q24 -6 40 -27q-38 -36 -56 -71q-13 -18 -27 -50t-14 -62v-12l13 -3q101 -32 101 -115q0 -48 -38.5 -82.5t-92.5 -34.5q-47 0 -88.5 32t-41.5 92q0 46 18.5 118.5t54.5 137.5zM153 1474v0q0 1 9 15t26 31t41 27t55 4q24 -6 40 -27
q-38 -36 -56 -71q-13 -18 -27 -50t-14 -62v-12l13 -3q101 -32 101 -115q0 -48 -38.5 -82.5t-92.5 -34.5q-47 0 -88.5 32t-41.5 92q0 46 18.5 118.5t54.5 137.5z" />
    <glyph glyph-name="quotedblright" unicode="&#x201d;" horiz-adv-x="765" 
d="M268 1173v0q0 -2 -9 -15.5t-26 -30.5t-41 -27t-55 -4q-24 6 -40 27q38 36 56 70q13 19 27 51t14 62v12l-13 2q-101 33 -101 115q0 49 38.5 83.5t92.5 34.5q47 0 88.5 -32t41.5 -93q0 -46 -18.5 -118t-54.5 -137zM612 1173v0q0 -2 -9 -15.5t-26 -30.5t-41 -27t-55 -4
q-24 6 -40 27q38 36 56 70q13 19 27 51t14 62v12l-13 2q-101 33 -101 115q0 49 38.5 83.5t92.5 34.5q47 0 88.5 -32t41.5 -93q0 -46 -18.5 -118t-54.5 -137z" />
    <glyph glyph-name="quoteleft" unicode="&#x2018;" horiz-adv-x="421" 
d="M153 1474v0q0 1 9 15t26 31t41 27t55 4q24 -6 40 -27q-38 -36 -56 -71q-13 -18 -27 -50t-14 -62v-12l13 -3q101 -32 101 -115q0 -48 -38.5 -82.5t-92.5 -34.5q-47 0 -88.5 32t-41.5 92q0 46 18.5 118.5t54.5 137.5z" />
    <glyph glyph-name="quoteright" unicode="&#x2019;" horiz-adv-x="421" 
d="M268 1173v0q0 -2 -9 -15.5t-26 -30.5t-41 -27t-55 -4q-24 6 -40 27q38 36 56 70q13 19 27 51t14 62v12l-13 2q-101 33 -101 115q0 49 38.5 83.5t92.5 34.5q47 0 88.5 -32t41.5 -93q0 -46 -18.5 -118t-54.5 -137z" />
    <glyph glyph-name="quotesinglbase" unicode="&#x201a;" horiz-adv-x="421" 
d="M268 -73v0q0 -2 -9 -15.5t-26 -30.5t-41 -27t-55 -4q-24 6 -40 27q38 36 56 70q13 19 27 51t14 62v12l-13 2q-101 33 -101 115q0 49 38.5 83.5t92.5 34.5q47 0 88.5 -32t41.5 -93q0 -46 -18.5 -118t-54.5 -137z" />
    <glyph glyph-name="quotesingle" unicode="'" horiz-adv-x="421" 
d="M268 1173v0q0 -2 -9 -15.5t-26 -30.5t-41 -27t-55 -4q-24 6 -40 27q38 36 56 70q13 19 27 51t14 62v12l-13 2q-101 33 -101 115q0 49 38.5 83.5t92.5 34.5q47 0 88.5 -32t41.5 -93q0 -46 -18.5 -118t-54.5 -137z" />
    <glyph glyph-name="r" unicode="r" horiz-adv-x="828" 
d="M725 927v0q23 -49 4 -104q-8 -21 -21 -37q-33 -39 -87 -46l-14 -2v14q-1 17 -8 32q-16 32 -46 42l-3 1q-38 14 -92 4q-36 -7 -63 -21q0 -11 1 -25v-19l-1 -489v-94q0 -16 -1 -32q-4 -56 -32 -96q-44 -60 -132 -58q-47 2 -90.5 30.5t-61.5 85.5q42 0 65 14.5t28 57.5v120
v461v5v4h-1v14v2q0 6 -0.5 13t-1 12.5l-0.5 5.5q0 1 -1 5.5t-3 11.5q-6 16 -24 30q-22 15 -57 8l-12 -2l-1 12q2 73 34 105t63 39q20 6 41 7h1l1 1h2h3q23 0 43 -4q45 -10 65 -34l1 -1q82 36 160 39q42 2 97 -12t99 -47q23 -18 34 -34q2 -4 4 -7z" />
    <glyph glyph-name="radical" unicode="&#x221a;" horiz-adv-x="2812" 
d="M1188 1527v0l-23 -4q-25 -3 -49 -9q-140 -45 -156 -194q-1 -9 -3 -17q0 -4 -1 -8v-337l4 -24q4 -27 11 -53q48 -139 192 -150q194 -5 388 0q84 5 140.5 61t60.5 140q6 195 0 390q-4 83 -60.5 138t-140.5 63q-9 1 -18 3q-4 0 -8 1h-337zM1681 1301v0q1 -33 1.5 -108
t-0.5 -151.5t-5 -112.5q-18 -122 -144 -126q-177 -4 -353 0q-139 9 -148 148q-3 175 0 350q9 141 150 150q175 2 350 0q140 -9 149 -150zM1563 1126v0q-2 87 -60 145.5t-146 61.5q-87 -2 -145.5 -60t-61.5 -146q2 -87 60 -145t146 -61q87 1 145.5 59t61.5 146zM1356 994v0
q-57 2 -94 39.5t-38 94.5q2 56 39.5 93t93.5 38q57 -1 94 -39t38 -95q-1 -56 -38.5 -93t-94.5 -38zM1619 1341v0q-1 20 -14.5 33.5t-34.5 14.5q-20 -1 -34 -14.5t-14 -33.5q0 -21 14.5 -35t35.5 -15q20 1 33.5 15t13.5 35zM593 298v0h-3q-8 -2 -13 2q-2 1 -4 4l-2 4v2v2
q-1 1 -1 3v3v241q1 3 0 12q-1 8 -9 16q-11 11 -33 8q-19 -2 -28 -22l-2 -3h3q8 0 12 -4q5 -4 6 -15v-60q-22 9 -46 9q-84 1 -84 -96v-57q0 -45 24 -70q21 -20 56 -20q30 0 63 17v1v-1q1 -1 1 -2l2 -2v-1q5 -5 15 -8q10 -2 21 1q7 2 14 9q8 8 8 25v2zM519 364v0v-45
q-24 -12 -42 -12q-20 0 -28 9q-10 9 -10 32v56q0 26 9 36q8 10 31 10q7 0 20 -3q12 -3 21 -9v0zM829 419v0q0 35 -19 56q-19 22 -60 22q-28 0 -50 -15v47v26v0v1v6q-1 13 -7 21q-8 11 -22 13h-7q-10 0 -20 -6q-9 -7 -13 -19q9 0 14 -4q5 -3 6 -12v-26v-204v-26
q-1 -10 -6 -13t-14 -3q4 -13 13 -19q10 -6 20 -6q4 -1 7 0q3 0 6 1q10 3 16 11q6 9 7 21v7v0v0v27v110q22 20 46 20q33 -1 33 -34v-96v-26v0v-1q-1 -9 -6 -12t-14 -3q4 -13 14 -19q9 -6 19 -6q4 -1 8 0q3 0 5 1q10 3 16 11q7 9 7 21q1 4 1 7v0v1v25v4v91zM990 499v0
q-11 4 -22 5h-3h-3h-1h-3h-4q-21 0 -37 -7q-9 -4 -20 -12q-10 -9 -16 -20v0q-3 -5 -3 -10l-1 -1v-1v-2v-1q0 -12 9 -22q4 -3 8 -5q10 -5 22 -2l2 1l-1 2q-1 4 -1 8q0 8 6 14v1q7 7 20 10q18 5 35 -4q2 -1 3 -3h1l1 -1v0v0q1 0 2 -1q10 -10 10 -25v-27l-2 1q-20 3 -40 3
q-26 0 -45 -7q-3 -1 -6 -3q-34 -17 -34 -60q0 -33 18 -52q21 -20 64 -21h2h1h1h1q32 1 54 15h1v-1q5 -6 12 -9q5 -3 11 -4q12 1 18 7q6 5 9 12q2 7 2 12v2h-2q-5 0 -9 2q-4 3 -6 10v0v3v4v92v3v16q0 9 -3 19q-2 10 -5 17l-3 5q-12 28 -43 37zM994 354v0v-24v-3l-1 -1v0v-2
q-2 -8 -8 -14v0l-1 -1q-11 -11 -32 -11h-5t-6 1v0q-12 2 -19 8t-7 22q0 18 15 26q1 1 2 1h1q8 3 19 3q6 0 18 -1q11 -1 24 -4v0zM1795 329v0q0 -9 -3 -14t-13 -6h-72l111 155q5 10 5 18q0 11 -8 18t-19 7h-114v0v0q-4 0 -7 -1q-12 0 -21 -7q-10 -7 -12 -20v-1v-1
q-1 -3 -1 -7v0q0 -10 7 -20q6 -9 19 -13q0 9 3 14t12 6l70 -1l-111 -156q-4 -8 -4 -15q0 -11 8 -18q8 -8 18 -8h116h1v0q3 0 6 1q13 0 22 7q10 7 12 22v6v1q0 10 -6 20q-6 9 -19 13zM2020 329v0q0 -9 -3 -14t-13 -6h-72l111 155q5 10 5 18q0 11 -8 18t-19 7h-114v0v0
q-4 0 -7 -1q-12 0 -21 -7q-10 -7 -12 -20v-1v-1q-1 -3 -1 -7v0q0 -10 7 -20q6 -9 19 -13q0 9 3 14t12 6l71 -1l-112 -156q-4 -8 -4 -15q0 -11 8 -18q8 -8 18 -8h116h1v0q3 0 6 1q13 0 22 7q10 7 12 22v6v1q0 10 -6 20q-6 9 -19 13zM2210 503v0q-11 3 -22 4h-3h-3h-1t-3 1h-4
q-21 -1 -37 -8q-9 -4 -20 -12q-10 -8 -16 -19v-1q-3 -5 -3 -9l-1 -1v-1v-2v-1q0 -12 9 -22l8 -6q10 -5 22 -1l2 1l-1 2q-1 4 -1 8q0 8 6 14v0q7 7 20 11q18 5 35 -5q2 -1 3 -2q1 0 1 -1h1v0v0l1 -1q11 -10 11 -25v-27h-2q-20 3 -40 3q-26 0 -45 -7l-6 -2q-34 -17 -34 -61
q0 -33 18 -51q21 -21 64 -21h2h1h1h1q32 1 54 14l1 1v-1q5 -6 12 -10q4 -2 11 -3q12 1 18 7q6 5 8 12q3 7 3 12v2h-2q-5 0 -9 2q-4 3 -6 10v0v3v3v93v3v16q0 9 -3 19q-2 10 -5 17l-3 5q-12 27 -43 37zM2214 358v0v-24v-3t-1 -1v0q0 -1 -1 -2q-1 -9 -7 -14v-1q-1 0 -1 -1
q-11 -11 -32 -11q-2 0 -5 1h-6v0q-12 2 -19 8q-7 7 -7 22q0 19 15 27q1 0 2 1h1q8 3 19 3q6 0 18 -1q11 -1 24 -4v0zM2535 302v0l-1 4l-3 -2q-7 -4 -14 -1q-2 1 -4 3l-1 1v1v0l-46 64l-21 29l53 49l2 2l4 2q0 1 3 2t7 1q3 0 7 -2l3 -2l1 4q3 11 -1 22q-2 5 -6 9
q-11 13 -26 11q-7 0 -14 -4q-3 -2 -5 -4l-87 -84v161q-1 11 -7 20q-9 12 -27 12q-10 0 -19 -6q-9 -7 -13 -19l-1 -3h3q7 0 11 -2q4 -3 4 -10v-7v-253q0 -7 -3 -9q-4 -3 -12 -3h-3l1 -3q3 -13 12 -19q10 -6 19 -6h1h1q17 0 26 12q6 9 7 20v7v46l25 23l6 -9v0l2 -2l2 -4v1
l51 -72q6 -10 11 -13q5 -5 11 -7q15 -5 29 5q4 4 7 8q9 13 5 27zM2591 498v0q-10 -7 -14 -20q10 0 15 -3q5 -4 6 -14v-13v-127v-20v-8q1 -13 8 -22q8 -11 23 -13h7q11 0 21 7q10 6 14 20q-10 -1 -15 3q-5 3 -6 13v0v28v119v14q0 4 -1 7q-1 13 -7 22q-10 14 -30 14
q-11 -1 -21 -7zM2640 592v0q-9 9 -22 9q-12 0 -21 -9q-9 -8 -9 -20q0 -11 9 -20q9 -8 21 -8q13 0 22 8q9 9 9 20q0 12 -9 20zM294 501v0q-11 4 -22 5h-3h-3h-1h-3h-4q-21 0 -37 -7q-9 -4 -20 -12q-10 -8 -16 -19v-1q-3 -5 -3 -10h-1v-1v-2v-2q0 -12 9 -21q4 -4 8 -6
q10 -5 22 -1h2l-1 2q-1 4 -1 8q0 9 6 15v0q7 7 20 10q18 5 35 -4q2 -1 3 -2l1 -1h1v0v0l2 -2q10 -9 10 -25v-26h-2q-20 3 -40 3q-26 0 -45 -7l-6 -2q-34 -17 -34 -61q0 -33 18 -51q21 -21 64 -22h2h1h1h1q32 1 54 15h1v0q5 -7 12 -10q5 -3 11 -3q12 1 18 6q6 6 9 13
q2 7 2 12v2h-2q-5 -1 -9 2t-6 9v1v3v3v92v3v16q0 10 -3 19q-2 10 -5 17l-3 5q-12 28 -43 37zM298 357v0v-25v-2t-1 -1v-1v-2q-2 -8 -8 -13v-1q-1 0 -1 -1q-11 -11 -32 -11h-5q-3 1 -5 1h-1q-12 2 -19 8t-7 22q0 19 15 26l2 2h1q8 3 19 3q6 0 18 -1q11 -1 24 -4v0zM1537 498
v0q-11 3 -23 4h-3h-2h-1q-2 0 -3 1h-4q-21 -1 -38 -8q-9 -4 -19 -12t-16 -19l-1 -1q-2 -5 -3 -9v-1v-1v-2v-1q-1 -12 9 -22q3 -3 7 -6q11 -5 23 -1l2 1l-1 2q-2 4 -2 8q0 8 6 14h1q7 7 19 11q19 5 36 -5q1 -1 3 -2l1 -1v0v0h1q0 -1 1 -1q10 -10 10 -25v-27h-1q-21 3 -41 3
q-26 0 -44 -7q-4 -1 -6 -2q-35 -17 -35 -61q0 -33 18 -51q21 -21 64 -21h2h2h1h1q32 1 54 14v1l1 -1q5 -6 11 -10q5 -2 11 -3q13 1 19 7q6 5 8 12t2 12v2h-2q-5 0 -8 2q-5 3 -6 10v0q-1 1 -1 3v3v93v3v16q0 9 -2 18q-2 11 -6 18l-2 5q-13 27 -43 37zM1541 353v0l-1 -24v-3
v-1v0q-1 -1 -1 -2q-2 -9 -7 -14l-1 -1l-1 -1q-11 -11 -31 -11q-3 0 -6 1h-5h-1q-12 2 -19 8q-7 7 -7 22q0 19 16 27q1 0 2 1h1q7 3 19 3q5 0 17 -1t24 -4h1zM1319 261v0q10 0 19 -8.5t9 -22.5q0 -13 -8 -22t-20 -9h-133q-11 0 -19 9t-8 22q0 14 8.5 22.5t18.5 8.5h133z" />
    <glyph glyph-name="registered" unicode="&#xae;" horiz-adv-x="1590" 
d="M1090 513v0l2 -33q1 -33 -14 -56.5t-33 -34.5q-8 -6 -18 -10l-3 -1l-7 23l6 -23q-17 -7 -34 -7q-12 0 -24 3q-4 1 -6.5 2t-4.5 2q-22 9 -40 31q-4 4 -8 9q-4 6 -9 15l-8 12q-15 22 -42.5 66l-54 85l-35.5 55h-51q0 -31 -0.5 -72.5t-0.5 -73.5v-36q-2 -35 -20 -60
q-20 -27 -57 -35l-7 -1q-10 -1 -19 -1q-23 0 -49 14t-41 45l-14 30l33 3q13 1 18.5 6t6.5 18v500q0 31 24 54t56 23h165q113 0 164.5 -42t65.5 -92.5t14 -74.5q0 -133 -127 -186l109 -165v0l1 -1l1 -1q10 -9 22 -5l8 2zM895 856v0q0 71 -98 71h-91v-139h97q31 0 61.5 13
t30.5 55zM795 3v0q296 0 505.5 209.5t209.5 505.5t-209.5 505.5t-505.5 209.5t-505.5 -209.5t-209.5 -505.5t209.5 -505.5t505.5 -209.5zM795 1276v0q231 0 394.5 -163.5t163.5 -394.5t-163.5 -394.5t-394.5 -163.5t-394.5 163.5t-163.5 394.5t163.5 394.5t394.5 163.5z" />
    <glyph glyph-name="ring" unicode="&#x2da;" horiz-adv-x="1024" 
d="M431 1257q0 -34 23 -57t57 -23t57.5 23t23.5 57q0 32 -24 56t-57 24t-56.5 -24t-23.5 -56zM335 1257q0 75 51 126t125 51q76 0 127.5 -51.5t51.5 -125.5q0 -75 -51.5 -126.5t-127.5 -51.5q-74 0 -125 51.5t-51 126.5z" />
    <glyph glyph-name="s" unicode="s" horiz-adv-x="878" 
d="M315 768v0q0 -65 55 -97t133 -57q107 -33 201 -97t94 -225v-1v0q-9 -312 -377 -312h-16h-1q-39 0 -85 5q-2 1 -4 1q-3 0 -6 1q-3 0 -6 1h-1q-26 5 -51 14q-37 13 -79 44t-70 75q-2 5 -4 9q-1 1 -1 3q-5 10 -9 20v2q-2 4 -2 8q-1 3 -2 7l-1 13q-3 50 33 91q13 16 31 25
q41 22 90 10l13 -3l-5 -13q-5 -14 -4 -31q2 -33 25 -52l2 -2q18 -16 47 -26q54 -17 111 -12q152 13 152 119q0 21 -7 37q-18 40 -66.5 64t-111.5 44q-108 31 -203 93t-95 222q0 280 367 311h27q5 0 11 -1q56 -3 106 -21q37 -13 79 -44t70 -75q2 -5 4 -9q1 -1 1 -3
q8 -16 11 -30q1 -3 2 -7l1 -13q3 -50 -33 -92q-13 -15 -31 -24q-41 -23 -90 -10l-13 3l4 13q6 14 5 30q-2 34 -25 53l-2 2q-23 20 -62 31q-27 6 -65 6q-26 0 -60.5 -6.5t-60.5 -27.5t-26 -66z" />
    <glyph glyph-name="section" unicode="&#xa7;" horiz-adv-x="909" 
d="M346 1211v0q0 -68 55 -101.5t133 -60.5q107 -34 201 -101t94 -235v-1v-1q-9 -326 -377 -326h-16h-1q-39 1 -85 6q-2 1 -4 1q-3 0 -6 1h-6q0 1 -1 1q-26 5 -51 14q-37 14 -79 46.5t-70 78.5q-2 5 -4 9q-1 2 -1 4q-5 11 -9 21v1q-2 5 -2 9q-1 3 -2 7l-1 14q-3 53 33 96
q13 15 31 25q41 24 90 11l13 -4l-5 -13q-5 -15 -4 -32q2 -35 25 -55l2 -2q18 -16 47 -27q54 -18 111 -13q152 13 152 125q0 21 -7 38q-18 43 -66.5 68t-111.5 46q-108 31 -203 96t-95 232q0 294 367 326h27q5 0 11 -1q56 -3 106 -22q37 -14 79 -46.5t70 -78.5q2 -4 4 -9
q1 -1 1 -3q8 -17 11 -31q1 -4 2 -7l1 -14q3 -53 -33 -96q-13 -16 -31 -26q-41 -23 -90 -10l-13 3l4 13q6 16 5 32q-2 35 -25 55l-2 2q-23 22 -62 33q-27 6 -65 6q-26 0 -60.5 -6.5t-60.5 -28.5t-26 -69zM315 702v0q0 -67 55 -101t133 -60q107 -34 201 -101.5t94 -234.5v-1
v-1q-9 -326 -377 -326h-16h-1q-39 1 -85 6h-4q-3 1 -6 1t-6 1h-1q-26 5 -51 15q-37 14 -79 46.5t-70 77.5q-2 5 -4 9q-1 2 -1 4q-5 11 -9 21v2q-2 4 -2 8q-1 4 -2 7l-1 14q-3 53 33 96q13 16 31 26q41 23 90 10l13 -4l-5 -13q-5 -15 -4 -32q2 -34 25 -54l2 -2q18 -17 47 -28
q54 -17 111 -13q152 14 152 125q0 22 -7 39q-18 42 -66.5 67t-111.5 46q-108 32 -203 97t-95 232q0 293 367 326q13 0 27 -1h11q56 -4 106 -22q37 -14 79 -46.5t70 -78.5q2 -5 4 -9q1 -2 1 -4q8 -16 11 -31q1 -3 2 -7l1 -14q3 -53 -33 -96q-13 -16 -31 -26q-41 -23 -90 -10
l-13 4l4 13q6 15 5 32q-2 34 -25 55l-2 2q-23 21 -62 32q-27 7 -65 7q-26 0 -60.5 -6.5t-60.5 -29t-26 -69.5z" />
    <glyph glyph-name="semicolon" unicode=";" horiz-adv-x="558" 
d="M284 443v0q54 -4 94.5 -41.5t38.5 -104.5q-2 -28 -12 -70l-2 -7q-5 -20 -12 -40v0l-4 -13q-18 -51 -39 -88v-1q0 -2 -10 -17t-28.5 -33.5t-44.5 -29t-60 -3.5q-26 6 -44 29q42 40 62 77q19 31 32 67l7 20l-26 2q-102 34 -103 133q5 54 47.5 88t103.5 32zM282 691v0
q-58 0 -100 39t-42 92q0 54 41.5 92t100.5 38q58 0 100.5 -38.5t42.5 -91.5t-42.5 -92t-100.5 -39z" />
    <glyph glyph-name="semicolon" unicode="&#x37e;" horiz-adv-x="558" 
d="M284 443v0q54 -4 94.5 -41.5t38.5 -104.5q-2 -28 -12 -70l-2 -7q-5 -20 -12 -40v0l-4 -13q-18 -51 -39 -88v-1q0 -2 -10 -17t-28.5 -33.5t-44.5 -29t-60 -3.5q-26 6 -44 29q42 40 62 77q19 31 32 67l7 20l-26 2q-102 34 -103 133q5 54 47.5 88t103.5 32zM282 691v0
q-58 0 -100 39t-42 92q0 54 41.5 92t100.5 38q58 0 100.5 -38.5t42.5 -91.5t-42.5 -92t-100.5 -39z" />
    <glyph glyph-name="seven" unicode="7" horiz-adv-x="1066" 
d="M479 105v0l-2 -4q-29 -55 -75 -84q-27 -16 -63 -19q-26 -2 -50 3l-6 1q-3 1 -6 1q-19 6 -35 13q-42 20 -73.5 61.5t-33.5 99.5q35 -12 69 -5t63 48l432 984h-422l-4 -1q-94 -16 -96 -99q-48 23 -71.5 65t-25.5 85q0 16 2 36l3 10q11 60 55 91q42 30 101 34
q11 0 118.5 0.5t248.5 0.5t250 1q53 0 90.5 -34.5t37.5 -83.5q0 -11 -2.5 -25.5t-8.5 -25.5l-409 -951l-14 -35l-47 -107.5z" />
    <glyph glyph-name="six" unicode="6" horiz-adv-x="1113" 
d="M1033 460v0q0 -169 -105 -317.5t-366 -148.5q-482 0 -471 679q0 747 496 751h6h4h3q22 0 43 -1q163 -7 243 -59q46 -30 62 -74q29 -79 -16 -152q-38 -56 -102 -70q4 25 -4.5 54.5t-42.5 51.5q-43 24 -88.5 33.5t-74.5 10.5q-12 1 -24 0h-1h-16q-140 -15 -185 -120
t-50 -234l-3 -40l34 21q91 58 212 58q154 0 300 -99t146 -344zM338 576v0q0 -46 9.5 -133t58.5 -159.5t166 -72.5q207 0 217 246q0 225 -223 233q-129 0 -222 -75l-6 -6v-33z" />
    <glyph glyph-name="slash" unicode="/" horiz-adv-x="994" 
d="M1074 1569v0q-85 -61 -135 -197l-455 -1311q-8 -23 -19 -47q-31 -75 -86 -128q-14 -13 -30 -25l-7 -4q-17 -12 -34 -20q-53 -25 -112 -25h-10q-16 0 -32 4l-5 1q-14 4 -26 9l-5 2q-22 10 -38 26q85 61 135 196l455 1312q8 23 19 48q31 74 86 127q83 79 195 74
q64 -3 104 -42z" />
    <glyph glyph-name="sterling" unicode="&#xa3;" 
 />
    <glyph glyph-name="summation" unicode="&#x2211;" horiz-adv-x="3159" 
d="M1071 870v0q78 0 118 -40q37 -37 37 -101q-1 -129 -156 -129q-39 0 -78 7h-5v-45q0 -26 10.5 -39.5t23.5 -20.5q34 -17 79 -7q41 11 47 34q2 5 0.5 12t-7.5 16q27 12 47 3q8 -4 14 -10q17 -18 16 -41v0q-1 -3 -1 -6q-5 -23 -26 -43.5t-45 -32.5q-23 -10 -44.5 -12
t-50.5 0q-110 10 -144 99q-3 13 -4 29t-1 22v157q15 148 170 148zM1141 730v0q0 35 -18 53q-17 18 -54 18q-77 0 -82 -73v-47l4 -1q22 -4 44.5 -5.5t34.5 -1.5q76 0 71 57zM1997 1055v0q40 5 60 -15q11 -11 14.5 -24.5t2.5 -25.5l-1 -464v-6t0.5 -5.5l0.5 -2.5v0q0 -1 1 -5
t4 -9.5t9 -9.5q12 -8 29 -5q-1 -29 -14 -42.5t-25 -16.5q-20 -5 -38 -1t-26 13l-1 2v0l-3 3q-1 1 -2 3l-3 5l-4 -2q-63 -34 -119 -34q-64 0 -104 39q-45 46 -45 131v109q-2 180 157 180q46 0 88 -17l6 -2v121q-3 23 -13 32t-26 9q17 36 52 40zM1984 615v0l1 144l-2 2
q-17 11 -42 18t-40 7q-90 0 -80 -93v-109q0 -45 19 -64q17 -18 59 -18q35 0 82 22l3 1v90zM2515 475v0q9 -5 18 -5q0 -9 -4 -21t-15 -21.5t-32 -11.5q-11 1 -19 6q-12 6 -21 17l-3 3l-3 -2q-41 -25 -100 -26q-2 -1 -4 -1h-2l-4 1q-80 1 -118 39q-33 33 -33 93q0 81 63 111
q5 2 11 5q34 12 82 12q38 0 76 -6h7v54q0 31 -20 49l-4 4q-1 0 -1.5 0.5t-0.5 1.5l-8 4q-32 18 -69 8q-24 -6 -38 -20l4 -3l-5 3q-12 -12 -12 -30q0 -9 3 -17q-21 -6 -39 3q-7 3 -13 9q-17 17 -16 39v2v0v0v0v4v2q2 9 6 18l1 1q11 20 29.5 35t34.5 22q31 13 70 13h8h7h5h5
q22 -2 41 -9q56 -16 80 -67l4 -10q6 -12 10 -31q4 -18 4 -35v-30v-6v-173q0 -4 1 -6q0 -5 1 -8q3 -14 13 -20zM2414 547v0l1 48l-4 1q-23 6 -45.5 8t-33.5 2q-22 0 -37 -6q-3 -1 -6 -3q-31 -16 -31 -53q0 -30 14 -43t39 -16q5 -1 11 -2h10q40 0 63 21q0 1 1 2v0l1 1
q11 12 15 28v0q0 2 1 3q1 2 1 3.5v5.5zM1500 871v0q68 0 107 -39q45 -45 45 -130l-1 -175v-48v-3v-1q1 -3 0 -6q0 -21 -14.5 -38.5t-46.5 -17.5h-2q-7 1 -13 1q-27 4 -42 25q9 3 16.5 10t11.5 23q1 7 1 14q1 3 1 7v4.5v10.5v10v4v168q0 48 -23 72q-20 19 -53 19
q-36 0 -85 -30l-2 -1v-15v-4v-256q1 -3 0 -6q0 -21 -14.5 -38t-46.5 -17h-2q-7 0 -13 1q-26 3 -42 24q9 3 17 10.5t11 22.5v2q2 8 2 16v236v63l-2 12q-9 26 -30 34q15 31 44 35q6 1 14 1v0v0q17 0 28.5 -8.5t20.5 -19.5l2 -3l4 2q51 29 107 29zM625 606v0l5 49l-31 -30
l-47 -45v-95q0 -6 -1 -12q-2 -22 -12 -37q-17 -23 -51 -23q-18 1 -34.5 12t-23.5 33q16 0 25 5.5t10 22.5v508v14q-2 18 -11.5 23.5t-23.5 4.5q7 23 24 33.5t35 11.5q33 1 50 -22q11 -15 12 -37l1 -287v-48l182 178q4 4 10 7q12 7 24 8q27 4 48 -20q6 -8 10 -17q8 -20 2 -40
q-12 6 -23.5 3t-16.5 -6q-4 -1 -8 -5q-3 -2 -5 -4l-108 -102l44 -61q1 -1 1 -2l91 -126l0.5 -0.5t0.5 -1.5l1 -1q5 -6 11 -9q18 -8 33 2q6 -26 -9 -49q-6 -8 -14 -14q-26 -20 -52 -11q-10 4 -21 13q-9 7 -21 26zM807 501v0v0v0v0zM2580 1014v0l-0.5 0.5t-1.5 0.5v0l-2 1
q-3 1 -7 1q-3 1 -5 1q16 35 51 38q6 1 13 1q24 0 36.5 -8.5t18 -19.5t6.5 -19q1 -4 1 -9l-1 -470v-11q-1 -13 1 -27q6 -31 26 -36q5 -2 13 -2q-15 -35 -49 -40q-35 -6 -54 11q-26 22 -26 86l1 403v4v59v1v1q0 16 -11 27q-4 5 -10 7z" />
    <glyph glyph-name="t" unicode="t" horiz-adv-x="743" 
d="M571 259v0q77 -34 90.5 -100.5t-29.5 -123t-135 -60.5q-232 -2 -304 97t-69 329v648v93q-4 41 -26.5 55t-63.5 14q18 57 60.5 85t88.5 29q16 0 31 -2q63 -8 98 -55q27 -39 31 -94q2 -15 2 -29v-2v-1v-93v-27v0v-52v-16h54h1h1q36 4 48.5 24t12.5 57q51 -16 76 -54t27 -79
q0 -15 -2 -29q-7 -56 -50 -87q-35 -25 -84 -28q-13 -2 -27 -2h-1h-1h-55l-2 -327q0 -23 -1 -47q-5 -69 9 -125.5t86 -71.5q46 -8 80 9.5t36 71.5q11 -3 18 -7z" />
    <glyph glyph-name="three" unicode="3" horiz-adv-x="1075" 
d="M653 863v0q342 -82 342 -391q0 -157 -107.5 -300.5t-333.5 -169.5l-13 -1q-18 -1 -37 -1q-121 0 -220 26q-112 30 -155 99q-49 82 -4 169q41 69 115 83q-5 -28 1.5 -56.5t35.5 -50.5q41 -28 87.5 -41t77.5 -16q34 -4 71 -3v-2l23 3q117 18 165.5 93t48.5 155
q0 72 -49 141t-207 69q-24 0 -38 -4t-24 -9q-9 -4 -18 -6.5t-25 -2.5q-48 0 -80.5 33.5t-32.5 81.5q0 25 9 36l335 407h-338h-4q-46 -10 -64 -36t-21 -61q-48 23 -71.5 65t-25.5 85q0 16 2 35q1 2 1 4v1l2 6q11 59 55 90l3 2q42 28 99 32l4 0.5t14.5 0.5h29.5h49.5h74.5
l390 1q114 0 129 -120q0 -44 -28 -79l-303 -361z" />
    <glyph glyph-name="tilde" unicode="&#x2dc;" horiz-adv-x="1024" 
 />
    <glyph glyph-name="two" unicode="2" horiz-adv-x="1083" 
d="M909 306v0q46 -23 69 -63t25 -81q0 -15 -2 -34l-3 -10q-11 -57 -53 -87q-41 -29 -99 -33q-13 0 -168 -1h-473q-54 0 -89.5 32t-35.5 82q0 18 2.5 41.5t11.5 45.5q135 244 359 420l15 13l51 45q86 70 159.5 152.5t73.5 185.5q0 188 -214 206h-3q-50 0 -93 -8
q-43 -9 -84 -26q-22 -9 -43 -21l-13 -7q-42 -25 -50.5 -56.5t1.5 -65.5q-54 5 -91 35.5t-53 69.5q-6 15 -11 34l-1 11q-9 49 14 93q25 46 102 82q36 17 78 29q58 18 127 28q66 9 122 9q408 0 454 -392q0 -139 -49.5 -227t-106.5 -144q-82 -82 -172 -159q-148 -122 -260 -262
l-24 -33h435q91 16 92 96z" />
    <glyph glyph-name="u" unicode="u" horiz-adv-x="1087" 
d="M994 106v0l13 -5l-6 -12q-34 -74 -107 -84q-14 -2 -31 -2v0q-41 0 -69 20t-49 45q-117 -65 -241 -65q-157 0 -249 90q-102 106 -102 297l1 226h-1v245q1 15 -3 32l-1 5q-6 31 -21 44.5t-32 18.5l-16 6l10 14q37 50 101 58q15 2 31 3h3q79 0 113.5 -42t36.5 -93v-15v-276
v0v-199q0 -102 49 -151q40 -40 108 -40q75 0 180 65v25v9l-1 291v0v172v10v22.5t-0.5 22t-0.5 10.5q0 7 -1 16q0 14 -4 29q-7 31 -22 44.5t-31 18.5l-16 6l10 14q37 51 102 59q15 2 31 2h3q79 0 113.5 -41.5t36.5 -92.5v-17v-1q0 -4 -1 -5l1 -269h1l-1 -418q1 -11 5 -24
q17 -51 57 -68z" />
    <glyph glyph-name="underscore" unicode="_" horiz-adv-x="996" 
d="M794 228v0q43 0 82.5 -31.5t39.5 -80.5q0 -47 -35.5 -79.5t-86.5 -32.5h-592q-51 0 -86.5 32.5t-35.5 79.5q0 49 39.5 80.5t82.5 31.5h592z" />
    <glyph glyph-name="uni02C9" unicode="&#x2c9;" horiz-adv-x="1024" 
 />
    <glyph glyph-name="v" unicode="v" horiz-adv-x="1090" 
d="M925 1031v0q42 -14 73 -51t32 -94q-63 23 -92 -20v0q-5 -7 -10 -18l-12 -37l-33 -98l-104 -311.5l-100 -294.5q-32 -107 -132 -107q-109 0 -133 105l-70.5 207l-83 244.5l-70 205l-28.5 83.5q-4 10 -10 18q-29 43 -92 20q1 57 32 94t73 51q15 5 29 7q2 0 3 1h3
q57 7 99 -25q29 -22 47 -59l8 -18q5 -13 9 -26q0 -1 1 -2v-1l24.5 -72l57.5 -170l62.5 -184.5t40.5 -121.5q11 38 42.5 136l66.5 205l55 169l13 42q1 0 1 1v1q4 13 10 26q1 5 4 9q0 1 1 3q0 1 1 2q1 2 1 4q18 37 47 60q30 22 67 25q16 1 32 -1h3h3q14 -3 29 -8z" />
    <glyph glyph-name="w" unicode="w" horiz-adv-x="1592" 
d="M1432 1035v0q40 -14 69.5 -52t30.5 -96v-7l-6 2q-60 21 -80 -17q-4 -9 -8 -17q-1 -5 -26.5 -86.5l-63 -202l-75.5 -241.5l-65 -205q-29 -109 -126 -109q-101 0 -127 107l-74 233l-85 267l-82.5 -265l-74.5 -233q-28 -109 -125 -109q-101 0 -128 107l-64.5 205.5l-77 242
l-64.5 203.5l-26 83q-4 8 -9 16q-19 38 -79 18l-6 -2v6q1 59 30.5 97t69.5 52q13 5 27 8h3h3q55 8 95 -25q27 -23 45 -61v0q4 -9 7 -18q5 -12 9 -26l1 -3q1 -4 21 -67.5l48.5 -154l55 -175l40.5 -129.5l39.5 127.5l55 176.5l49.5 157t22 69q29 90 118 90q86 0 111 -90
q2 -4 23.5 -69l51.5 -156.5l57.5 -176l41.5 -128.5q12 45 37.5 129.5l53 175.5l47 155.5t20.5 69.5h6l-5 2q4 15 9 27l4 8l1 3q0 1 1 3v0q1 2 1 3q18 39 45 61q28 23 65 26q16 1 30 -1h1h1v0h4q15 -3 27 -8z" />
    <glyph glyph-name="x" unicode="x" horiz-adv-x="1102" 
d="M919 179v0q37 -27 90 8q13 -55 -7.5 -98.5t-57.5 -67.5q-13 -9 -26 -14q-2 -1 -3 -1q-1 -1 -3 -1q-16 -7 -32 -9q-14 -3 -28 -2q-21 1 -41 9q-30 13 -55 39l-4 4v1l-2 2l-12 14q-9 12 -16 24l-1 1v1l-170 242l-170 -242v-1l-1 -1q-7 -12 -16 -24l-12 -14q-1 -1 -1 -2
q-1 0 -1 -1l-4 -4q-25 -26 -54 -39q-21 -8 -42 -9q-14 -1 -28 2q-16 2 -32 9q-1 0 -3 1q-1 0 -3 1q-13 5 -26 14q-37 24 -57.5 67.5t-7.5 98.5q53 -35 90 -8l2 2t3 2l2 2l2 2q0 1 1 1q4 4 9 10l65 93.5l156 222.5l-221 316q-5 6 -9 10q-1 0 -1 1l-2 2l-2 2q-39 34 -95 -4
q-13 55 7.5 98.5t57.5 67.5q13 9 26 14q2 1 3 1q2 1 3 1q16 7 32 9q36 7 70 -7q29 -13 54 -39q1 -1 2 -3l4 -4q6 -7 12 -15q4 -5 56.5 -80.5l130.5 -185.5l130.5 185.5t56.5 80.5q6 8 12 15l4 4q1 2 2 3q25 26 55 39q33 14 69 7q16 -2 32 -9q2 0 3 -1q1 0 3 -1q13 -5 26 -14
q37 -24 57.5 -67.5t7.5 -98.5q-56 38 -95 4l-2 -2l-2 -2q0 -1 -1 -1q-4 -4 -8 -10l-222 -316l156.5 -222.5l65.5 -93.5q4 -6 8 -10q1 0 1 -1l2 -2l2 -2q2 -1 3 -2z" />
    <glyph glyph-name="y" unicode="y" horiz-adv-x="1053" 
d="M963 927v0q10 -36 3 -76q0 -2 -1 -4v-3q-1 -1 -1 -3q-1 -4 -2 -9q-3 -14 -8 -27v-1v-1l-14 -42q1 0 1 1v0v0l-204 -623q-64 -218 -145.5 -362.5t-244.5 -175.5l-22 -4h-2h-1q-20 -3 -49 -3v0v0v0h-1q-12 0 -26 1q-24 2 -63 19.5t-68 62.5q-8 20 -11 43q-5 28 7 71.5
t71 71.5l11 4l2 -11q7 -31 28 -44q21 -11 38 -10q143 -4 212 241l-292 794q-1 0 -1 1v0q-1 2 -2 3l-4 8v0q-30 42 -93 17q-1 54 26.5 90.5t66.5 53.5q2 1 3 1q3 2 6 3q15 5 29 8h3h3q16 3 32 2q3 0 6 -1h4q31 -4 58 -23q29 -22 48 -58l2 -4q1 -1 1 -3l2 -2q0 -2 1 -3
q0 -1 1 -1l2 -4l10 -27v-1l1 -1l36 -100l81.5 -229.5l78.5 -229.5l46 146l57 176.5l48.5 150l19.5 61.5q1 3 1 5v3q1 2 1 3q1 5 1 9v0q1 51 -64 70q32 43 76.5 56t85.5 3q1 -1 3 -1q3 0 6 -1q15 -5 28 -11q2 -1 3 -2t2 -1q15 -8 27 -18q29 -24 40 -59z" />
    <glyph glyph-name="yen" unicode="&#xa5;" horiz-adv-x="1262" 
 />
    <glyph glyph-name="z" unicode="z" horiz-adv-x="947" 
d="M746 291v0q54 -17 80.5 -57t27.5 -84v0v-1q0 -15 -1 -29q-8 -60 -53 -92q-37 -27 -89 -30q-14 -2 -28 -2h-1h-1h-488q-45 0 -79 31.5t-34 77.5q0 31 20 64l468 657l-296 3q-38 -5 -51.5 -26t-13.5 -60q-54 17 -80.5 57t-27.5 84v0v1q0 15 2 29v4q1 2 1 4q9 54 51 84
q37 27 89 30q14 2 28 2h1h2h479q46 0 80.5 -28t34.5 -77q0 -34 -22 -73l-469 -656l305 1q39 5 52 26t13 60z" />
    <glyph glyph-name="zero" unicode="0" horiz-adv-x="1069" 
d="M535 1432v0q433 0 454 -458v-552q0 -383 -454 -420q-415 0 -455 420v552q0 437 455 458zM745 422v0v566q0 232 -210 240q-203 0 -210 -240v-566q0 -198 210 -214q194 0 210 214z" />
  </font>
</defs>
</svg>
